<?xml version="1.0" encoding="UTF-8" standalone="no"?>
<svg width="238px" height="863px" viewBox="0 0 238 863" version="1.1" xmlns="http://www.w3.org/2000/svg" xmlns:xlink="http://www.w3.org/1999/xlink" xmlns:sketch="http://www.bohemiancoding.com/sketch/ns">
    <!-- Generator: Sketch 3.3.2 (12043) - http://www.bohemiancoding.com/sketch -->
    <title>edited</title>
    <desc>Created with Sketch.</desc>
    <defs></defs>
    <g id="Page-1" stroke="none" stroke-width="1" fill="none" fill-rule="evenodd" sketch:type="MSPage">
        <g id="Artboard" sketch:type="MSArtboardGroup" transform="translate(0.000000, -10.000000)">
            <g id="edited" sketch:type="MSLayerGroup" transform="translate(-1.000000, 10.000000)">
                <g id="Group" fill="#D30101" sketch:type="MSShapeGroup">
                    <g id="Shape">
                        <g transform="translate(6.000000, 0.000000)">
                            <path d="M33.13,1.94 C34.34,1.65 35.55,1.39 36.77,1.12 C36.77,2.36 36.78,3.61 36.77,4.85 C35.71,4.76 34.64,4.65 33.58,4.55 C33.46,3.9 33.24,2.59 33.13,1.94 L33.13,1.94 Z"></path>
                            <path d="M131.07,4.94 C131.16,3.2 132.46,1.95 133.42,0.63 C133.84,4.09 133.95,7.58 134.02,11.07 C134.12,16.63 134.12,22.2 133.78,27.76 C131.18,27.79 128.58,27.8 125.98,27.79 C124.18,22.25 125.56,16.42 125.2,10.74 C126.5,9.85 127.84,9.02 129.2,8.21 C129.23,14.22 127.99,20.42 129.99,26.26 C132.5,19.35 129.96,12.01 131.07,4.94 L131.07,4.94 Z"></path>
                            <path d="M143.32,1.27 C144.37,1.4 145.42,1.52 146.48,1.64 C146.77,4.56 146.97,7.49 147.05,10.43 C147.06,15.12 146.96,19.8 147.2,24.48 C148.68,24.81 150.15,25.13 151.63,25.45 C151.7,26.06 151.83,27.28 151.9,27.89 C149.02,27.95 146.13,27.94 143.26,27.79 C142.84,22.28 142.89,16.76 142.99,11.24 C143.07,7.92 143.17,4.6 143.32,1.27 L143.32,1.27 Z"></path>
                            <path d="M1.22,2.21 C3.85,1.92 6.79,1.37 9.15,2.95 C11.81,5.47 11.29,9.61 10.98,12.91 C10.54,15.83 7.39,16.79 5.28,18.29 C5.11,21.46 4.99,24.64 4.73,27.81 C3.57,27.8 2.42,27.78 1.26,27.76 C0.75,19.26 0.58,10.7 1.22,2.21 L1.22,2.21 Z M5.39,4.86 C5.2,7.86 5.19,10.87 5.24,13.88 C6.04,13.43 6.84,12.97 7.65,12.52 C8.14,9.68 7.64,6.83 5.39,4.86 L5.39,4.86 Z"></path>
                            <path d="M77.27,2.22 C79.69,2.1 82.27,1.47 84.61,2.38 C87.72,4.08 88.67,8.14 87.35,11.29 C85.38,15.59 89.5,20.08 87.37,24.41 C85.82,28.41 80.8,28.32 77.27,27.75 C76.82,19.26 76.72,10.71 77.27,2.22 L77.27,2.22 Z M81.22,5.07 C81.15,7.52 81.13,9.98 81.33,12.43 C81.36,13.81 81.36,15.2 81.33,16.59 C81.11,19.02 81.11,21.47 81.18,23.91 C81.77,23.77 82.95,23.49 83.54,23.35 C83.68,21.62 83.78,19.88 83.79,18.14 C83.35,15.72 83.34,13.25 83.75,10.83 C83.75,9.11 83.68,7.39 83.56,5.67 C82.97,5.52 81.8,5.22 81.22,5.07 L81.22,5.07 Z"></path>
                            <path d="M63.79,14.11 C63.19,10.13 63.81,6.18 64.68,2.29 C67.04,4.22 68.99,6.79 69.78,9.77 C65.13,14.81 66.67,22.45 70.02,27.79 C68.48,27.76 66.93,27.79 65.41,27.55 C62.94,23.55 64.42,18.55 63.79,14.11 L63.79,14.11 Z"></path>
                            <path d="M14.14,8.2 C16.42,8.34 18.71,8.43 21,8.39 C20.87,9.42 20.75,10.45 20.63,11.48 C19.53,12.1 18.44,12.72 17.35,13.35 C17.03,18.14 17.11,22.95 16.81,27.74 C16.14,27.76 14.8,27.8 14.13,27.82 C13.82,21.29 13.69,14.73 14.14,8.2 L14.14,8.2 Z"></path>
                            <path d="M24.37,8.29 C26.88,6.93 30.21,8.46 30.72,11.29 C31.5,15.76 31.12,20.39 30.77,24.88 C30.13,29.6 21.85,28.84 22.08,24.02 C22.3,18.9 20.1,12.19 24.37,8.29 L24.37,8.29 Z M25.98,10.73 C24.75,15.15 24.92,19.79 25.49,24.29 C26.06,24.45 27.19,24.78 27.76,24.94 C27.42,20.3 29.51,14.47 25.98,10.73 L25.98,10.73 Z"></path>
                            <path d="M34.11,8.18 C34.8,8.17 36.19,8.15 36.88,8.14 C37.25,15.44 36.95,22.76 37,30.07 C37.32,32.67 35.12,35.64 32.3,34.75 C29.81,32.91 33.76,30.29 33.85,27.98 C34.33,21.39 33.5,14.77 34.11,8.18 L34.11,8.18 Z"></path>
                            <path d="M41.64,8.62 C43.44,7.56 46.49,7.29 47.73,9.32 C49.61,12.06 48.92,15.56 48.82,18.66 C46.94,18.94 45.05,19.21 43.16,19.47 C43.2,21.42 43.28,23.37 43.41,25.32 C45.12,23.66 46.6,21.69 48.82,20.67 C48.84,22.93 48.96,25.48 47.25,27.23 C45.02,28.66 41.34,28.34 40.39,25.51 C39.64,22.05 40.04,18.46 39.92,14.94 C40.09,12.81 39.62,10.03 41.64,8.62 L41.64,8.62 Z M44.01,10.67 C43.6,12.34 43.27,14.04 42.96,15.74 C43.73,15.73 45.26,15.7 46.03,15.69 C45.71,13.9 45.8,11.72 44.01,10.67 L44.01,10.67 Z"></path>
                            <path d="M52.24,11.18 C52.4,8.67 55.37,7.14 57.57,8.24 C58.97,9.11 59.82,10.59 60.91,11.79 C60.74,12.69 60.39,14.49 60.21,15.39 C58.23,14.25 56.64,12.63 55.16,10.91 C55,15.79 54.76,20.71 55.6,25.54 C56.32,24.24 57.01,22.91 57.69,21.58 C58.74,21.35 59.8,21.13 60.85,20.9 C60.67,22.83 60.53,24.84 59.66,26.62 C58.35,27.47 56.86,27.99 55.45,28.66 C54.34,27.98 53.23,27.31 52.13,26.64 C52.05,21.49 51.63,16.3 52.24,11.18 L52.24,11.18 Z"></path>
                            <path d="M93.39,8.27 C95.61,7.42 98.57,8.57 98.84,11.15 C99.45,16.68 98.57,22.3 99.51,27.81 C96.48,27.83 93.45,27.89 90.43,27.6 C90.15,25.07 89.56,22.25 90.96,19.93 C92.14,18.16 93.91,16.9 95.31,15.31 C95.99,13.98 95.68,12.4 95.91,10.97 C94.21,12.54 92.36,14.02 89.94,14.08 C90.63,11.94 91.29,9.48 93.39,8.27 L93.39,8.27 Z M93.18,24.43 C93.91,24.57 95.39,24.85 96.13,24.99 C96.15,22.66 95.95,20.32 95.19,18.1 C93.68,19.9 93.05,22.12 93.18,24.43 L93.18,24.43 Z"></path>
                            <path d="M103.72,8.28 C106.15,8.36 108.53,8.84 110.85,9.53 C110.79,10.41 110.66,12.18 110.6,13.06 C108.98,12.47 107.37,11.86 105.74,11.28 C106.45,16.19 112.02,19.49 110.86,24.73 C110.34,28.52 104.7,29.14 102.69,26.25 C102.22,24.62 102.17,22.92 101.97,21.25 C103.78,22.34 105.55,23.49 107.32,24.64 C107.48,23.97 107.79,22.64 107.94,21.98 C106.14,19.8 103.99,17.82 102.82,15.2 C101.86,12.89 103.13,10.5 103.72,8.28 L103.72,8.28 Z"></path>
                            <path d="M114.21,9.48 C115.95,9.02 117.67,8.13 119.51,8.31 C121.22,9.19 121.61,11.23 122.1,12.91 C122.2,14.67 122.24,16.43 122.3,18.19 C120.27,18.77 118.23,19.34 116.2,19.93 C116.42,21.57 116.67,23.21 116.99,24.85 C118.89,23.44 120.76,21.98 122.72,20.63 C122.38,22.99 121.95,25.34 121.46,27.68 C119.13,27.84 116.8,27.85 114.47,27.72 C113.77,21.67 113.5,15.54 114.21,9.48 L114.21,9.48 Z M115.99,15.89 C117.33,15.84 118.67,15.78 120.01,15.71 C119.69,14.19 119.44,12.65 118.84,11.21 C116.05,10.39 116.62,14.21 115.99,15.89 L115.99,15.89 Z"></path>
                            <path d="M152.96,12.63 C153.78,10.75 154.83,8.38 157.21,8.24 C159.61,7.61 160.92,9.93 162.28,11.44 C162.09,13.81 161.93,16.19 161.76,18.56 C159.89,18.79 158.02,19.03 156.16,19.29 C156.24,20.95 156.33,22.61 156.44,24.27 C156.95,24.4 157.96,24.65 158.47,24.77 C158.81,23.64 159.15,22.51 159.49,21.37 C160.14,21.32 161.45,21.22 162.1,21.16 C161.76,23.47 162.22,26.66 159.57,27.75 C157.36,28.37 154.23,28.05 153.61,25.39 C152.41,21.27 153.02,16.87 152.96,12.63 L152.96,12.63 Z M156.86,16.65 C160.03,16.45 158.49,12.76 158.83,10.68 C156.06,11.22 155.19,14.61 156.86,16.65 L156.86,16.65 Z"></path>
                            <path d="M165.23,12.05 C166.07,10.1 167.58,7.98 169.98,8.13 C172.05,7.98 172.97,10.19 174.19,11.46 C173.98,16.88 174.16,22.31 173.79,27.72 C170.99,27.67 168.2,27.66 165.4,27.58 C165.18,25.18 164.75,22.74 165.28,20.35 C166.05,18.39 167.91,17.2 169.37,15.79 C170.74,14.57 170.59,12.71 170.65,11.04 C168.78,11.99 166.93,12.97 165.09,13.97 C165.12,13.49 165.19,12.53 165.23,12.05 L165.23,12.05 Z M168.04,24.92 C168.68,24.8 169.95,24.57 170.58,24.46 C170.75,22.21 170.82,19.96 170.77,17.71 C168.44,19.45 167.89,22.15 168.04,24.92 L168.04,24.92 Z"></path>
                            <path d="M186.33,8.39 C188.7,8.44 191.08,8.44 193.45,8.42 C194,9.34 194.54,10.26 195.09,11.18 C195.08,16.7 195.12,22.24 194.8,27.76 C194.13,27.76 192.79,27.78 192.13,27.79 C191.24,22.04 193.62,15.41 190,10.39 C188.49,16.06 189.24,21.97 188.83,27.76 C188.17,27.78 186.85,27.84 186.19,27.86 C185.94,22.24 185.71,16.59 186.1,10.97 C186.16,10.32 186.27,9.03 186.33,8.39 L186.33,8.39 Z"></path>
                            <path d="M197.83,9.56 C198.75,9.01 199.67,8.47 200.6,7.92 C200.67,8.68 200.82,10.21 200.89,10.97 C201.25,16.57 201.05,22.19 200.81,27.79 C200.16,27.81 198.84,27.84 198.18,27.85 C197.84,21.76 198,15.66 197.83,9.56 L197.83,9.56 Z"></path>
                            <path d="M216.04,10.86 C217.36,9.94 218.59,8.76 220.18,8.31 C222.54,8.3 224.82,9.03 227.16,9.3 C224.72,12.89 225.36,17.3 224.33,21.29 C222.67,22.61 220.61,23.25 218.71,24.1 C221.56,25.81 226.82,25.93 227.04,30.09 C227.45,35.22 220.37,36.13 216.94,34.02 C214.73,33.31 214.85,30.56 216.19,29.08 C218.1,28.79 219.16,30.66 220.47,31.7 C221.61,31.75 222.75,31.8 223.9,31.85 C223.74,31.31 223.41,30.23 223.25,29.68 C220.96,29.27 218.68,28.84 216.4,28.4 C216.84,22.54 215.87,16.72 216.04,10.86 L216.04,10.86 Z M219.5,11.66 C218.92,14.88 218.86,18.22 220,21.33 C223.07,18.81 221.66,14.5 221.74,11.09 C221.18,11.23 220.06,11.52 219.5,11.66 L219.5,11.66 Z"></path>
                            <path d="M177.7,8.04 C180.12,8.45 182.45,9.27 184.63,10.38 C183.26,11.57 181.91,12.76 180.54,13.95 C181.03,18.53 181.18,23.15 180.83,27.75 C179.62,27.76 178.41,27.77 177.21,27.79 C176.92,22.5 176.76,17.19 177.03,11.9 C177.23,10.61 177.45,9.33 177.7,8.04 L177.7,8.04 Z"></path>
                            <path d="M204.88,9.44 C205.4,9.24 206.43,8.84 206.95,8.64 C207.38,9.06 208.22,9.91 208.64,10.33 C207.8,16.09 208.19,21.93 207.8,27.73 C207.12,27.74 205.76,27.76 205.08,27.77 C204.78,21.66 205.04,15.55 204.88,9.44 L204.88,9.44 Z"></path>
                            <path d="M209.73,11.3 C209.94,10.56 210.37,9.08 210.58,8.35 C211.29,8.68 212.7,9.35 213.4,9.69 C212.94,15.83 214.19,21.94 213.61,28.07 C211.71,28.01 209.51,27.23 210.02,24.91 C209.84,20.37 209.94,15.83 209.73,11.3 L209.73,11.3 Z"></path>
                        </g>
                        <path d="M22.58,75.54 C25.38,66.3 38.14,62.92 45.74,68.33 C48.8,70.17 50.35,73.56 51.67,76.73 C52.39,82.19 51.95,88.62 47.19,92.23 C42.01,96.99 34.25,96.37 28.17,93.84 C22.83,89.61 20.23,82.05 22.58,75.54 L22.58,75.54 Z"></path>
                        <path d="M0,107.55 C6.73,107.49 13.47,107.31 20.19,107.79 C17.12,108.37 14.21,109.76 11.04,109.86 C7.36,110.01 3.68,109.87 0,110 L0,107.55 L0,107.55 Z"></path>
                        <path d="M26.87,107.8 C33.24,107.34 39.62,107.49 46,107.48 C110.33,107.44 174.67,107.6 239,107.4 L239,110.04 C197.3,109.92 155.61,110.18 113.91,109.94 C99.08,109.83 84.24,109.97 69.41,109.86 C67.02,109.81 64.63,109.8 62.24,109.85 C54.13,109.93 46.02,109.87 37.91,109.93 C34.08,110.14 30.6,108.29 26.87,107.8 L26.87,107.8 Z"></path>
                    </g>
                    <g transform="translate(12.000000, 198.000000)" id="Shape">
                        <path d="M158,6.1 C161.63,3.97 165.63,2.59 169.56,1.12 C182.33,-1.97 196.24,7.15 199.08,19.83 C201.05,26.79 199.55,34.56 195.61,40.56 C193.24,44.21 189.24,46.25 186.36,49.39 C185.7,52.95 185.78,56.61 185.43,60.22 C185.05,63.95 187.2,67.25 188.03,70.78 C190.28,77.8 188.46,85.44 185.09,91.78 C181.87,95.97 178.25,100.15 173.36,102.41 C170.56,103.82 167.46,104.48 164.57,105.66 C161.71,107.34 159.66,110.04 157.18,112.2 C152.29,116.85 146.44,120.29 140.56,123.53 C131.1,128.38 120.63,130.38 110.3,132.38 C109.98,137.72 110.74,143.38 114.43,147.52 C118.79,150.35 124.17,150.03 129.13,150.49 C124.55,152.81 120.11,155.52 116.58,159.31 C116.22,158.96 115.5,158.28 115.14,157.94 C113.01,155.75 110.86,153.52 108.17,152.03 C104.55,149.84 99.94,148.19 98.69,143.69 C98.01,139.91 97.72,136.08 97.5,132.25 C92.89,131.18 88.19,130.6 83.6,129.45 C68.72,125.84 55.06,117.69 44.51,106.63 C38.09,100 33.03,92.18 29.31,83.76 C28.4,80.88 25.11,80.43 22.75,79.25 C17.87,77.41 14.01,73.79 10.53,70.03 C1.34,61.05 -1.96,46.64 1.59,34.41 C4.28,23.12 12.57,13.47 23.18,8.84 C27.11,7.21 31.29,5.83 35.61,6.22 C37.36,6.3 39.12,6.35 40.87,6.41 C40.36,6.84 39.35,7.69 38.84,8.12 C39.76,8.88 40.7,9.63 41.64,10.38 C34.46,9.65 28.39,14.45 22.13,17.21 C17.78,18.89 14.93,22.7 12.36,26.4 C8.3,31.67 7.47,38.58 6.96,45.01 C7.18,57.53 15.52,69.33 27.04,74.12 C27.88,74.78 28.68,75.5 29.48,76.23 C30.55,77.9 30.94,80.36 33.02,81.11 C36.33,82.26 39.89,81.57 43.3,81.46 C43.26,79.96 43.23,78.47 43.19,76.98 C48.59,74.57 54.5,72.99 59.09,69.11 C62.02,66.96 64.33,64.12 66.3,61.1 C71.47,52.97 72.38,42.64 69.63,33.51 C68.14,29.37 65.21,25.97 62.71,22.42 C60.86,19.76 57.75,18.54 55.19,16.73 C51.94,14.47 49.52,11.3 46.97,8.33 C47.37,7.94 48.19,7.15 48.59,6.76 C54.76,8.72 60.88,11.32 65.58,15.9 C73.59,23.61 78.03,34.76 77.82,45.84 C77.3,50.63 76.15,55.36 74.57,59.9 C71.23,67.25 65.32,73.32 58.5,77.53 C53.75,80.66 48.04,81.53 42.59,82.69 C49.23,94.21 58.73,104.25 70.62,110.39 C85.26,118.61 102.96,120.79 119.28,117.16 C129.96,114.38 140.59,109.92 148.59,102.09 C149.58,102.4 150.57,102.69 151.56,102.97 C154.76,104.02 158.16,104.06 161.49,103.85 C161.98,103 162.48,102.16 163,101.33 C166.48,97.03 172.49,96.24 176.21,92.25 C177.68,90.74 178.28,88.66 179.07,86.76 C173.44,86.63 167.8,86.54 162.25,87.62 C157.16,88.26 152.24,86.73 147.38,85.48 C145.95,81.77 144,77.62 145.79,73.68 C147.29,69.73 152.35,69.48 155.95,69.55 C163.69,70.27 171.48,69.68 179.23,70.47 C180.43,67.72 181.66,64.95 182.4,62.03 C180.86,57.4 176.21,55.1 172.88,51.91 C175.83,51.54 178.91,51.3 181.53,49.76 C184.33,47.99 184.03,44.15 185.64,41.54 C187.71,38.32 190.6,35.69 192.47,32.32 C188.1,33.75 183.68,35.29 179.01,34.97 C173.86,34.72 168.48,36.7 163.54,34.56 C161.05,33.58 158.7,32.28 156.22,31.28 C157.55,38.44 164.35,42.69 166.99,49.28 C164.91,48.9 162.83,48.5 160.76,48.05 C153.26,43.72 149.03,35.3 148.33,26.86 C148.16,18.9 151.9,11.18 158,6.1 L158,6.1 Z M162.48,4.41 C161.18,5.53 160.3,7.03 159.34,8.43 C160.24,8.44 162.04,8.47 162.93,8.48 C160.89,9.98 159.03,11.71 157.36,13.62 C157.38,15.64 157.34,17.65 157.25,19.67 C160.14,19.41 162.98,18.79 165.86,18.4 C170.5,19.8 175.34,18.76 180.04,18.31 C184.18,17.79 187.96,19.82 191.78,21.03 C190.91,17.47 189.97,13.42 186.46,11.53 C181.8,7.54 175.6,6.97 170.02,5.06 C167.6,4.33 164.98,3.71 162.48,4.41 L162.48,4.41 Z M171,25.17 C168.7,25.16 166.11,24.08 164.26,25.96 C163.27,25.38 162.28,24.79 161.28,24.24 C161.43,26.02 161.67,27.82 162.1,29.57 C169.57,29.69 177.05,29.93 184.52,29.4 C184.86,28.29 185.19,27.18 185.53,26.08 C186.06,27.57 186.1,29.5 187.76,30.26 C187.98,27.74 188.22,23.84 184.83,23.48 C180.28,24.5 175.65,25.01 171,25.17 L171,25.17 Z M151.35,73.87 C151.16,76.12 151.11,78.37 151.15,80.63 C154.35,80.79 157.52,81.38 160.73,81.5 C165.06,81.05 169.41,80.89 173.77,80.82 C174.05,79.82 174.34,78.82 174.63,77.83 C174.79,78.65 175.1,80.3 175.25,81.12 C176.76,81.05 178.26,80.95 179.77,80.86 C179.79,79.27 179.79,77.67 179.78,76.08 C175.89,75.69 171.98,76.5 168.11,75.89 C164.43,75.21 160.74,76.6 157.07,76.08 C155.15,75.38 153.3,74.48 151.35,73.87 L151.35,73.87 Z"></path>
                        <path d="M21.89,39.92 C25.57,36.14 31.27,37.26 36.01,37.08 C41.8,37.4 48.02,36.08 53.44,38.71 C56.88,40.43 58.05,44.41 58.12,48 C57.57,47.04 57.04,46.07 56.5,45.11 C56.09,47.44 55.59,49.77 55.06,52.08 C51.86,52.95 48.63,53.69 45.39,54.43 C40.43,55.57 35.36,54.48 30.34,54.67 L29.41,54.7 C26.46,52.92 23.44,51.24 20.43,49.55 C20.5,46.34 20.1,42.73 21.89,39.92 L21.89,39.92 Z M25.6,41.21 C25.37,43.7 25.31,46.21 25.29,48.71 C28.43,48.82 31.69,49.73 34.78,48.93 C37.01,48.4 36.25,45.62 36.48,43.96 C35.4,43.28 34.27,42.74 33.07,42.32 C31.42,43.99 29.76,45.66 27.81,46.98 C27.45,44.86 28.55,41.72 25.6,41.21 L25.6,41.21 Z M37.12,43.42 C37.16,45.15 37.22,46.87 37.29,48.6 C39.98,48.9 42.69,48.96 45.4,48.84 C45.58,47.11 45.83,45.39 46.24,43.7 C46.75,45.6 47.18,47.53 47.68,49.44 C49.01,47.72 48.97,45.36 50.3,43.65 C50.92,45.94 51.21,48.4 52.6,50.4 C52.84,48.11 52.82,45.81 52.58,43.53 C47.47,42.62 42.25,42.79 37.12,43.42 L37.12,43.42 Z M26.68,51.18 C26.35,52.6 28.76,52.93 29.3,51.81 C29.65,50.37 27.22,50.06 26.68,51.18 L26.68,51.18 Z"></path>
                        <path d="M134.21,69.44 C137.81,57.87 149.3,49.1 161.58,49.73 C162.23,49.93 163.53,50.33 164.19,50.53 C162.7,55.14 157.38,55.78 153.51,57.46 C147.64,59.42 143.69,64.56 140.8,69.77 C138.82,73.91 139.98,78.66 140.11,83.06 C140,85.97 142.52,87.76 144.27,89.71 C146.58,91.91 148.2,94.68 150.12,97.21 C148.58,98.27 147.02,99.31 145.47,100.38 C140.85,96.98 136.41,92.73 134.78,87.05 C132.65,81.42 132.44,75.19 134.21,69.44 L134.21,69.44 Z"></path>
                        <path d="M153.4,143.91 C155.03,136.91 162.07,132.45 168.92,132.02 C173.59,132.23 178.39,133.88 181.57,137.42 C185.08,141.3 186.31,146.79 185.79,151.9 C185.25,152.86 184.69,153.82 184.08,154.74 C183.63,153.83 182.95,153.47 182.03,153.67 C177.87,154.82 174.14,157.42 169.75,157.74 C166.66,157.7 163.7,156.71 160.65,156.32 C160.36,155.2 160.07,154.08 159.78,152.97 C164.82,149.67 171,152.36 176.56,151.75 C176.43,149.98 176.34,148.2 176.28,146.43 C174.92,145.77 173.57,145.09 172.23,144.41 C171.03,145.8 169.83,147.19 168.67,148.61 C167.65,147.35 166.63,146.1 165.58,144.87 C164.44,146.64 163.33,148.43 162.16,150.19 C162.54,147.39 161.69,144.04 163.56,141.68 C166.02,140.38 168.8,139.93 171.4,139 C168.01,139.06 163.91,138.67 161.34,141.35 C159.61,144.28 159.8,147.9 159.35,151.19 C157.89,148.62 156.11,146.25 154.35,143.89 C153.76,148.57 154.54,153.27 156.45,157.57 C155.07,155.74 154,153.7 153.09,151.6 C153.01,149.03 153.12,146.46 153.4,143.91 L153.4,143.91 Z M182.59,144.68 C182.44,146.56 182.42,148.46 182.52,150.35 C184.08,148.72 183.66,146.44 182.59,144.68 L182.59,144.68 Z"></path>
                        <path d="M189.71,155.13 C195.65,151.25 204.29,150.17 210.08,154.89 C214.58,158.03 216.83,163.64 217.11,168.98 C217.26,174.16 213.6,178.3 210.08,181.66 C208.33,182.64 206.48,183.44 204.59,184.12 C197.6,185.71 189.36,182.54 186.34,175.79 C190.08,179.94 194.95,184.2 201,183.13 C205.11,183.58 207.53,180.03 209.26,176.91 C205.94,176.4 202.63,175.79 199.31,175.25 C195.59,173.87 191.81,172.41 187.78,172.49 C187.69,171.03 187.66,169.57 187.57,168.12 C188.36,169.21 189.14,170.31 189.93,171.42 C198.81,170.86 207.71,171.39 216.59,171.04 C216,169.46 215.41,167.89 214.81,166.33 C205.77,167.6 196.48,167.37 187.45,166.17 C187.41,165.49 187.34,164.14 187.3,163.47 C188.43,163.19 189.57,162.92 190.71,162.67 C193.49,162.16 196.27,161.61 199.07,161.27 C201.82,161.5 204.58,161.71 207.34,161.7 C204.01,158 198.86,159.13 194.48,159.39 C192.62,158.7 190.79,157.96 188.96,157.22 C189.15,156.7 189.53,155.65 189.71,155.13 L189.71,155.13 Z"></path>
                    </g>
                    <g id="Shape" transform="translate(127.000000, 434.000000)">
                        <path d="M5.22,4.94 C8.41,2.85 11.7,0.01 15.75,0.23 C19.65,0.42 23.89,0.58 27.19,2.92 C29.37,4.42 30.49,6.9 31.46,9.26 C28.55,6.23 25.88,2.35 21.49,1.46 C17.6,0.73 13.39,0.99 9.78,2.69 C6.43,4.62 5.5,8.7 5.12,12.26 C7.66,11.23 9.81,9.49 12.25,8.27 C14.75,7.48 16.2,10.08 17.83,11.45 C19.49,10.82 21.13,10.06 22.9,9.83 C25.53,10.69 27.95,12.11 30.25,13.64 C30.24,16.7 30.14,20.05 32.97,21.98 C32.85,22.34 32.62,23.08 32.5,23.44 C27.8,32.89 13.62,35.32 6.15,27.86 C2.45,24.74 0.95,19.87 0.75,15.17 C1.43,11.47 2.7,7.8 5.22,4.94 L5.22,4.94 Z M7.18,13.55 C7.65,15.82 6.33,20.3 10,20.11 C12.65,20.72 12.66,17.29 14.46,16.23 C14.85,17.37 15.23,18.51 15.58,19.67 C19.67,19.77 23.77,19.6 27.87,19.66 C28.26,17.96 28.64,16.26 29.05,14.57 C25.45,14.85 21.85,14.62 18.25,14.58 C14.45,14.82 10.95,11.81 7.18,13.55 L7.18,13.55 Z"></path>
                    </g>
                    <g transform="translate(9.000000, 511.000000)" id="Shape">
                        <path d="M52.65,13.1 C53.1,9.03 52.66,4.81 54.13,0.91 C55.26,5.52 54.92,10.29 55.04,14.99 C55.09,17.97 55.14,21.01 54.11,23.86 C52.91,21.9 51.59,19.73 52.15,17.33 C52.32,15.92 52.52,14.51 52.65,13.1 L52.65,13.1 Z"></path>
                        <path d="M3.24,3.18 C5.02,3.17 6.81,3.21 8.59,3.29 C8.7,5.08 8.79,6.89 8.89,8.7 C7.65,7.74 6.39,6.81 5.1,5.94 C4.79,9.53 7.39,12.21 8.6,15.35 C9.27,17.5 8.81,19.79 8.76,22 C6.98,22.3 4.59,23.63 3.27,21.75 C1.65,20.35 1.43,18.13 0.96,16.19 C3,17.46 4.94,18.87 6.99,20.13 C6.68,15.84 3.25,12.81 2.14,8.81 C1.63,6.84 2.59,4.97 3.24,3.18 L3.24,3.18 Z"></path>
                        <path d="M9.61,3.33 C12.38,3.07 15.15,3.01 17.93,3.09 C17.32,4.93 15.93,6.36 15.19,8.14 C14.51,12.89 15.54,17.65 15.54,22.42 C14.81,22.87 14.08,23.34 13.35,23.82 C12.74,18.63 13.37,13.39 12.77,8.21 C11.96,6.44 10.64,4.97 9.61,3.33 L9.61,3.33 Z"></path>
                        <path d="M19.67,3.65 C20.19,3.46 21.22,3.06 21.74,2.86 C22.18,8.52 21.93,14.2 22.24,19.86 C22.62,19.86 23.38,19.86 23.76,19.85 C24.09,14.15 23.78,8.43 24.26,2.74 C24.88,2.74 26.12,2.75 26.73,2.75 C27.07,7.82 27.26,12.93 26.9,18.02 C26.84,19.82 26.07,21.59 24.66,22.76 C23.13,22.95 21.69,22.32 20.26,21.9 C19.82,15.83 20.19,9.72 19.67,3.65 L19.67,3.65 Z"></path>
                        <path d="M29.27,3.03 C31.71,3.09 35.43,2.74 36.21,5.78 C37.64,10.85 37.39,16.45 35.43,21.37 C33.37,21.9 31.31,22.44 29.24,22.96 C28.85,16.32 28.75,9.66 29.27,3.03 L29.27,3.03 Z M32.22,6.17 C32.04,10.92 31.82,15.71 32.48,20.44 C35.06,16.16 33.65,10.91 33.75,6.19 C33.37,6.19 32.61,6.18 32.22,6.17 L32.22,6.17 Z"></path>
                        <path d="M39.29,3.19 C41.28,3.13 43.27,3.16 45.26,3.28 C44.35,4.68 43.31,6 42.42,7.43 C42.26,10.6 42.59,13.8 42.25,16.98 C42.01,19.31 44.26,20.79 45.26,22.67 C43.28,22.79 41.29,22.85 39.3,22.82 C38.76,16.3 38.79,9.72 39.29,3.19 L39.29,3.19 Z"></path>
                        <path d="M47.21,3.12 C47.83,3.18 49.09,3.28 49.71,3.34 C50.1,5.34 50.86,7.34 50.78,9.41 C50.44,10.33 50.1,11.27 49.77,12.21 C47.94,15.98 51.48,20.75 48.21,24.05 C45.96,17.33 47.19,10.07 47.21,3.12 L47.21,3.12 Z"></path>
                        <path d="M56.96,3.26 C59.75,3.02 62.55,3.04 65.33,3.37 C64.43,4.78 63.36,6.07 62.2,7.29 C61.89,12.51 62.17,17.75 61.78,22.97 C61.2,22.83 60.05,22.56 59.47,22.43 C58.26,16.05 60.35,9.15 56.96,3.26 L56.96,3.26 Z"></path>
                        <path d="M1.64,32.48 C1.15,30.86 1.84,29.36 2.64,28 C4.24,32.19 4.91,36.66 5.5,41.09 C6.17,37.51 6.87,33.93 7.4,30.33 C8.21,29.97 9.01,29.61 9.81,29.26 C8.72,35.75 7.87,42.28 6.66,48.76 C6.08,48.75 4.91,48.73 4.32,48.71 C3.28,43.33 2.67,37.87 1.64,32.48 L1.64,32.48 Z"></path>
                        <path d="M21.26,48.81 C21.07,41.95 20.04,34.76 22.01,28.1 C23.89,34.81 22.79,42.01 22.73,48.91 C22.36,48.89 21.63,48.84 21.26,48.81 L21.26,48.81 Z"></path>
                        <path d="M26.11,33.01 C25.88,30.41 29.01,27.99 31.23,29.7 C34.03,31.58 32.37,35.27 32.44,38.01 C31.57,36.02 30.72,34.01 29.79,32.06 C26.65,35.22 28.4,40.22 28.14,44.21 C27.46,47.06 31.35,46.83 30.92,44.14 C31.24,42.7 31.71,41.31 32.19,39.92 C32.51,42.62 34.01,46.37 31.22,48.28 C29.72,49.42 26.19,49.27 26.21,46.86 C25.84,42.25 25.97,37.61 26.11,33.01 L26.11,33.01 Z"></path>
                        <path d="M12.43,30.36 C14.43,28.32 18.11,29.55 18.42,32.4 C19.34,37.57 19.79,43.43 17.28,48.25 C14.84,50.19 10.88,48.16 11.11,45.02 C11.23,40.2 9.82,34.67 12.43,30.36 L12.43,30.36 Z M14.67,30.8 C14.17,36.14 12.9,42.18 15.31,47.18 C16.14,42.79 16.09,38.3 15.83,33.87 C15.88,32.7 15.29,31.72 14.67,30.8 L14.67,30.8 Z"></path>
                        <path d="M35.21,30.3 C37.25,30.06 39.29,29.82 41.35,29.73 C40.31,31.17 38.91,32.26 37.44,33.25 C37.46,34.62 37.53,36.01 37.53,37.39 C37.46,38.69 37.35,39.98 37.18,41.28 L37.18,42.97 C36.96,45.12 38.83,45.96 40.49,46.68 C40.6,47.22 40.82,48.29 40.93,48.83 C39.05,48.86 37.17,48.86 35.29,48.81 C34.78,42.65 34.83,36.46 35.21,30.3 L35.21,30.3 Z"></path>
                    </g>
                    <g transform="translate(0.000000, 454.000000)" id="Shape">
                        <path d="M176.68,3.84 C180.37,2.3 184.19,1.12 188.1,0.31 C188.26,3.94 188.38,7.58 188.52,11.22 C188.58,18.05 188.69,24.88 188.55,31.71 C188.4,39.25 187.49,47.06 189.52,54.41 C193.19,57.19 198.14,57.49 201.98,60.04 C209.49,64.12 214.61,71.4 217.91,79.11 C222.44,90.83 220.27,104.77 212.88,114.87 C202.31,129.19 181.02,134.05 165.29,125.72 C157.89,121.38 151.19,115.13 148.01,107.01 C145.2,99.97 143.87,92.06 145.74,84.6 C147.88,75.04 153.74,66.29 161.99,60.95 C166.37,57.97 171.57,56.68 176.29,54.38 C176.77,37.54 176.91,20.68 176.68,3.84 L176.68,3.84 Z"></path>
                        <path d="M0,47.17 C37.61,46.77 75.24,47.13 112.86,47.01 C122.47,47.11 132.09,46.76 141.69,47.16 C144.07,47.57 146.41,48.17 148.81,48.47 C154.37,48.82 159.96,48.46 165.52,48.79 L166.36,48.85 C161.49,49.18 156.61,49.1 151.73,49.16 C137.99,48.79 124.24,49.1 110.5,49 C73.66,49.02 36.83,48.94 0,49.02 L0,47.17 L0,47.17 Z"></path>
                        <path d="M224.23,46.96 C229.15,47 234.07,47 239,47 L239,48.88 C234.13,49.09 229.25,48.96 224.37,49.01 C224.34,48.5 224.26,47.48 224.23,46.96 L224.23,46.96 Z"></path>
                        <path d="M0,136.18 C43.09,135.69 86.2,136.13 129.29,135.97 C131.7,135.98 134.11,135.93 136.52,135.93 C146.66,136.61 156.84,135.94 167,136.16 C187.45,135.97 207.92,136.54 228.37,135.92 C231.91,135.95 235.45,136.02 239,136 L239,139.05 C234.41,139.17 229.76,138.5 225.2,139.19 C220.86,141.23 217.51,144.87 213.37,147.27 C206.41,151.17 198.73,153.78 190.86,155.06 C200.52,152.67 210.26,149.47 218.28,143.39 C220.37,141.93 221.47,139.58 222.55,137.36 C197.69,136.87 172.81,137.41 147.94,137.12 C145.12,137 142.29,137.3 139.64,138.27 C137.49,138.9 135.24,139.01 133.02,139.03 C88.68,139.01 44.34,139.02 0,139.04 L0,136.18 L0,136.18 Z"></path>
                    </g>
                    <g transform="translate(1.000000, 610.000000)" id="Shape">
                        <path d="M19.77,0.7 C25.23,-0.98 30.82,1.23 35.83,3.29 C40.46,6.77 44.53,11.49 45.8,17.27 C46.36,20.68 46.07,24.15 45.83,27.58 C44.32,30.19 42.89,32.86 41.43,35.51 C42.14,33.05 42.46,30.51 42.76,27.98 C38.43,29.34 35,33.47 30.16,32.84 C25.2,32.44 20.17,32.21 15.26,33.24 C15.35,35.16 15.46,37.09 15.55,39.02 C18.08,39.56 20.62,40.02 23.17,40.49 C21.77,41.23 20.35,41.96 18.94,42.71 C21.42,42.83 23.89,42.99 26.36,43.17 C25.7,43.35 24.37,43.72 23.7,43.9 C13.69,45.5 5.15,36.71 2.27,27.83 C1.86,23.78 1.56,19.54 2.85,15.61 C5.55,8.22 12.08,2.45 19.77,0.7 L19.77,0.7 Z M11.75,14.57 C18.81,14.02 25.85,15.27 32.92,14.88 C34.13,15.21 35.35,15.5 36.58,15.8 C36.55,13.94 36.51,12.11 36.42,10.27 C35.8,10.35 34.55,10.51 33.92,10.59 C30.93,8.86 27.58,7.59 24.11,7.41 C19.27,7.78 13.7,9.69 11.75,14.57 L11.75,14.57 Z M7.39,18.13 C8.54,21.14 8.88,24.36 10.03,27.37 C10.93,24.4 11.18,21.29 11.73,18.25 C10.28,18.21 8.84,18.18 7.39,18.13 L7.39,18.13 Z M22.3,20.49 C19.61,21.62 16.93,22.84 13.99,23.19 C15.26,22.34 16.54,21.5 17.78,20.61 C16.83,20.59 14.94,20.53 13.99,20.5 C11.63,21.95 12.47,24.74 13.1,26.89 C14.57,26.79 16.11,26.97 17.53,26.5 C19.85,24.95 21.7,22.6 24.55,21.99 C24.63,23.07 24.71,24.17 24.78,25.27 C23.36,25.53 21.95,25.88 20.59,26.4 C25.53,26.77 30.59,27.88 35.47,26.55 C35.85,25.21 36.24,23.88 36.63,22.56 C37.11,22.43 38.07,22.16 38.55,22.03 C38.99,24.05 39.43,26.09 40.03,28.09 C40.5,26.1 41.38,23.71 40.12,21.86 C38.78,20.41 36.93,19.6 35.29,18.55 C31.42,21.2 26.66,20.17 22.3,20.49 L22.3,20.49 Z"></path>
                        <path d="M50.48,19.51 C55.03,12.53 65.14,11.13 72.22,14.75 C76.57,16.88 78.81,21.38 80.45,25.7 C79.86,28.37 79.54,31.1 78.92,33.77 C78.98,32.63 79.62,30.43 77.9,30.31 C76.47,31.32 77.98,33.03 78.92,33.77 C78.81,34.15 78.59,34.92 78.47,35.31 C73.87,33.63 69.46,36.87 64.82,36.24 C60.62,35.65 56.39,35.08 52.14,35.23 C50.85,35.48 49.57,35.82 48.31,36.18 C48.24,35.9 48.1,35.35 48.03,35.07 C47.94,29.85 47.17,23.99 50.48,19.51 L50.48,19.51 Z M59.61,18.27 C60.27,19.71 60.83,21.2 61.4,22.68 C62.38,22.57 63.35,22.46 64.33,22.37 C64.79,21.12 65.26,19.89 65.74,18.66 C63.69,18.59 61.64,18.47 59.61,18.27 L59.61,18.27 Z M55.35,25.21 C55.57,27.11 55.78,29.06 55.42,30.97 C58.58,30.65 61.75,30.53 64.93,30.61 C64.75,29.7 64.57,28.8 64.4,27.91 C66.34,30.38 69.34,30.6 72.27,30.61 C72.88,29.28 73.48,27.96 74.07,26.63 C70.37,26.54 66.68,26.64 62.99,26.4 C60.46,25.91 57.95,25.25 55.35,25.21 L55.35,25.21 Z"></path>
                        <path d="M28.54,22.03 C30.78,22.35 33.56,22.21 34.29,24.89 C32.7,24.77 30.71,25.87 29.38,24.7 C29.17,24.04 28.75,22.7 28.54,22.03 L28.54,22.03 Z"></path>
                        <path d="M14.62,24.34 C15.2,23.36 17.7,23.38 17.41,24.85 C16.82,25.81 14.33,25.82 14.62,24.34 L14.62,24.34 Z"></path>
                        <path d="M32.41,49.65 C38.52,45.05 45.14,41.19 52.08,38.01 C54.03,40.35 56.19,42.66 59.08,43.82 C62.45,45.51 66.35,44.6 69.75,43.54 C73.4,42.48 75.64,39.07 79.03,37.54 C83.09,36.95 87.06,38.45 90.74,40.01 C105.52,46.15 117.51,59.02 121.82,74.52 C124.09,81.31 123.77,88.55 123.53,95.61 C123.29,101.51 120.82,107.01 118.5,112.35 C109.41,130.94 88.79,143.64 68,142.36 C60.84,142.7 53.99,140.29 47.44,137.69 C40.78,134.79 35.2,129.98 29.95,125.06 C24.47,119.95 21.28,113 18.65,106.12 C16.04,99.41 16.09,92.07 16.29,84.98 C16.5,82.85 16.24,80.49 17.55,78.66 C21.16,77.21 25.38,77.01 28.48,74.44 C30.78,72.24 31.98,69.17 33.02,66.23 C34.93,60.73 31.62,55.24 32.41,49.65 L32.41,49.65 Z"></path>
                        <path d="M9.73,47.72 C13.58,45.41 18.21,45.91 22.45,46.41 C23.55,47.36 24.67,48.29 25.74,49.28 C23.42,48.39 20.83,47.2 18.37,48.31 C16.13,49.06 15.62,51.67 15.16,53.7 L14.97,54.5 C19.22,54.58 23.48,54.57 27.74,54.43 C28.5,56.34 30.55,58.28 29.56,60.47 C21.73,62.23 13.31,61.62 5.61,59.4 C5.41,61.53 5.28,63.68 5.16,65.83 C5.89,65.01 6.62,64.21 7.34,63.4 C11.99,64.88 16.93,65.88 21.82,65.35 C24.28,64.51 26.45,63.03 28.8,61.95 C29.31,63.76 29.83,65.57 30.39,67.38 C24.12,71.46 16.3,69.29 9.43,68.31 C9.38,70.01 9.14,71.76 9.48,73.47 C10.68,76.28 14.23,75.92 16.71,76.63 C14.14,83.13 15.66,90.26 15.32,97.06 C14.17,90.56 15.36,83.94 14.6,77.42 C12.12,77.3 9.21,76.35 7.09,78.09 C6.89,78.49 6.47,79.3 6.27,79.7 C5.96,85.8 6.16,91.93 6.34,98.05 C6.82,107.53 11.92,115.78 15.75,124.2 C6.77,111.13 3.03,94.38 6.13,78.78 C6.23,77.2 7.08,75.41 6,74.01 C3.62,70.08 0.6,65.97 1.02,61.12 C1.84,55.73 4.67,50.23 9.73,47.72 L9.73,47.72 Z"></path>
                    </g>
                    <g transform="translate(157.000000, 640.000000)" id="Shape">
                        <path d="M9.96,1.09 C11.61,1.26 13.27,1.52 14.84,2.1 C13.59,2.65 12.34,3.2 11.08,3.74 C11.56,4.55 12.05,5.36 12.52,6.2 C14.11,8.45 14.68,11.22 13.97,13.9 C12.5,13.79 11.04,13.67 9.58,13.53 C9.4,12.37 9.22,11.21 9.05,10.07 C10.41,10.66 11.77,11.29 13.15,11.88 C11.86,8.33 8.18,5.12 9.96,1.09 L9.96,1.09 Z"></path>
                        <path d="M16.36,0.57 C17.51,1.07 17.96,1.92 17.72,3.1 C17.6,4.83 17.41,6.56 17.31,8.31 C17.16,10.39 17.49,12.56 16.65,14.55 C15.6,9.96 15.86,5.21 16.36,0.57 L16.36,0.57 Z"></path>
                        <path d="M32.88,0.42 C34.43,4.99 34,9.93 33.64,14.66 C33.29,14.63 32.6,14.58 32.25,14.56 C32.9,9.87 32.95,5.14 32.88,0.42 L32.88,0.42 Z"></path>
                        <path d="M28.09,6.12 C28.16,4.74 28.93,3.9 30.38,3.6 C30.17,7.78 30.34,12.12 28.86,16.11 C28.15,12.84 27.61,9.46 28.09,6.12 L28.09,6.12 Z"></path>
                        <path d="M36.24,4.17 C37.41,4.16 38.59,4.16 39.76,4.16 C39.9,7.39 39.95,10.62 39.97,13.85 L39.24,13.87 C39.06,10.84 39.01,7.76 37.99,4.87 C36.96,7.96 37.15,11.29 36.28,14.42 C35.81,11.01 36.1,7.58 36.24,4.17 L36.24,4.17 Z"></path>
                        <path d="M42.49,4.48 C43.89,4.4 45.3,4.33 46.71,4.27 C46.34,6.6 45.95,8.93 45.53,11.26 C44.87,9.3 44.3,7.32 43.4,5.47 C43.35,7.48 43.13,9.58 43.7,11.55 C44.75,12.94 46.08,14.08 47.2,15.43 C46.06,15.4 43.8,15.34 42.67,15.31 C43.92,15.63 45.17,15.97 46.42,16.32 C45.21,17.86 43.18,17.21 41.51,17.29 C41.8,13.01 41.98,8.73 42.49,4.48 L42.49,4.48 Z"></path>
                        <path d="M24.08,12.95 C24.72,10.17 25.34,7.4 25.88,4.61 C26.19,7.66 26,10.73 25.79,13.79 C24.61,13.79 23.42,13.8 22.24,13.82 C22.17,12.1 22.1,10.39 22.07,8.69 C22.69,10.12 23.38,11.53 24.08,12.95 L24.08,12.95 Z"></path>
                        <path d="M25.52,17.89 C26.85,20.13 28.88,22.21 28.99,24.96 C29.17,27.25 28.93,29.54 28.78,31.83 C27.6,31.82 26.41,31.81 25.23,31.81 C24.84,27.17 24.76,22.49 25.52,17.89 L25.52,17.89 Z M27,31.16 C28.22,28.45 28.16,25.4 26.99,22.7 C25.87,25.41 25.78,28.45 27,31.16 L27,31.16 Z"></path>
                        <path d="M2.25,19.33 C4.11,19.22 5.98,19.15 7.85,19.05 C6.72,19.98 5.6,20.92 4.48,21.89 C4.79,26.02 4.04,30.12 3.06,34.12 C1.45,29.36 1.87,24.25 2.25,19.33 L2.25,19.33 Z"></path>
                        <path d="M21.8,20.9 C21.98,20.33 22.35,19.18 22.53,18.6 C23.35,22.97 23.08,27.43 22.76,31.84 C21.58,31.82 20.4,31.8 19.23,31.8 C18.98,28.68 18.83,25.55 19.06,22.43 C19.74,25.4 20.21,28.41 21.09,31.34 C22.22,27.95 21.76,24.39 21.8,20.9 L21.8,20.9 Z"></path>
                        <path d="M42.95,18.59 C43.55,20.14 44.03,21.75 44.47,23.37 C44.9,23.39 45.75,23.44 46.18,23.47 C46.22,26.5 46.76,29.56 46.27,32.59 C45.68,31.46 45.11,30.32 44.58,29.18 C44.12,30.2 43.66,31.21 43.18,32.23 C42.96,27.69 42.74,23.14 42.95,18.59 L42.95,18.59 Z"></path>
                        <path d="M51.46,20.52 C51.84,20.06 52.61,19.13 52.99,18.67 C53.12,20.15 53.24,21.64 53.36,23.14 C53.71,21.68 54.03,20.22 54.38,18.78 C56.68,20.9 55.2,23.98 54.64,26.52 C55.21,26.49 56.37,26.43 56.95,26.4 C56.91,28.12 56.89,29.84 56.89,31.57 C55,31.68 53.1,31.79 51.21,31.87 C51.22,28.09 51.05,24.28 51.46,20.52 L51.46,20.52 Z M52.49,28.31 C51.29,29.19 52.55,31.63 53.94,30.59 C55.18,29.68 53.87,27.24 52.49,28.31 L52.49,28.31 Z"></path>
                        <path d="M7.49,22.48 C8.66,22.35 9.83,22.23 11.01,22.13 C11.57,24.05 11.78,26.04 11.29,28.02 C10.56,26.67 9.91,25.3 9.26,23.94 C9.34,26.29 9.27,28.64 9.09,31 C9.91,30.17 10.75,29.36 11.6,28.56 C11.47,29.43 11.22,31.15 11.09,32.01 C9.9,31.86 8.71,31.68 7.54,31.46 C6.57,28.54 6.95,25.43 7.49,22.48 L7.49,22.48 Z"></path>
                        <path d="M13.46,22.5 C14.53,22.33 15.61,22.17 16.68,22.02 C16.82,23.4 16.98,24.78 17.15,26.17 C16.25,25.2 15.35,24.25 14.45,23.3 C14.31,26.46 14.28,29.73 15.88,32.58 C15.21,32.32 13.88,31.78 13.21,31.51 C12.79,28.5 12.88,25.47 13.46,22.5 L13.46,22.5 Z"></path>
                        <path d="M37.41,22.38 C38.37,22.37 39.33,22.37 40.29,22.38 C40.58,23.59 40.88,24.81 41.19,26.03 C40.13,24.95 39,23.94 37.86,22.97 C37.91,25.58 38.08,28.2 38.34,30.81 C39.11,30.37 40.64,29.5 41.41,29.07 C41.17,29.74 40.71,31.08 40.48,31.76 C39.39,31.77 38.31,31.79 37.24,31.83 C36.89,28.67 36.85,25.5 37.41,22.38 L37.41,22.38 Z"></path>
                        <path d="M33.1,30.22 C33.56,27.89 34.12,25.58 34.85,23.34 C35.18,26.13 35.01,28.95 34.79,31.75 C33.64,31.76 32.48,31.79 31.33,31.82 C31.17,30.47 31,29.14 30.83,27.81 C31.59,28.6 32.34,29.41 33.1,30.22 L33.1,30.22 Z"></path>
                        <path d="M0.61,51.1 C0.67,46.09 0.64,40.87 2.88,36.27 C3.79,37.37 4.95,38.44 4.87,40.02 C5.18,43.41 5.67,46.79 5.87,50.2 C2.33,49.23 4.34,44.34 3.33,41.64 C2.17,44.76 3.43,48.7 0.61,51.1 L0.61,51.1 Z"></path>
                        <path d="M55.96,37.53 C56.63,38.73 58.1,39.89 57.69,41.44 C57.05,44.44 57.23,47.5 57.59,50.53 C57.3,50.58 56.72,50.67 56.43,50.71 C56.01,46.34 55.18,41.91 55.96,37.53 L55.96,37.53 Z"></path>
                        <path d="M13.04,40.09 C14.15,40.23 15.27,40.37 16.39,40.53 C16.57,41.05 16.94,42.08 17.13,42.59 C16.06,42.5 15,42.42 13.93,42.36 C15.21,44.49 17.46,46.61 16.48,49.35 C15.45,49.6 14.42,49.83 13.38,50.03 C13.25,49.29 13,47.82 12.87,47.08 C13.62,47.68 14.38,48.28 15.14,48.89 C14.02,46.06 12.86,43.2 13.04,40.09 L13.04,40.09 Z"></path>
                        <path d="M17.8,40.75 C19.08,40.51 20.37,40.28 21.66,40.06 C21.84,41.35 22.02,42.65 22.21,43.96 C21.25,43.27 20.31,42.6 19.36,41.94 C19.43,44.26 19.49,46.59 19.58,48.93 C20.18,48.85 21.38,48.69 21.98,48.61 C23.45,48.42 24.89,48.02 26.33,47.64 C24.94,45.54 23.37,43.13 24.59,40.56 C26.33,39.83 27.47,41.12 28.43,42.39 C27.27,42.39 26.1,42.4 24.94,42.41 C26.38,44.56 27.97,46.75 27.87,49.48 C24.83,49.34 21.55,50.2 18.67,49.26 C17.45,46.65 18.06,43.56 17.8,40.75 L17.8,40.75 Z"></path>
                        <path d="M35.22,40.22 C37.34,40.31 39.47,40.4 41.59,40.51 C42.02,43.88 41.97,47.28 41.63,50.66 C41.33,50.64 40.73,50.59 40.43,50.56 C40.54,47.5 41.47,44.13 39.61,41.4 C39.14,44.37 39.16,47.43 38.44,50.37 C37.94,47.16 38.06,43.84 36.99,40.74 C35.88,43.84 36.08,47.17 35.54,50.38 C34.64,47.06 35.13,43.6 35.22,40.22 L35.22,40.22 Z"></path>
                        <path d="M44.41,40.47 C45.1,40.35 46.47,40.11 47.16,39.99 C47.55,41.8 47.84,43.63 48.02,45.48 C47.18,44.22 46.28,43.02 45.37,41.81 C45.08,44.87 44.79,47.93 44.47,51 C43.6,47.54 43.96,43.96 44.41,40.47 L44.41,40.47 Z"></path>
                        <path d="M50.02,51.1 C48.84,47.55 47.62,42.34 51.05,39.7 C51.13,43.5 51.37,47.45 50.02,51.1 L50.02,51.1 Z"></path>
                        <path d="M52.16,40.65 C52.48,40.45 53.13,40.04 53.46,39.83 C54.03,43.57 54.67,47.55 52.99,51.12 C51.82,47.81 51.43,44.06 52.16,40.65 L52.16,40.65 Z"></path>
                    </g>
                    <g id="Shape" transform="translate(26.000000, 791.000000)">
                        <path d="M16.64,3.55 C25.07,-1.17 35.8,-0.63 44.28,3.7 C50.69,6.91 54.75,13.1 58.08,19.21 C58.36,20.22 58.56,21.25 58.69,22.31 C60.41,30.47 57.97,38.82 53.96,45.92 C46.41,57.31 30.48,61.09 18.12,55.89 C16.02,54.78 14.02,53.46 12.19,51.97 C4.63,44.96 -1.28,34.21 1.65,23.71 C3.57,15.33 8.91,7.52 16.64,3.55 L16.64,3.55 Z M13.01,14.96 C10.42,18.82 8.32,23.3 8.28,28.03 C7.96,35.92 12.05,44.11 19.07,47.94 C30.82,55.06 48.8,48.82 52.24,35.13 C54.58,36.01 56.6,34.53 58.12,32.9 C56.31,32.22 54.48,31.62 52.64,31.06 C52.61,26.11 53.65,21.25 53.78,16.33 C53.2,16.34 52.03,16.37 51.45,16.39 C51.37,16.85 51.22,17.77 51.14,18.23 C47.25,13.63 42.81,8.98 36.75,7.45 C28.26,4.53 18.58,8.22 13.01,14.96 L13.01,14.96 Z"></path>
                    </g>
                    <g id="Shape" transform="translate(175.000000, 823.000000)">
                        <path d="M2.14,10.99 C4.52,5.88 9.11,0.62 15.14,0.43 C18.22,0.36 21.32,0.42 24.37,0.96 C29.12,3.53 33.92,7.24 35.04,12.85 C36.71,17.9 35.27,23.27 32.69,27.74 C30.12,30.19 27.39,32.65 23.96,33.79 C19.79,35.22 15.23,34.67 11.06,33.56 C8.29,31.52 5.6,29.33 3.37,26.7 C0.66,21.97 -0.39,16.02 2.14,10.99 L2.14,10.99 Z M13.27,3.1 C4.33,5.22 0.53,16.51 4.64,24.22 C6.49,27.12 8.95,29.78 12.07,31.31 C16.44,32.15 21.28,32.35 25.37,30.32 C31.87,26.78 34.79,17.98 31.72,11.25 C28.77,4.28 20.47,0.34 13.27,3.1 L13.27,3.1 Z"></path>
                    </g>
                </g>
                <g id="Group-+-Shape" transform="translate(18.000000, 65.000000)" fill="#1EE827" sketch:type="MSShapeGroup">
                    <g id="Group" transform="translate(0.000000, 265.000000)">
                        <path d="M61.93,5.16 C66.04,7.53 69.23,11.23 73.41,13.45 C77.42,14.44 81.62,13.6 85.68,14.36 C94.48,15.74 102.08,20.79 109.14,25.94 C109.5,26.28 110.22,26.96 110.58,27.31 C111.99,28.66 113.42,30.01 114.85,31.36 C124.63,25.36 135.27,19.5 147.09,19.6 C148,21.7 149.07,23.74 150.45,25.57 C153.43,28.43 157.19,30.56 161.17,31.67 C166.99,32.53 172.92,29.45 176.45,24.9 C176.86,27.12 177.89,29.15 179.33,30.89 C178.62,35.18 178.26,39.79 180.34,43.79 C183.36,50.54 191.6,53.71 198.59,52.12 C197.14,58.14 199.99,63.98 200.14,69.98 C199.85,88.34 189.42,106.26 173.2,115.05 C168.17,117.41 162.84,119.12 157.46,120.52 C152.82,121.72 147.82,121.7 143.38,119.78 C142.98,121.86 141.94,116.17 140.46,113.26 C139.49,110.9 138.37,108.42 136.19,106.92 C132.89,104.58 128.65,104.42 124.75,104.23 C120.7,104.01 117.41,106.85 114.22,108.94 C108.61,101.54 102.53,94.18 99.82,85.13 C96.9,76.81 97.55,67.82 98.38,59.21 C98.79,53.7 97.8,48.11 95.91,42.96 C94.09,38.4 89.26,36.41 85,34.81 C83.95,40.54 84.91,46.47 83.36,52.12 C80.27,64.29 71.61,75.08 60.1,80.24 C52.62,83.81 44.08,84.76 35.91,83.85 C23.35,81.98 12.34,73.84 5.81,63.12 C-0.84,51.02 -1.36,35.54 5.1,23.25 C8.91,15.4 15.4,8.99 23.26,5.21 C35.17,-1.02 49.94,-0.74 61.93,5.16 Z M11.39,25.05 C9.17,29.11 8.38,34.38 10.39,38.65 C13.82,39.06 17.28,38.79 20.72,38.89 C20.86,36.95 21,35.02 21.14,33.08 L21.9,33.03 C22.01,35.14 22.13,37.25 22.25,39.36 C23.61,39.67 26.29,38.91 26.33,41.02 C26.44,46.24 25.65,51.47 26.2,56.7 C33.02,57.57 39.98,57.73 46.75,56.38 C47.21,56.78 48.13,57.59 48.59,57.99 C49.75,55.16 49.3,51.83 51.1,49.29 C51.44,51.96 51.42,54.66 51.45,57.35 C53.23,57.66 55,58.02 56.76,58.42 C56.68,54.98 56.63,51.53 57,48.11 C59.18,50.83 56.77,55.78 60.4,57.44 C63.9,57.19 67.39,56.53 70.92,56.75 C71.23,58.05 71.54,59.35 71.85,60.66 C73.75,60.49 75.64,60.3 77.53,60.07 C75.49,55.93 75.9,51.37 77.48,47.16 C72.42,47.94 67.21,47.92 62.18,46.92 C60.54,46.04 59.12,44.83 57.65,43.7 C57.81,44.88 57.97,46.06 58.11,47.24 C54.58,47.37 51.05,47.47 47.53,47.84 C47.24,49.62 46.93,51.41 46.57,53.19 C46.27,51.36 45.99,49.52 45.73,47.69 C43.61,47.61 41.49,47.59 39.37,47.53 C38.17,46.31 36.97,45.09 35.75,43.9 C35.09,48.07 35.69,52.39 34.51,56.49 C33.98,53.45 33.82,50.36 33.59,47.29 C32.54,47.28 31.49,47.26 30.44,47.25 C30.15,49.75 29.84,52.25 29.51,54.75 C29.22,54.71 28.65,54.63 28.37,54.59 C28.53,52.35 28.77,50.12 28.73,47.88 C28.75,44.83 26.58,42.22 26.81,39.15 C26.92,35.83 27.03,32.51 26.87,29.19 C23.34,29.31 19.82,29.35 16.29,29.46 C15.31,27.29 14.06,25.1 11.39,25.05 L11.39,25.05 Z M68.83,28.04 C68.59,32 68.57,36.06 69.84,39.87 C71.42,39.09 73.47,38.91 74.64,37.52 C74.33,34.07 72.57,30.78 73.62,27.22 C72.7,26.53 71.78,25.85 70.86,25.18 C70.1,26.07 69.42,27.02 68.83,28.04 L68.83,28.04 Z M39.86,30.15 C39.78,33.4 39.4,36.81 40.91,39.83 C42.28,39.48 43.65,39.13 45.01,38.78 C44.14,37.07 43.18,35.41 42.18,33.78 C43.4,32.72 44.61,31.66 45.83,30.6 C45.94,33.67 46.08,36.78 47.07,39.73 C49.96,39.33 52.9,38.29 55.82,38.89 C59.18,40.53 61.58,43.55 64.39,45.95 C64.61,40.24 62.28,34.07 66.08,28.98 C66.4,32.24 66.27,35.51 66.45,38.78 C67,35.13 66.42,31.39 66.63,27.71 C61.63,30.76 55.72,29.26 50.25,29.16 C50.11,32.07 49.99,34.99 49.89,37.91 C49.45,38.23 48.58,38.88 48.15,39.2 C47.92,35.18 48.39,31.17 48.59,27.16 C45.65,28.07 42.77,29.15 39.86,30.15 L39.86,30.15 Z M28.24,29.05 C28,32.81 28.02,36.57 28.13,40.33 C29.66,39.96 31.21,39.67 32.77,39.44 C33.02,36.08 33.05,32.71 32.65,29.37 C31.18,29.25 29.71,29.15 28.24,29.05 L28.24,29.05 Z M34.24,29.14 C34,32.5 34.02,35.87 34.24,39.23 C36.01,39.54 38.03,39.62 39.18,37.93 C39.52,35.07 39.05,32.19 38.72,29.35 C37.22,29.27 35.73,29.21 34.24,29.14 L34.24,29.14 Z M10.43,44.09 C10.38,47.61 9.95,51.16 10.48,54.66 C10.73,55.87 11.51,57.63 13.03,57.37 C16.96,57.04 20.9,56.75 24.85,56.83 C24.87,52.19 25.59,47.39 24.07,42.91 C21.99,45.97 23.1,49.76 22.9,53.2 C21.82,51.11 22.06,47.49 19.24,46.97 C16.28,45.97 13.74,43.76 10.43,44.09 L10.43,44.09 Z" id="Shape"></path>
                        <path d="M12.83,30.1 C13.95,30.35 15.07,30.6 16.19,30.86 C16.09,32.28 15.98,33.71 15.88,35.15 C14.86,34.74 13.84,34.33 12.82,33.93 C12.82,32.65 12.83,31.37 12.83,30.1 L12.83,30.1 Z" id="Shape"></path>
                        <path d="M18.3,31.62 C19.79,32.05 19.73,35.88 18.31,36.36 C17.44,35.03 17.4,32.94 18.3,31.62 L18.3,31.62 Z" id="Shape"></path>
                        <path d="M52.41,31.61 C53.86,32.09 53.89,35.95 52.44,36.44 C51.59,35.06 51.56,32.99 52.41,31.61 L52.41,31.61 Z" id="Shape"></path>
                        <path d="M58.38,31.66 C59.77,32.37 59.63,35.26 58.8,36.52 C57.17,35.95 57.68,32.93 58.38,31.66 L58.38,31.66 Z" id="Shape"></path>
                        <path d="M12.98,47.21 C14.29,47.7 15.61,48.18 16.95,48.62 C17,50.43 17.01,52.23 17,54.04 C16.33,53.48 15.67,52.92 15,52.36 C14.34,52.91 13.68,53.46 13.02,54.01 C12.99,51.74 12.98,49.48 12.98,47.21 L12.98,47.21 Z" id="Shape"></path>
                        <path d="M61.34,49.48 C62.77,50.02 62.71,53.92 61.33,54.5 C60.52,53.03 60.52,50.93 61.34,49.48 L61.34,49.48 Z" id="Shape"></path>
                        <path d="M43.19,50.68 C44.62,50.35 44.89,52.78 43.79,53.33 C42.36,53.66 42.1,51.22 43.19,50.68 L43.19,50.68 Z" id="Shape"></path>
                        <path d="M19.13,51.49 C20.54,51.65 20.78,52.31 19.87,53.49 C18.47,53.33 18.22,52.66 19.13,51.49 L19.13,51.49 Z" id="Shape"></path>
                        <path d="M128.32,273.29 C128.44,271.48 130.2,270.73 131.5,269.85 C133.8,271.78 136.27,273.58 139.11,274.62 C138.86,279.65 137.52,286.2 142.26,289.67 C145.08,292.07 148.91,292.86 152.3,291.2 C159.52,288.71 167.27,288.38 174.82,289.06 C189.07,290.73 202.07,299.3 209.8,311.29 C216.43,322.03 218.98,335.39 215.82,347.69 C214.08,355.81 209.71,363.11 204.37,369.37 C195.75,378.58 183.49,384.08 170.97,385.08 C162.02,385.46 153.34,382.77 144.94,380.01 C142.61,383.31 140.79,387.04 137.85,389.86 C133.65,393.39 127.77,394.35 122.45,393.69 C119.99,393.27 117.57,392.69 115.19,391.99 C115.39,389.19 115.61,386.39 115.9,383.6 C120.47,383.41 125.09,384.31 129.63,383.55 C132.92,382.51 134.08,378.73 135.17,375.83 C136.41,373.23 134.1,371.18 132.56,369.42 C128.28,364.92 125.09,359.51 122.5,353.9 C121.69,350.37 120.79,346.86 119.8,343.38 C119.77,337.83 119.29,332.17 120.56,326.71 C122.69,316.35 128.88,307.47 136.15,300.02 C132.63,296.61 128.74,292.93 128.01,287.82 C127.36,283.01 127.46,278.06 128.32,273.29 L128.32,273.29 Z M162.4,297.64 C151.59,299.29 141.63,305.29 135.22,314.15 C130.14,322.51 126.72,332.51 128.75,342.36 C130.2,353.75 137.38,363.92 147.11,369.85 C164.54,381.49 190.9,375.83 201.85,357.89 C207.99,349.2 209.12,338.02 207.2,327.79 C204.99,317.46 198.1,308.39 189.13,302.93 C181.11,298.4 171.57,296.06 162.4,297.64 L162.4,297.64 Z" id="Shape"></path>
                        <path d="M13.46,464.44 C18.87,459.41 25.48,454.86 33.08,454.4 C39.01,453.97 45.15,453.95 50.78,456.12 C55.89,457.82 59.81,461.65 63.91,464.96 C68.41,468.44 70.33,473.98 73.7,478.39 C74.08,479.7 74.47,481.02 74.85,482.35 C74.35,483.13 73.86,483.94 73.37,484.75 C72.28,482.33 71.08,479.95 69.66,477.71 C68.55,484.14 70.24,490.62 70.31,497.08 C71.42,495.93 72.53,494.78 73.66,493.67 C73.91,500.09 71.27,506.25 67.23,511.14 C60.59,520.27 49.27,525.81 38,525.55 C29.36,525.84 21.04,521.93 14.51,516.5 C8.76,510.97 4.89,503.58 2.85,495.92 C1.13,484.62 4.91,472.22 13.46,464.44 L13.46,464.44 Z M12.5,474.44 C8.46,481.41 7.3,490.03 9.22,497.84 C11.4,503.63 14.01,510.43 20.19,512.97 C22.02,514.46 24.02,515.78 26.12,516.89 C33.22,522.1 42.91,520.66 50.59,517.55 C58.44,514.48 63.73,507.33 67.11,499.9 C69.28,494.58 68.29,488.67 67.98,483.11 L66.69,483.31 C66.56,482.25 66.36,481.22 66.08,480.21 C65.38,474.28 60.68,470.21 56.55,466.42 C53.22,463.21 48.63,461.88 44.25,460.84 C32.19,457.98 18.91,463.96 12.5,474.44 L12.5,474.44 Z" id="Shape"></path>
                    </g>
                    <path d="M125.27,1.18 C130.51,0.02 136.45,0.66 140.42,4.59 C147.46,10.6 146.86,23.03 139.16,28.23 C132.56,33.48 121.83,31.75 117.22,24.69 C111.51,16.76 115.64,3.68 125.27,1.18 L125.27,1.18 Z M123.4,5.09 C124.72,8.92 126.07,12.9 125.34,17 C123.59,16.07 121.85,15.09 120.12,14.12 C119.38,16.22 118.15,18.34 118.5,20.64 C119.11,22.41 120.3,23.91 121.28,25.49 C126.03,25.43 130.77,25.56 135.52,25.68 C135.56,26.29 135.65,27.49 135.7,28.1 C139.25,25.73 141.81,22.23 142.98,18.12 C144.18,15.62 142.59,13.08 141.95,10.67 C140.68,11.36 139.49,12.31 138.04,12.57 C134.23,11.21 131.65,7.94 128.44,5.66 C126.79,5.3 125.08,5.25 123.4,5.09 L123.4,5.09 Z" id="Shape"></path>
                </g>
                <g id="Group" transform="translate(0.000000, 65.000000)" fill="#168BEB" sketch:type="MSShapeGroup">
                    <g id="Shape" transform="translate(79.000000, 0.000000)">
                        <path d="M15.12,0.73 C15.53,0.76 16.35,0.84 16.77,0.87 C18.86,2.58 20.97,4.28 22.99,6.08 C26.07,8.72 27.68,12.56 29.28,16.18 C29.28,17.81 29.04,19.43 28.83,21.05 L28.16,22 C27,20.55 25.98,19 25.11,17.36 C25.6,20.23 26.96,24.03 24.29,26.24 C20.98,29.52 16.28,30.77 11.74,31.05 L10.9,31.01 C10.48,30.83 9.63,30.48 9.2,30.31 C6.22,28.05 2.52,26.29 0.68,22.9 C-0.24,16.87 -0.77,9.99 3.16,4.85 L3.58,4.21 C7.66,4 11.47,2.45 15.12,0.73 L15.12,0.73 Z"></path>
                    </g>
                    <g id="Shape-+-Shape" transform="translate(0.000000, 33.000000)">
                        <path d="M0,0.74 C15.92,0.53 31.83,0.88 47.74,0.42 C52.49,0.64 57.23,0.89 61.99,0.86 C106.66,0.79 151.33,0.98 196,0.87 C210.33,0.95 224.67,0.57 239,0.99 L239,9.4 C174.67,9.6 110.33,9.44 46,9.48 C39.62,9.49 33.24,9.34 26.87,9.8 C24.64,9.83 22.42,9.83 20.19,9.79 C13.47,9.31 6.73,9.49 0,9.55 L0,0.74 L0,0.74 Z" id="Shape"></path>
                        <path d="M19.44,12.47 C21.83,10.56 25.2,11.39 28.03,11.12 C28.26,12.29 28.49,13.46 28.65,14.64 C27.84,17.82 27.33,21.17 29.2,24.1 C29.33,24.45 29.6,25.13 29.73,25.47 C33.8,24.11 37.32,21.65 41.03,19.58 C47.1,17.27 53.8,18.72 60.07,19.36 C61.42,19.71 62.71,20.27 63.93,20.95 C68.34,24.6 73.31,27.94 76.16,33.06 C78.56,37.07 80.25,41.47 81.28,46.03 C81.74,49.66 81.27,53.32 81.19,56.96 C80.95,63.12 81.63,69.27 81.72,75.42 C82,75.34 82.56,75.17 82.84,75.09 C86.82,74.13 91.01,73.3 94.32,70.72 C96.1,70.12 97.92,69.59 99.79,69.34 C102.59,69.41 105.38,69.08 108.12,68.52 C108.54,68.47 109.38,68.38 109.81,68.33 C117.67,67.84 125.51,68.56 133.31,69.58 C134.79,69.9 136.24,70.36 137.67,70.86 C137.86,70.93 138.22,71.08 138.41,71.16 C142.48,72.86 146.8,73.9 150.78,75.83 C155.46,77.91 159.5,81.12 163.98,83.56 C165.14,84.39 166.27,85.27 167.41,86.15 C165.59,86.53 163.77,86.85 161.94,87.15 C163.93,87.2 165.94,87.17 167.92,87.48 C171.68,90.16 174.88,93.56 178.3,96.64 C179.5,98.05 180.52,99.59 181.56,101.12 C177.63,102.59 173.63,103.97 170,106.1 C169.45,105.19 168.91,104.28 168.37,103.38 C166,98.11 161.89,92.89 155.69,92.45 C154.02,91.44 152.38,90.37 150.75,89.3 C145.88,85.4 140.03,82.91 133.81,82.28 C132.44,81.96 131.07,81.64 129.7,81.32 C128.68,79.49 126.45,79.19 124.91,80.56 L124.16,80.56 C118.11,80.26 112.04,80.07 105.99,80.57 C101.82,80.77 97.4,80.88 93.68,83.02 C91.21,84.32 88.69,85.54 86.09,86.58 C77.7,89.67 69.91,94.94 64.36,102 C63.12,103.6 61.93,105.24 60.59,106.76 C60.19,107.15 59.37,107.94 58.97,108.33 C57.11,107.22 55.04,106.51 52.87,106.41 C51.12,106.35 49.36,106.3 47.61,106.22 C48.9,103.87 50.19,101.51 51.83,99.39 C55.84,94.85 59.99,90.35 64.88,86.74 C67.01,85.02 69.47,83.56 70.99,81.23 C71.76,78.94 71.39,76.44 71,74.12 C70.85,73.76 70.53,73.03 70.37,72.67 C70.02,72.65 69.32,72.6 68.97,72.58 C67.8,73.76 66.72,75.02 65.58,76.23 C64.03,77.42 62.23,78.25 60.36,78.78 C57.03,78.12 53.7,78.59 50.61,79.97 C49.95,79.96 48.63,79.95 47.98,79.95 C38.26,78.57 29,73.4 23.55,65.14 C21.31,61 20.01,56.43 18.88,51.89 C18.36,41.94 18.47,31.97 18.62,22.02 C18.78,18.85 18.1,15.45 19.44,12.47 L19.44,12.47 Z M32.09,41.01 C31.45,45.35 31.58,49.88 32.99,54.07 L33,54.9 C36.49,54.82 39.99,54.77 43.49,54.69 C43.83,55.09 44.52,55.88 44.87,56.28 C42.61,57.35 45.47,61.14 47.38,59.72 L47.46,59.32 C47.74,57.17 47.98,55.01 48.22,52.85 C48.65,53.73 49.08,54.6 49.51,55.48 C51.85,55.35 54.22,55.35 56.52,55.91 L56.45,56.99 C58.54,57.27 60.64,57.35 62.75,57.27 C62.98,57.91 63.46,59.17 63.69,59.8 L63.34,60.35 C67.42,56.64 67.3,50.77 68.15,45.73 C68,46.02 67.7,46.6 67.55,46.89 C67.27,46.34 66.72,45.24 66.44,44.7 C65.79,45.66 65.16,46.64 64.53,47.62 C63.61,46.7 63.08,44.83 61.52,44.93 C63.44,42.25 57.69,42.09 59.4,44.81 L58.33,44.74 L58.35,43.71 C54.77,43.78 50.69,42.64 47.65,45.11 C45.74,45.22 43.84,45.51 41.92,45.56 C42.28,45.19 42.98,44.46 43.34,44.1 C40.97,43.03 38.38,42.26 36.02,43.81 C35.53,42.73 35.04,41.65 34.55,40.57 C34.31,39.13 31.83,39.59 32.09,41.01 L32.09,41.01 Z M50.75,42.09 C53.71,42.33 56.66,41.77 59.17,40.14 C56.18,39.56 52.81,39.42 50.75,42.09 L50.75,42.09 Z" id="Shape"></path>
                    </g>
                    <g id="Shape-+-Shape" transform="translate(146.000000, 422.000000)">
                        <path d="M0.95,12.68 C8.08,4.87 18.88,2.79 28.64,0.14 C28.93,4.83 28.9,9.54 28.51,14.23 C25.5,14.67 22.52,15.25 19.52,15.79 C13.96,15.46 8.37,15.82 2.81,15.47 L0.95,12.68 L0.95,12.68 Z" id="Shape"></path>
                        <path d="M44.99,0.2 C54.06,1.96 62.93,5.19 70.55,10.5 C71.76,11.28 72.41,12.6 73.19,13.77 C63.94,15.66 54.41,14.21 45.04,14.71 C44.05,9.93 43.78,4.96 44.99,0.2 L44.99,0.2 Z" id="Shape"></path>
                    </g>
                    <path d="M139.64,527.27 C142.29,526.3 145.12,526 147.94,526.12 C172.81,526.41 197.69,525.87 222.55,526.36 C221.47,528.58 220.37,530.93 218.28,532.39 C210.26,538.47 200.52,541.67 190.86,544.06 C186.32,544.66 181.72,544.5 177.17,544.21 C172,543.23 166.97,541.68 161.8,540.7 C160.24,540.33 158.66,540.01 157.11,539.62 C154.27,538.58 151.8,536.78 149.5,534.85 C146.3,532.21 142.96,529.75 139.64,527.27 L139.64,527.27 Z" id="Shape"></path>
                    <g id="Shape-+-Shape" transform="translate(7.000000, 570.000000)">
                        <path d="M74.45,0.7 C75.66,1.07 76.87,1.45 78.08,1.82 C85.69,4.5 93.42,7.18 100.21,11.64 C103.28,13.95 106.09,16.6 109.3,18.74 C110.31,19.69 111.31,20.66 112.26,21.69 C117.72,29.48 123.29,37.44 125.79,46.77 C128.74,55.82 127.93,65.51 127.4,74.86 C127.31,75.51 127.12,76.82 127.03,77.48 C125.61,83.63 123.62,89.72 120.24,95.1 C118.71,97 117.38,99.05 116.26,101.23 C116.04,101.51 115.61,102.07 115.4,102.35 C111.87,105.63 108.8,110.66 103.49,110.81 C103.99,111.04 105,111.51 105.5,111.74 C103.12,114.16 100.01,115.7 97.61,118.07 C100.57,123.46 104.39,128.32 107.65,133.53 C110.81,137.88 113.57,142.59 117.4,146.4 C117.77,146.73 118.53,147.39 118.9,147.72 C118.03,148.82 118.15,149.69 119.27,150.33 C120.59,149.91 121,149.02 120.49,147.64 C121.08,147.38 122.26,146.88 122.84,146.63 C134.13,142.78 147.24,140.91 158.34,146.28 C162.21,147.94 165.99,150.09 168.74,153.35 C170.9,155.88 172.91,158.57 175.56,160.62 C178.85,163.2 180.07,167.37 181.4,171.15 C182.85,175.33 183.57,179.72 183.9,184.13 C183.75,185.57 183.43,186.99 183.14,188.43 C177.11,188.62 172.52,193.88 170.14,198.99 C167.61,204.02 168.66,209.97 171.37,214.7 C169.73,216.46 168.13,218.26 166.37,219.91 C165.41,217.57 164.18,215.36 162.59,213.4 C158.62,209.06 160.31,202.73 159.92,197.39 C154.82,197.47 149.83,198.55 144.93,199.87 C142.41,200.65 139.84,199.88 137.41,199.2 C135.65,200.33 134.05,201.93 131.96,202.39 C128.45,201.96 125.3,200.19 122.05,198.92 C121.58,199.11 120.64,199.49 120.16,199.69 C122.39,202.59 126.16,205.51 125.55,209.56 C124.04,211.94 121.04,212.82 118.73,214.27 C120.11,216.39 121.5,218.5 122.94,220.59 C120.56,219.86 118.15,219.25 115.76,218.6 C115.28,218.21 114.8,217.83 114.34,217.45 C111.83,212.54 107.91,208.57 105.17,203.8 C103.97,201.23 101.2,200.39 98.74,199.54 C98.99,198.59 99.25,197.63 99.51,196.7 C101.31,196.45 103.12,196.34 104.93,196.34 C109.8,196.68 114.58,198.26 119.49,197.89 C121.18,197.83 121.83,195.98 122.85,194.93 C123.57,195.47 124.28,196.01 125,196.57 C125.05,194.75 125.1,192.92 125.15,191.12 C125.76,192.51 126.36,193.9 126.96,195.32 C130.97,196.08 135.03,195.38 138.72,193.69 C138.87,195.55 139.04,197.41 139.22,199.28 C140.8,197.1 142.28,194.86 143.67,192.58 C146.51,193.96 149.35,195.35 152.2,196.73 C151.71,195.5 151.22,194.29 150.73,193.08 C154.72,192.55 158.62,191.53 162.37,190.08 L162.45,190.8 C162.73,192.96 165.62,192.26 166.96,191.54 C168.26,191.01 169.58,190.53 170.87,189.99 C172.07,189.37 173.24,188.71 174.39,188.02 C174.98,183.64 174.63,179.04 177.04,175.11 C176.86,174.92 176.49,174.53 176.31,174.33 C175.52,173.5 174.72,172.7 173.92,171.91 C170.08,169.91 165.87,171.15 162.72,173.79 C162.72,173.42 162.72,172.67 162.71,172.29 C162.92,170.19 160.18,170.72 159.13,171.57 L158.51,171.77 C158.2,171.87 157.59,172.08 157.28,172.18 C156.56,173.73 156,175.34 155.43,176.95 C155.24,174.95 155.04,172.95 154.83,170.96 C152.25,171.1 149.67,171.29 147.1,171.5 C145.17,171.65 143.23,171.65 141.3,171.63 C140.81,171.64 139.83,171.66 139.34,171.67 C135.76,171.07 133.8,174.1 133.29,177.24 C132.17,175.1 130.92,173.05 129.72,170.97 C126.55,170.94 122.45,170.06 120.79,173.59 C119.94,172.96 119.08,172.34 118.21,171.77 C111.91,171.06 105.22,169.79 99.07,171.9 C98.72,172.05 98.03,172.34 97.68,172.48 C96.12,173.28 94.59,174.15 93.02,174.92 C92.74,174.66 92.2,174.13 91.92,173.87 C92.47,173.14 93.01,172.41 93.56,171.7 C90.25,172.42 87.35,174.22 85.85,177.35 C85.47,176.02 85.08,174.7 84.7,173.39 C84.47,167.36 79.94,163 76.31,158.68 C67.49,149.94 54.34,145.2 42.02,147.95 C34.73,149.66 27.71,153.09 22.14,158.13 C8.95,171.58 8.77,194.95 20.84,209.16 C25.58,214.38 31.91,217.99 38.4,220.58 C48.2,223.54 59.3,222.44 68.15,217.19 C76.16,213.14 81.52,205.44 85.18,197.48 C87.36,197.79 89.54,198.17 91.7,198.61 C91.38,199.48 91.06,200.37 90.71,201.25 C89.75,203.31 88.57,205.26 87.35,207.18 C84.08,210.82 80.96,214.6 77.67,218.22 C77.14,218.66 76.59,219.08 76.01,219.48 C72.56,221.33 69.13,223.24 65.74,225.21 C63.2,226.35 60.52,227.12 57.86,227.9 C56.74,225.95 54.32,226.7 53.03,228.01 C48.24,227.96 43.47,227.53 38.69,227.21 C26.54,222.73 14.69,214.13 10.32,201.48 C10.48,201.09 10.8,200.33 10.96,199.95 C12.12,197.66 12.27,195.09 11.94,192.6 C11.24,193.68 10.56,194.78 9.95,195.93 C9.25,194.28 8.42,192.68 7.66,191.07 C7.48,189.99 7.29,188.91 7.11,187.85 C8.75,186.31 8.79,183.72 7.25,182.11 C7.39,181.52 7.67,180.34 7.8,179.75 C9.24,178.6 10.12,176.15 8.13,175.06 C8.62,173.26 9.07,171.45 9.58,169.67 C9.51,170.56 9.72,173.03 11.18,172.27 C12.17,170.91 11.27,169.18 10.16,168.24 C10.99,166.75 11.83,165.28 12.71,163.84 C14.18,161.91 15.56,159.93 16.89,157.92 C18.37,156.06 19.99,154.34 21.53,152.55 C23.12,153.41 24.75,151.98 24.77,150.36 C27.97,147.7 31.69,145.71 35.66,144.46 C38.02,144.38 41.2,145.38 42.33,142.58 C42.7,142.52 43.42,142.41 43.78,142.35 C47.6,143.56 51.59,143.53 55.37,142.23 C61.22,142.8 66.99,144.6 72.07,147.57 C73.81,150.86 76.73,153.09 80.4,153.84 C84.33,157.42 87.22,161.94 89.86,166.52 C90.19,167.08 90.87,168.21 91.21,168.77 C94.17,168.73 97.21,169 100.1,168.19 C102.24,167.27 103.61,165.25 105.11,163.56 C106.64,161.7 108.3,159.86 109.23,157.61 C109.79,155.45 107.66,153.88 106.69,152.2 C102.78,147.55 100.5,141.64 95.86,137.6 C95.47,137.26 94.69,136.58 94.3,136.24 C94.22,135.72 94.06,134.67 93.98,134.14 C90.54,131.44 89.68,125.57 85.08,124.62 C80.96,124.51 77.09,126.2 73.03,126.64 C62.97,127.32 52.8,127.07 43,124.47 C39.64,123.33 36.45,121.78 33.22,120.33 C33.78,117.62 30.9,116.39 28.85,117.87 C27.15,116.7 25.45,115.5 23.87,114.17 C21.48,111.47 18.95,108.9 16.25,106.5 C16.2,105.16 16.19,103.84 16.13,102.51 C13.97,102.98 12.02,102.09 10.63,100.42 C10.41,100.12 9.97,99.51 9.75,99.2 C5.92,90.78 0.82,82.53 0.34,73.05 C0.16,66.93 -0.04,60.8 0.27,54.7 C0.47,54.3 0.89,53.49 1.09,53.09 C3.21,51.35 6.12,52.3 8.6,52.42 C9.36,58.94 8.17,65.56 9.32,72.06 C11.42,84.06 17.4,95.35 26.01,103.95 C33.78,111.05 43.73,115.29 53.85,117.78 C65.92,119.78 78.57,117.97 89.48,112.41 C100.25,105.92 110.3,96.92 114.65,84.8 C126.49,60.04 113.7,27.56 89.22,15.94 C83.93,13.27 78.16,11.85 72.47,10.31 C72.59,9.92 72.81,9.15 72.92,8.77 C73.54,6.1 73.86,3.37 74.45,0.7 L74.45,0.7 Z" id="Shape"></path>
                        <path d="M35.43,10.51 C36.89,7.86 38.32,5.19 39.83,2.58 C40.45,5.11 41.26,7.58 42.03,10.07 C42.1,10.35 42.24,10.9 42.31,11.18 C43.57,10.82 44.85,10.48 46.14,10.23 C46.12,10.92 46.09,12.32 46.08,13.01 C39.14,16.19 32.52,20.05 26.41,24.65 C24.71,26.09 23.2,27.74 21.74,29.43 C17.48,29.57 13.22,29.58 8.97,29.5 L9.16,28.7 C13.13,29.05 17.14,29.05 21.1,28.6 C20.71,27.14 20.5,25.6 19.74,24.28 C18.67,23.29 17.55,22.36 16.45,21.41 C16.76,20.78 17.39,19.53 17.7,18.9 C18.37,18.72 19.7,18.35 20.36,18.17 C26.35,18.3 31.71,14.99 35.43,10.51 L35.43,10.51 Z" id="Shape"></path>
                    </g>
                </g>
            </g>
        </g>
    </g>
</svg>