<?xml version="1.0" encoding="UTF-8" standalone="no"?>
<svg width="112px" height="375px" viewBox="0 0 112 375" version="1.1" xmlns="http://www.w3.org/2000/svg" xmlns:xlink="http://www.w3.org/1999/xlink" xmlns:sketch="http://www.bohemiancoding.com/sketch/ns">
    <!-- Generator: Sketch 3.3.1 (12005) - http://www.bohemiancoding.com/sketch -->
    <title>alex_sprite</title>
    <desc>Created with Sketch.</desc>
    <defs></defs>
    <g id="defs" stroke="none" stroke-width="1" fill="none" fill-rule="evenodd" sketch:type="MSPage">
        <g id="alex-col-outlined" sketch:type="MSArtboardGroup">
            <g id="alex" sketch:type="MSLayerGroup">
                <g id="alex-col" sketch:type="MSShapeGroup">
                    <path d="M75.81,16.35 C76.47,17.53 77.1,18.73 77.69,19.95 C81.43,24.91 75.3399996,32.3299997 70.9999996,32.9999997 C67.4099996,32.9999997 60.3399996,31.7281447 56.9999996,30.2881447 C46.7099996,26.1681447 38.8799996,25.1599993 27.9999996,24.1499993 C24.8099996,23.6499993 24.2099996,23.2599997 20.9999996,22.9999997 C19.2499996,22.6499997 18.4699998,24.4799997 18.2999998,25.9999997 C17.9099998,27.5899997 14.4900004,34.2199997 15.2000004,35.9999997 C15.1100004,44.5099997 12.91,51.15 12.4,59.65 C11.79,59.57 10.58,59.42 9.97,59.35 C10.06,57.94 9.35,57.18 7.83,57.04 C7.4,56.08 6.96,55.12 6.53,54.16 C7.36,53.02 7.35,51.94 6.53,50.91 C5.57,49.64 4.64,48.34 3.71,47.05 C1.7,36.07 2.4,23.56 9.35,14.33 C16.86,5.59 28.62,3.15 39.45,1.51 C52.9,-0.66 69.37,2.99 75.81,16.35 Z" id="Shape" opacity="0.98" fill="#24342F"></path>
                    <path d="M42.88,206.81 C43.36,208.5 44.86,209.56 46.53,209.93 L47.23,210.2 C48.64,210.72 49.49,210.23 49.78,208.74 C56.78,208.53 63.75,208 70.74,207.66 C70.97,206.68 71.19,205.7 71.41,204.72 C71.98,208.87 72.5,213.08 73.75,217.1 C87.47,261.1 96.27,306.86 97.11,353.02 C97.77,357.97 96.6,364.31 91.68,366.73 C89.91,367.57 88.23,366.59 87.69,364.81 C88.06,336.08 83.96,307.36 77.58,279.39 C73.01,257.56 66.8699994,242.860001 58.9999994,222.000001 C55.0199994,222.060001 70.4900013,370.150001 68.0000013,373.000001 C65.4514135,373.000001 67.1300001,378.130001 61.0000001,369.000001 C61.4700001,368.930001 33.16,191.95 33.63,191.89 C37.19,196.55 40.36,201.52 42.88,206.81 Z" id="Shape" opacity="0.98" fill="#24342F"></path>
                    <path d="M57.3,28.93 C59.6,29.83 61.88,30.75 64.24,31.49 C61.83,30.91 59.56,29.93 57.3,28.93 L57.3,28.93 Z" id="Shape" opacity="0.97" fill="#72493C"></path>
                    <path d="M36.04,102.27 C37.62,101.77 39.35,101.15 40.98,101.84 C40.92,102.13 40.81,102.72 40.75,103.01 C39.19,103.1 37.64,102.99 36.1,102.8 L36.04,102.27 L36.04,102.27 Z" id="Shape" opacity="0.97" fill="#72493C"></path>
                    <path d="M28.24,37.12 C29.75,32.89 33.84,29.89 38.62,31.06 C39.36,32.18 39.96,33.38 40.59,34.56 C36.51,35.6 32.42,36.59 28.24,37.12 L28.24,37.12 Z" id="Shape" opacity="0.97" fill="#293834"></path>
                    <path d="M32.03,44.42 C35.54,44.25 39.13,44.14 42.66,44.22 C39.76,47 34.59,48.23 32.03,44.42 L32.03,44.42 Z" id="Shape" opacity="0.97" fill="#293834"></path>
                    <path d="M27.89,22.42 C34.69,23.95 41.47,25.6 48.33,26.9 C49.02,26.8 50.4,26.6 51.09,26.5 C53.16,27.29 55.23,28.1 57.3,28.93 C59.56,29.93 61.83,30.91 64.24,31.49 C66.53,31.55 68.83,31.55 71.14,31.48 L72.13,31.45 C73.24,35.86 74.92,40.19 75.27,44.74 C75.3,50.27 75.41,55.8 75.21,61.33 C72.44,70.44 68.15,79.81 61.67,86.92 C60.71,87.24 59.95,87.81 59.38,88.64 C58.17,89.85 56.99,91.1 56.04,92.53 C53.48,97.55 50.8499999,97.2299963 45.9999999,97.9999963 C40.8625412,104.88985 37.6099294,104.68273 34.2968373,103.833871 C32.3204097,103.327483 30.3224589,102.592718 27.8899993,102.999996 L26.33,90.44 C24.28,88.25 22.24,86.08 20.2,83.9 C17.59,81.05 14.9,78.3 12.13,75.62 C9.16,72.32 7.54,68.04 6.12,63.89 C5.92,62.86 5.33,62.16 4.33,61.78 C0.51,59.65 -0.25,54.56 0.56,50.63 C0.92,49.06 1.64,46.68 3.71,47.05 C4.64,48.34 5.57,49.64 6.53,50.91 C5.53,51.91 5.53,53 6.53,54.16 C6.96,55.12 7.4,56.08 7.83,57.04 C7.95,58.44 8.66,59.21 9.97,59.35 C10.58,59.42 11.79,59.57 12.4,59.65 C12.91,51.15 13.07,42.64 13.16,34.13 C14.35,32.65 14.63,30.7 14.02,28.91 C14.42,27.33 14.81,25.74 15.2,24.15 C16.8,24.03 18.23,22.82 18.3,21.16 C21.51,21.42 24.7,21.92 27.89,22.42 Z M28.24,37.12 C32.42,36.59 36.51,35.6 40.59,34.56 C39.96,33.38 39.36,32.18 38.62,31.06 C33.84,29.89 29.75,32.89 28.24,37.12 L28.24,37.12 Z M32.03,44.42 C34.59,48.23 39.76,47 42.66,44.22 C39.13,44.14 35.54,44.25 32.03,44.42 L32.03,44.42 Z M41.94,79.22 C47.22,82.08 53.27,83.85 58.94,81.05 C58.97,79.64 59.01,78.24 59.06,76.84 C53.38,76.22 47.65,76.1 41.95,75.83 C41.95,76.68 41.95,78.37 41.94,79.22 Z" id="Shape" fill="#F9DF94"></path>
                    <path d="M41.95,75.83 C47.65,76.1 53.38,76.22 59.06,76.84 C59.01,78.24 58.97,79.64 58.94,81.05 C53.27,83.85 47.22,82.08 41.94,79.22 C41.95,78.37 41.95,76.68 41.95,75.83 L41.95,75.83 Z" id="Shape" fill="#F4EDE1"></path>
                    <path d="M29.21,101.85 C29.21,101.85 34.33,103.55 36.1,102.8 C37.64,102.99 39.19,103.1 40.75,103.01 C45.24,102.99 49.69,103.66 54.15,104.08 C53.85,105.12 54.22,105.91 55.26,106.47 C64.31,120.89 63.41,139.1 69.2,154.82 C73.32,165.47 77.98,175.95 83.99,185.68 C85.89,188.91 87.86,192.09 89.81,195.3 C92.27,199.48 94.59,203.75 96.55,208.19 C95.87,208.34 94.5,208.63 93.81,208.78 C92.76,208.91 92.05,209.48 91.67,210.51 C90.74,212.68 88.54,213.55 86.33,212.82 C81.48,206.68 78.18,199.45 73.32,193.31 C72.65,197.11 72.2,200.95 71.41,204.72 C71.19,205.7 70.97,206.68 70.74,207.66 C63.75,208 56.0000014,212.610004 49.0000014,212.820004 C47.6800014,212.610004 40.7499995,208.780003 36.0999999,205.999996 C31.4500003,203.21999 28.96,166.94 26.71,155.87 C25.8,156.26 24.88,156.65 23.97,157.03 C23.52,160.11 22.86,168.5 24.28,168.68 C24.2,172.01 24.16,175.38 24.19,178.72 C24.13,182.87 24.1,187.02 24.09,191.17 C20.21,190.44 16.32,189.74 12.4,189.22 C12,167.51 9.41,145.58 12.49,123.97 C13.07,123.11 13.26,122.19 13.06,121.19 C12.72,114.67 12.98,107.8 15.73,101.76 C20.21,101.8 24.72,101.62 29.21,101.85 Z" id="Shape" fill="#4393C9"></path>
                    <path d="M60.1364133,44.4142673 C63.6464133,44.2485675 67.2364133,44.14135 70.7664133,44.2193264 C67.8664133,46.9290055 62.6964133,48.1278923 60.1364133,44.4142673 L60.1364133,44.4142673 Z" id="Shape-Copy-4" opacity="0.97" fill="#293834"></path>
                </g>
                <g id="alex-outlined" transform="translate(2.000000, 1.000000)" fill="#0E0E0D" opacity="0.93" sketch:type="MSShapeGroup">
                    <path d="M67.05,6.94 C73.01,11.05 75.56,18.12 77.85,24.68 C78.9999981,37.0000015 18.96,22.3899996 19,20.9999996 C13.78,21.0399996 10.93,49.99 10.84,58.49 C9.59,57.98 8.3,57.58 7.12,56.93 C-0.8,44.06 -2.14,25.95 7.5,13.5 C15.12,3.84 27.99,1.72 39.49,0.51 C49.09,-1.08 59.23,1.07 67.05,6.94 Z M27.66,6.72 C22.42,9.31 17.22,11.96 12,14.58 C12.38,15.61 -1.00000014,36.0000002 8.00000003,52.9999983 C8.12000003,52.3299983 10,28.04 14,21.0000002 C15.12,19.9500002 19,18.0000002 23.9999998,19.9600004 C51.0000017,23.7600006 58.9699998,27.7600004 70.1699998,28.0000004 C70.0699998,25.6700004 70.9,18.95 70.17,16.73 C66.57,12.96 63.13,8.32 57.73,7.2 C48.52,3.73 28.22,7.14 27.66,6.72 Z" id="Shape"></path>
                    <path d="M29.43,46.71 C32.06,41.43 39.21,42.62 42.39,46.75 C38.15,45.44 33.68,45.29 29.43,46.71 L29.43,46.71 Z" id="Shape"></path>
                    <path d="M56.6122702,46.71 C58.0530881,41.43 61.9701405,42.62 63.7122702,46.75 C61.3894307,45.44 58.9405881,45.29 56.6122702,46.71 L56.6122702,46.71 Z" id="Shape-Copy"></path>
                    <path d="M53.25,60.94 C54.8,59.78 56.98,62.31 54.92,63.24 C53.36,64.36 51.2,61.88 53.25,60.94 L53.25,60.94 Z" id="Shape"></path>
                    <path d="M24.0000001,88.0000001 C26.3500001,90.8400001 26.2199824,98.1799997 28.5999824,101 C26.2499824,100.53 26.3600001,100.41 24.0000001,99.9999997 C23.9900001,98.2199997 26.0000001,91.0000001 19.0000001,82.0000001 L24.0000001,88.0000001 Z" id="Shape"></path>
                    <path d="M28.0000006,100 C40.5500006,100.58 38.49,101.33 50.97,103.01 C53.58,103.04 54.37,105.88 55.29,107.82 C60.67,121.38 64.7800006,135.85 68.0000006,150 C75.1700006,169.75 82.39,188.97 94.91,205.91 C91.9,208.34 88.91,210.78 85.97,213.29 C78.93,203.46 69.94,193.43 69.95,180.6 C71.99,182.11 73.37,184.21 73.68,186.74 C74.55,186.27 75.41,185.79 76.28,185.33 C76.53,188.6 76.23,191.94 76.96,195.16 C79.34,200.51 83.5,204.79 86.57,209.73 C87.68,209.16 88.78,208.58 89.9,208.01 C89.2,206.35 88.46,204.7 87.77,203.04 C89.31,204.01 90.84,204.99 92.4,205.93 C87.89,197.31 81.56,189.74 77.52,180.86 C77.31,181.65 49.2100006,108.2 49.0000006,109 C49.2099997,108.2 14.6500002,93.1900002 15.0000002,109 C15.1900002,111.28 12.69,185.07 11.39,186.63 C9.08,171.2 10.19,155.52 9.99,139.99 C10.45,127.02 10,113.83 13.3,101.16 L28.0000006,100 Z" id="Shape"></path>
                    <path d="M24.65,147.24 C28.43,159.35 30.02,171.99 32.66,184.37 C33.26,186.23 33.6500004,200.46 32.6600004,202 C31.8000004,197.84 29.9999996,196 29.9999996,190 C27.9999996,182 24.33,153 22.61,153 C22.8,156.47 22.55,183.97 22.61,187.46 C21.06,184.91 19.29,182.22 20.09,178.96 C19.4,168.27 18.89,157.55 19,146.84 C20.42,146.94 23.24,147.14 24.65,147.24 Z" id="Shape"></path>
                    <path d="M70.69,205.66 C66.94,201.85 68.94,196.11 69.39,191.5 C69.87,196.2 70.49,200.92 70.69,205.66 L70.69,205.66 Z" id="Shape"></path>
                    <path d="M33.9999999,206.1 C42.4499999,205.02 61.06,207.05 69.53,206.1 C70.33,212.72 72.48,219.03 74.5,225.35 C86.45,265.52 93.51,307.14 95.03,349.03 C95.16,354.11 94.99,359.77 91.83,364.03 C90.05,365.79 87.4,366.2 85.15,367.13 C86.75,351.1 84.5,335.08 83.27,319.12 C78.04,283.72 69.5299987,260.000002 59.9999999,222 C53.9999999,250.000002 59.9999999,268.000002 64.5298137,364.029997 C64.6498137,365.449997 42.9999999,170.000002 59.9999999,367.130003 C51.9999999,321.999998 50.9999999,286.451956 36.9999999,220 L33.9999999,206.1 Z M60.9999998,220 C63.7699998,224.24 66.2600001,222.89 65.7200001,228 C66.5800001,227.55 83.1500008,301.449998 84.0000008,300.999998 C83.7300008,306.289998 88.2900008,355.440006 91.0000008,360.000006 C91.9400008,354.860006 87.9800008,299.969998 87.0000008,294.999998 C85.4900008,291.709998 65.23,212.97 65.72,211.9 C64.33,212.13 62.3899998,213.77 60.9999998,214 L60.9999998,220 Z" id="Shape"></path>
                    <path d="M94.29,364.71 C94.58,363.52 94.87,362.33 95.17,361.16 C95.6,361.68 96.46,362.73 96.89,363.25 C101.07,364.03 106.18,362.79 109.64,365.88 C104.45,368.11 98.9,368.26 94.29,364.71 L94.29,364.71 Z" id="Shape"></path>
                    <path d="M85.11,368.95 C88.69,368.83 91.71,370.53 93.41,373.7 C91.03,373.61 88.65,373.56 86.27,373.55 C85.88,372.01 85.49,370.48 85.11,368.95 L85.11,368.95 Z" id="Shape"></path>
                </g>
            </g>
        </g>
    </g>
</svg>