<?xml version="1.0" encoding="UTF-8" standalone="no"?>
<svg width="131px" height="389px" viewBox="0 0 131 389" version="1.1" xmlns="http://www.w3.org/2000/svg" xmlns:xlink="http://www.w3.org/1999/xlink" xmlns:sketch="http://www.bohemiancoding.com/sketch/ns">
    <!-- Generator: Sketch 3.3.1 (12005) - http://www.bohemiancoding.com/sketch -->
    <title>han_sprite</title>
    <desc>Created with Sketch.</desc>
    <defs></defs>
    <g id="defs" stroke="none" stroke-width="1" fill="none" fill-rule="evenodd" sketch:type="MSPage">
        <g id="han-col-outlined" sketch:type="MSArtboardGroup" transform="translate(0.000000, -0.500000)">
            <g id="han" sketch:type="MSLayerGroup">
                <g id="han-col" sketch:type="MSShapeGroup">
                    <path d="M118.56,186.39 C122.08,193.68 125.2,201.16 128.53,208.54 C127.16,209.6 125.8,210.69 124.42,211.73 C123.31,212.44 122.37,213.4 121.88,214.63 C120.51,217.26 123.634461,215.518477 117,218.000001 C110.365538,220.481524 104.89,219.920001 98.9999995,220.000001 C97.7899995,219.560001 91.4700005,219.480001 91.0000005,220.000001 C89.0600005,220.280001 83.71,220.580001 80.25,220.000001 C80.21,216.870001 77.03,215.9 77.15,212.8 C78.24,213.58 82.22,198.46 79,197.86 C79.14,196.41 78.48,195.7 77.03,195.73 C77.05,195 77.07,193.52 77.09,192.79 C77.11,192.04 77.16,190.54 77.18,189.79 C78.5,189.62 78.99,188.89 78.64,187.59 L79.81,187.35 L80.25,187.48 C80.95,187.48 82.36,187.46 83.06,187.45 C94.85,186.42 106.73,186.73 118.56,186.39 Z" id="Shape" fill="#4393C9"></path>
                    <path d="M43.0000002,151 C44.8700002,148.79 65.0500002,142.14 67.0000002,140 L70.0000002,158 C67.9100002,159.84 55.0700002,164.139999 53.0000002,165.999999 L43.0000002,151 Z" id="Shape" opacity="0.97" fill="#938E4F"></path>
                    <path d="M66.38,226.83 C69.26,243.78 71.37,260.9 72.08,278.09 C72.29,284.99 72.84,291.88 73.19,298.78 C73.39,304.26 73.58,309.75 73.74,315.25 C73.75,316.02 76.34,379.51 76.62,380.06 C72.84,380.48 68.92,382.22 65.19,380.84 C62.35,367.09 65.1,352.72 63.23,338.8 C62.7,336.32 61.1700002,249.2 60.0000002,247 C58.5900002,246.95 56.0000002,252 56.0000002,261.999998 C54.7649996,334.15 52.77,366.4 49,383.33 C45.21,383.04 41.49,382.7 37.74,382.2 C38.35,369.15 41.26,356.34 42.3,343.32 C45.44,304.8 45.18,265.87 39.7,227.57 C48.59,227.86 57.49,227.33 66.38,226.83 Z" id="Shape" opacity="0.98" fill="#24342F"></path>
                    <path d="M63.86,126 C67.0300001,132 65.8,135.74 66.24,137.14 C66.38,137.48 66.67,138.16 66.81,138.5 C66.99,138.82 67.35,139.44 67.53,139.76 C69.37,144.72 73.2399993,170.800002 74.3299993,176.000002 C73.4799993,175.330002 69.8600006,167.890002 68.8000006,168.000002 L69.27,153.09 C69.21,151.72 68.47,150.96 67.03,150.8 C66.05,149.03 65.05,147.27 64.04,145.53 L63.42,144.44 C61.47,146.58 59.61,148.79 57.74,151 C55.64,153.36 53.63,155.79 51.61,158.21 C49.73,159.42 50.84,162.35 53.09,161.4 C54.32,161.23 55.56,161.08 56.81,160.92 C58.12,161.51 59.23,161.25 60.16,160.14 C63.12,159.53 66.08,158.87 69.03,158.16 C68.98,159.41 68.89,161.9 68.84,163.14 C68.83,163.39 68.81,163.9 68.8,164.16 C68.4,167.24 69.73,170.11 71.55,172.51 C71.84,172.9 72.4,173.68 72.69,174.07 C74,175.81 75.36,177.53 76.79,179.19 C77.25,179.45 78.18,179.98 78.64,180.25 C79.23,180.37 80.4,180.61 80.98,180.73 C81.61,182.01 82.24,183.3 82.96,184.54 C82.28,184.82 83.6400004,186.72 82.9600004,187 C81.8100004,187.09 79.1200007,187.029999 78.6400007,188.039999 L78.6400007,191 C76.3500007,194.28 78.6799992,192.23 80.2399992,195.85 C83.0499992,197.02 85.1900013,198.010001 88.0000013,199.210001 L84.96,203.68 C83.78,206.03 86.4600004,208.899999 84.9600004,211.059999 C83.8700004,210.349999 77.7600001,213.460004 76.5300001,213.830004 C75.7600001,214.020004 75.11,210.46 74.33,210.65 C74.1,209.26 73.32,208.73 71.97,209.04 L71.31,209.17 C69.15,209.58 67.02,209.92 64.92,210.47 C63.85,210.98 63.28,211.84 63.22,213.05 C63.38,214.34 63.7,216.93 63.86,218.22 C64.03,219.67 66.8600001,226.229997 67.0300001,227.689997 C63.8600001,228.929997 60.1100008,228.220002 56.8100008,229.000002 C51.7800008,229.510002 47.9700004,228.150002 43.0000004,229.000002 L38.9,227.69 C38.91,227.1 38.94,225.93 38.95,225.34 C38.95,223.93 38.95,221.12 38.94,219.71 C38.92,217.75 38.91,215.78 39.1,213.83 C39.3,212.82 39.11,211.9 38.51,211.06 C37.92,209.33 37.95,207.48 37.98,205.68 C38.13,204.5 37.94,203.33 37.55,202.22 C37,200.15 36.83,197.98 37.01,195.85 C37.21,194.85 37.03,193.92 36.45,193.07 C35.88,190.34 35.75,187.58 36.05,184.81 C36.28,183.8 36.11,182.87 35.53,182.02 C32.79,175.85 31.92,168.92 32.01,162.21 C32.1,161.18 32.16,160.14 32.18,159.11 C32.21,158.72 32.26,157.95 32.28,157.56 C32.45,153.27 32.58,148.99 32.73,144.7 C32.8,142.21 32.89,139.72 33,137.23 C35.27,136.73 37.55,136.24 39.83,135.75 C41.27,136.49 42.97,136.35 44.24,135.3 C44.66,135.19 45.49,134.96 45.9,134.85 C46.17,135.2 46.7,135.9 46.97,136.25 L47.05,137.01 C46.88,138.47 47.47,139.33 48.81,139.59 C52.47,140.31 56.12,140.89 59.83,141.42 C63.86,132 56.8100008,126 63.86,126 Z" id="Shape" fill="#EB5D30"></path>
                    <path d="M44.9,87.13 C44.4,85.79 44.71,84.69 45.84,83.83 C46.38,85.18 46.07,86.28 44.9,87.13 L44.9,87.13 Z" id="Shape" opacity="0.97" fill="#938E4F"></path>
                    <path d="M85.84,101.2 C86.06,99.74 86.91,99 88.4,98.97 C88.06,100.32 87.21,101.07 85.84,101.2 L85.84,101.2 Z" id="Shape" opacity="0.97" fill="#938E4F"></path>
                    <path d="M81.1,106.54 C81,105.09 81.67,104.18 83.09,103.81 C83.09,105.22 82.43,106.13 81.1,106.54 L81.1,106.54 Z" id="Shape" opacity="0.97" fill="#938E4F"></path>
                    <path d="M97.81,14.19 C108.04,24.95 107.95,40.59 106.09,54.39 C105.79,54.19 105.19,53.78 104.89,53.57 C98.24,48.95 89.97,47.79 82.45,45.2 C74,42.95 66.24,38.96 58.3,35.45 C51.79,50.87 46.99,67.05 45.84,83.83 C44.71,84.69 44.4,85.79 44.9,87.13 C45.03,91.66 45.11,96.2 45.31,100.74 C45.42,103.87 45.61,107.04 45.88,110.18 C45.91,110.59 45.98,111.42 46.02,111.83 C46.23,114.64 46.53,117.47 46.81,120.28 C47.24,124.94 47.91,129.59 48.16,134.27 C47.6,134.41 46.47,134.7 45.9,134.85 C45.49,134.96 46.3199997,137.12 45.8999997,137.23 C44.4499997,136.45 41.2399981,136.14 39.9999981,137.23 C37.7199981,137.72 35.27,136.73 33,137.23 C31.05,135.59 29.15,133.89 27.26,132.19 C25.97,134.7 24.69,137.2 23.4,139.71 C20.02,136.94 17.12,133.55 15.13,129.67 C12.5,119.67 10.68,109.5 9.25,99.27 C7.76,102.36 6.25,105.44 4.87,108.58 C-4.75,77.27 3.38,42.36 22.07,16.03 C27.51,7.56 37.91,4.67 46.94,1.91 C64.44,-0.76 84.17,2.14 97.81,14.19 Z" id="Shape" fill="#402014"></path>
                    <path d="M99.37,75.54 C100.53,75.58 101.7,75.63 102.88,75.67 C100.43,94.13 97.75,112.75 100.1,131.39 C96.74,131.94 93.02,133.98 89.78,132.19 C87.79,131.24 85.97,130 84.1,128.86 C83.56,131.09 83.05,133.33 82.56,135.57 C78.06,136.03 73.63,136.72 69.17,137.22 C68.14,136.42 67.17,136.39 66.24,137.14 C65.8,135.74 65.39,134.33 65.03,132.92 C64.7,131.62 64.41,130.31 64.16,129 C64.04,127.72 63.34,127.02 62.06,126.9 C57.53,126.34 51.79,125.03 52.42,119.3 C52.42,116.13 52.55,112.99 52.78,109.84 L52.89,108.94 C57.68,108.51 62.3,110.39 67.08,110.44 C72.19,111.25 76.61,108.4 81.1,106.54 C82.43,106.13 83.09,105.22 83.09,103.81 C84.01,102.95 84.92,102.08 85.84,101.2 C87.21,101.07 88.06,100.32 88.4,98.97 C93.29,91.79 96.91,83.86 99.37,75.54 L99.37,75.54 Z" id="Shape" fill="#402014"></path>
                    <path d="M82.45,45.2 C89.97,47.79 98.24,48.95 104.89,53.57 C104.58,54.56 104.52,55.56 104.7,56.58 C105.42,63.03 103.88,69.36 102.88,75.67 C101.7,75.63 100.53,75.58 99.37,75.54 C96.91,83.86 93.29,91.79 88.4,98.97 C86.91,99 86.06,99.74 85.84,101.2 C84.92,102.08 84.01,102.95 83.09,103.81 C81.67,104.18 81,105.09 81.1,106.54 C76.61,108.4 72.19,111.25 67.08,110.44 C62.3,110.39 57.68,108.51 52.89,108.94 L52.78,109.84 C52.51,112.98 52.27,116.15 52.42,119.3 C51.79,125.03 57.53,126.34 62.06,126.9 C61.94,128.41 62.64,129.11 64.16,129 C64.41,130.31 64.7,131.62 65.03,132.92 C63.3,135.75 61.57,138.59 59.83,141.42 C56.12,140.89 52.47,140.31 48.81,139.59 C49.03,138.26 48.45,137.4 47.05,137.01 L46.97,136.25 C47.27,135.76 47.86,134.76 48.16,134.27 C47.91,129.59 47.24,124.94 46.81,120.28 C46.49,117.45 46.3,114.65 46.02,111.83 C45.98,111.42 45.91,110.59 45.88,110.18 C45.61,107.02 45.48,103.89 45.31,100.74 C45.11,96.2 45.03,91.66 44.9,87.13 C46.07,86.28 46.38,85.18 45.84,83.83 C46.99,67.05 51.79,50.87 58.3,35.45 C66.24,38.96 74,42.95 82.45,45.2 Z M59.25,91.37 C58.96,93.09 58.37,96.53 58.08,98.25 C61.54,101.82 66.36,100.67 70.79,100.05 C69.5,94.71 64.31,92.08 59.25,91.37 L59.25,91.37 Z" id="Shape" fill="#F9DF94"></path>
                    <path d="M80.25,187.48 C81.08,186.49 82.11,186.21 83.35,186.65 L83.06,187.45 C82.36,187.46 80.95,187.48 80.25,187.48 L80.25,187.48 Z" id="Shape" fill="#F9DF94"></path>
                    <path d="M59.25,91.37 C64.31,92.08 69.5,94.71 70.79,100.05 C66.36,100.67 61.54,101.82 58.08,98.25 C58.37,96.53 58.96,93.09 59.25,91.37 L59.25,91.37 Z" id="Shape" fill="#F4EDE1"></path>
                    <path d="M85.7,182.15 C99.7,177.65 114.71,178.56 129.17,179.76 C129.66,189.27 131.78,199.3 128.53,208.54 C125.2,201.16 122.08,193.68 118.56,186.39 C106.73,186.73 94.85,186.42 83.06,187.45 L83.35,186.65 C83.47,186.36 83.7,185.79 83.82,185.51 C84.67,184.57 85.87,183.57 85.7,182.15 L85.7,182.15 Z" id="Shape" fill="#F4EDE1"></path>
                    <path d="M97.16,213.23 C97.48,211.93 99.73,211.24 99.82,213.06 C99.16,213.1 97.82,213.19 97.16,213.23 L97.16,213.23 Z" id="Shape" fill="#F4EDE1"></path>
                    <path d="M107.14,195.96 C108.25,196.68 111.900001,207.24 113.000001,208 C109.550001,212.74 105.120001,209.22 101.740001,214 L91,213 C90.91,211.18 88.6,211.43 85.94,211.34 C85.54,208.79 85.16,206.24 84.96,203.68 L85,202.72 C86.17,201.84 87.35,200.96 88.54,200.1 C90.75,200.83 92.92,201.68 95.15,202.39 C96.17,202.37 98.21,202.35 99.23,202.33 C100.08,201.53 100.9,200.68 101.74,199.85 C102.37,199.2 103,198.56 103.65,197.92 C104.51,197.23 105.1,196.36 105.41,195.31 C105.41,195.31 106.71,195.8 107.14,195.96 Z" id="Shape" fill="#F9DF94"></path>
                </g>
                <g id="han-outlined" transform="translate(1.000000, 0.000000)" fill="#0E0E0D" opacity="0.93" sketch:type="MSShapeGroup">
                    <path d="M96.82,14.21 C106.3,24.27 107.32,38.87 104.91,51.86 C102.06,78.39 95.94,104.88 98.82,131.69 C95.98,132.35 93.2,133.61 90.25,133.55 C86.5,131.89 83.76,128.57 80.58,126.07 C81.43,129.16 82.33,132.25 83.64,135.18 C77.56,135.82 71.45,136.07 65.36,135.94 C64.48,132.79 63.41,129.69 62.47,126.56 C59.05,125.91 55.64,125.25 52.24,124.58 C51.97,119.02 51.74,113.46 51.38,107.91 C60.31,110.16 71.23,113.84 78.96,106.93 C87.85,101.03 92.79,91.25 96.63,81.63 C100.5,71.54 101.23,60.69 102.78,50.1 C86.99,47.02 70.7,43.76 57.47,33.98 C54.22,42.97 49.9,51.6 48,61.04 C42.54,84.93 42.7,109.94 48.11,133.82 C42.5,134.82 36.95,136.38 31.26,136.63 C25.68,134.74 25.29,127.32 27.21,122.54 C28.9,124.63 30.25,126.96 31.77,129.18 C33.63,130.32 35.84,130.91 37.46,132.47 C38.29,131.97 39.13,131.48 39.98,130.98 C38.88,130.21 37.83,129.39 36.76,128.6 C37.29,128.55 38.37,128.45 38.9,128.39 C38.61,126.54 38.32,124.68 38.12,122.81 C39.13,124.64 40.1,126.48 41.09,128.33 C40.29,124.42 42.39,119.86 40.38,116.17 C38.13,112.75 40.39,108.64 39.88,104.85 C38.18,91.21 41.76,77.48 40.01,63.83 C40.54,64.9 41.08,65.97 41.63,67.03 C43.89,61.65 43.68,55.57 46.32,50.32 C49.1,43.47 51.28,36.27 55.66,30.21 C61.52,30.81 68.19,32.45 71.46,37.85 C73.65,36.93 75.85,36.03 77.97,34.94 C77.39,36.31 76.87,37.71 76.32,39.1 C80.09,40.66 83.93,42.08 87.96,42.84 C87.4,38.66 80.19,35.13 84.27,31.06 C87.97,30.74 91.07,33.28 94.25,34.79 C95.26,33.57 96.36,32.44 97.62,31.47 C97.42,33.06 97.09,34.62 96.63,36.15 C98.36,36.41 100.08,36.79 101.79,37.24 C101.08,34.39 100.37,31.55 99.62,28.72 C98.79,28.56 97.97,28.41 97.16,28.26 C97.52,26.91 97.89,25.57 98.26,24.23 C97.55,24.69 96.84,25.13 96.12,25.56 C95.02,22.56 93.8,19.6 92.57,16.65 C92.55,18.45 92.52,20.24 92.47,22.04 C89.35,20.64 90.28,16.87 89.28,14.19 C87.76,15.65 86.02,16.83 84.09,17.66 C85.06,16.04 86.11,14.46 87.09,12.83 C84.37,13.62 81.65,14.41 78.93,15.17 C80.29,14.14 81.65,13.11 82.96,12.01 C80.96,11.44 78.99,10.82 77.04,10.12 C76.33,12.22 74.93,13.94 73.55,15.61 C67.12,14.73 61,16.81 54.85,18.22 C55.04,17.56 55.41,16.23 55.6,15.57 C62.13,14.87 69.08,15.16 75.04,12.01 C75.04,11.25 75.05,9.73 75.06,8.97 C72.69,8.13 70.24,7.42 67.72,7.39 C57.21,6.99 45.96,6.35 36.27,11.25 C34.95,12.07 34.23,13.51 33.36,14.74 C31.62,14.5 29.89,14.23 28.15,14.08 C28.64,14.84 29.14,15.6 29.64,16.36 C25.9,16.59 25.12,20.43 23.53,23.12 C22.3,25.46 20.27,27.58 20.82,30.46 C23.12,29.59 24.9,27.92 26.43,26.05 C25.1,30.77 22.8,35.11 20.38,39.34 C13.53,55.31 10.87,73.32 14.52,90.45 C15.07,95.44 18.38,100.25 16.92,105.38 L15.61,99.62 C13.92,101.48 12.45,103.53 11.23,105.72 C12.15,105.25 13.08,104.76 14.01,104.28 C14.72,112.84 15.51,122.33 20.87,129.41 C20.28,127.25 19.61,125.11 18.94,122.97 C19.79,123.78 20.64,124.59 21.49,125.41 C22.95,124.67 24.38,123.86 25.85,123.13 C24.5,128.01 24.64,133.14 24.61,138.16 C23.27,138.08 20.59,137.91 19.24,137.83 C10.66,123.97 7.37,107.16 8.2,91.01 C7.52,87.39 10.25,81.89 6.3,79.28 C3.99,98.46 8,117.49 14.93,135.26 C3.83,118.18 -0.36,97.19 0.05,77.02 C0.07,59.45 6,42.44 14.02,27.01 C18.27,19.94 22.22,11.84 30.06,8.1 C50.73,-3.37 78.58,-0.81 96.82,14.21 Z M14.31,40.01 C10.36,45.17 11.74,52.14 9.86,57.94 C4.98,63.61 4.88,71.44 5.88,78.47 C6.82,78.22 7.76,77.92 8.71,77.67 C9.77,79.91 10.94,82.09 12.18,84.24 C11.7,81.65 10.73,79.11 10.72,76.47 C13.62,70.32 11.24,63.19 12.85,56.74 C14.09,52.78 15.51,48.87 16.68,44.89 C15.78,44.68 14.89,44.48 14.01,44.28 C16.61,40.89 19.75,37.79 21.61,33.91 C21.25,32.05 20.39,30.35 19.72,28.61 C17.06,32.04 17.2,36.71 14.31,40.01 L14.31,40.01 Z M86.21,32.21 C85.51,32.8 84.82,33.4 84.14,33.99 C90.37,39.19 96.33,44.74 103.15,49.2 C102.99,47.94 102.83,46.68 102.69,45.41 C96.66,41.71 91.41,36.95 86.21,32.21 L86.21,32.21 Z M13.84,100.57 C13.58,95.55 13.2,90.53 12.45,85.56 C10.96,90.26 9.36,97.19 13.84,100.57 L13.84,100.57 Z M86.8,106.67 C84.8,109.84 80.14,110.87 79.94,115.11 C79.22,114.61 78.48,114.13 77.78,113.63 C70.74,115.76 63.31,115.52 56.15,114.32 C56.32,116.41 56.48,118.5 56.64,120.6 C58.42,120.13 60.17,119.58 61.96,119.12 C64.45,122.79 66.51,126.74 69.01,130.4 C71.07,132.98 74.99,130.47 77.5,131.11 C77.85,127.91 77.66,124.67 76.49,121.65 C78.61,122.52 80.72,123.44 82.78,124.46 C82.95,123.87 83.29,122.68 83.46,122.09 C84.52,123.54 85.53,125.02 86.58,126.49 C88.79,126.41 91,126.4 93.22,126.52 C93.15,119.69 92.38,112.85 92.39,106.04 C93.35,104.15 94.22,102.2 93.86,100.01 C90.33,100.71 88.63,103.97 86.8,106.67 L86.8,106.67 Z" id="Shape"></path>
                    <path d="M35.93,36.31 C39.48,29.57 42.54,21.76 50.29,18.87 C45.22,24.46 41.5,31.19 35.93,36.31 L35.93,36.31 Z" id="Shape"></path>
                    <path d="M22.67,51.79 C24.07,42.47 27.87,33.54 33.11,25.74 C30.55,31.13 30.26,37.19 27.64,42.54 C26.17,46.9 26.36,51.49 25.89,56 C26.61,55.99 28.06,55.97 28.79,55.96 C29.59,50.36 28.77,43.46 34.08,39.83 C31.52,48.21 30.6,56.94 28.6,65.45 C28.31,62.44 28,59.43 27.67,56.43 C25.86,57.6 25.11,59.56 24.73,61.58 L24.5,61.49 C23.39,61.04 22.3,60.58 21.21,60.14 C21.56,62.93 21.75,65.68 22.15,68.5 C22.68,66.81 23.22,65.13 23.8,63.47 C23.4,75.8 25.18,88.31 22.74,100.49 C21.57,99.58 19.93,98.88 19.79,97.19 C17.28,82.15 16.6,66.11 22.67,51.79 L22.67,51.79 Z M21.72,91.49 C22.25,83.78 22.19,76.03 21.55,68.33 C18.16,75.4 19.26,84.31 21.72,91.49 L21.72,91.49 Z" id="Shape"></path>
                    <path d="M62.33,50.28 C65.16,49.39 67.85,51.28 70.44,52.22 C65.43,52.96 60.54,54.25 55.7,55.69 C57.89,53.89 59.82,51.68 62.33,50.28 L62.33,50.28 Z" id="Shape"></path>
                    <path d="M89.77,54.99 C91.8,54.67 93.82,54.25 95.83,53.75 C97.63,56.22 98.7,59.08 99.31,62.05 C96.61,59.1 93.41,56.66 89.77,54.99 L89.77,54.99 Z" id="Shape"></path>
                    <path d="M56.6,63.58 C60.49,59.04 66.83,62.06 70.31,65.56 C69.13,65.5 67.98,65.45 66.82,65.39 C66.63,65.81 66.26,66.64 66.07,67.06 C65,66.9 63.94,66.75 62.89,66.59 C62.71,65.43 62.53,64.27 62.36,63.11 C60.44,63.33 58.52,63.51 56.6,63.58 L56.6,63.58 Z" id="Shape"></path>
                    <path d="M85.74,67.93 C89.61,65.69 94.82,65.37 97.67,69.32 C95.42,68.93 92.91,68.24 91.1,70.11 C88.95,72.27 87.11,69.39 85.74,67.93 L85.74,67.93 Z" id="Shape"></path>
                    <path d="M27.22,76.5 C29.78,83.24 28.39,90.76 30.66,97.61 C31.49,99.68 30.57,101.67 29.35,103.34 C27.1,94.59 26.64,85.49 27.22,76.5 L27.22,76.5 Z" id="Shape"></path>
                    <path d="M37.1,90.32 C34.52,87.36 33.2,83.08 34.84,79.35 C35.64,82.99 36.29,86.67 37.1,90.32 L37.1,90.32 Z" id="Shape"></path>
                    <path d="M78.31,81.32 C79.25,80.03 81.51,81.57 80.49,82.88 C79.54,84.17 77.25,82.64 78.31,81.32 L78.31,81.32 Z" id="Shape"></path>
                    <path d="M32.83,99.49 C33.8,97.5 34.86,95.55 36.02,93.65 C37.31,96.5 35.23,98.35 32.83,99.49 L32.83,99.49 Z" id="Shape"></path>
                    <path d="M31.31,113.55 C32,112.66 32.7,111.79 33.41,110.91 C34.88,115.25 38.04,119.74 36.07,124.44 C35.3,120.48 33.77,116.74 31.31,113.55 L31.31,113.55 Z" id="Shape"></path>
                    <path d="M64.15,135.92 C67.74,141.86 71.71,148.04 72.88,155 C71.91,158.76 69.02,161.77 66.95,165.01 C67.52,168.73 70.41,170.9 73.9,171.73 C73.15,171.92 71.66,172.29 70.92,172.47 C74.25,178.19 81,180.44 86.21,184.07 C80.31,186.64 76.5,180.65 72.38,177.59 C66.78,173.92 66.8,166.36 64.73,160.6 C62.95,161.02 61.18,161.47 59.4,161.88 C59.01,161.49 58.22,160.73 57.83,160.34 C62.02,159.45 66.21,158.44 70.25,156.98 C68.38,153.64 66.1,150.47 64.75,146.9 C65.18,144.19 65.9,141.47 65.12,138.75 C64.17,139.49 63.23,140.24 62.32,141.01 C62.8,141.99 63.29,142.97 63.79,143.95 C57.94,140.79 49.85,145.64 45.65,139.04 C49.1,139.99 52.51,142.34 56.21,141.4 C59.55,140.85 61.87,138.18 64.15,135.92 Z" id="Shape"></path>
                    <path d="M33.67,163.33 C35.66,170.69 40.09,205.58 41.43,214.52 C42.87,218.66 40.37,222.26 38.78,225.81 C47.21,227.6 55.9,226.25 64.33,225 C63.62,222.4 59.72,218.83 62.79,216.57 C65,221.76 65.84,227.36 66.14,232.95 C69.88,261.69 73.24,290.66 72.47,319.69 C73.3,332.26 74.34,344.83 74.56,357.45 C75.27,362.3 72.38,367.12 74.43,371.83 C75.02,375.57 75.2,379.51 76.64,383.08 C72.23,381.77 67.6,381.34 63.11,380.57 C63.1,362.66 62.82,344.7 62.49,326.84 C63.29,325.73 63.32,324.3 62.57,323.16 C60.64,306.94 61.58,290.54 60.03,274.29 C61.61,274.07 58.52,244.46 57.85,234.04 C56.12,234.03 52.67,234.01 50.95,234.01 C50.89,245.35 53.87,256.51 53.4,267.87 C52.23,273.11 50.73,278.3 50.05,283.65 C51.52,285.38 53.05,287.06 54.58,288.74 C55.69,320.23 54.42,352.16 47.77,383.04 C43.77,383.31 39.82,382.87 35.96,381.88 C44.66,332.94 46.22,282.64 39.49,233.35 C37.58,228.06 37.3,222.54 38.41,217.08 C36.86,205.22 36.2,193.23 34.48,181.4 C30.15,167.36 29.15,151.92 33.3,137.72 C38.09,145.67 31.54,154.83 33.67,163.33 Z M45.18,230.09 C44.8,233.3 44.88,236.55 44.46,239.76 C45.22,240.2 46,240.62 46.79,241.03 C47.47,236.3 45.57,228.96 53.44,229.86 C50.73,229.33 47.84,229.23 45.18,230.09 L45.18,230.09 Z M46.26,245.52 C45.14,246.4 46.58,248.37 47.74,247.48 C48.84,246.59 47.4,244.62 46.26,245.52 L46.26,245.52 Z M48.69,268.5 C48.59,262.09 48.57,255.67 47.28,249.37 C44.8,255.54 47.3,262.3 48.69,268.5 L48.69,268.5 Z M50.38,267.8 C49.34,268.87 48.6,271.71 50.22,272.51 C51.61,271.7 51.85,268.47 50.38,267.8 L50.38,267.8 Z M64.36,281.06 C64.68,286.9 65.56,292.7 66.8,298.42 C67.99,291.44 68.01,284.3 66.84,277.32 C65.7,278.27 64.17,279.35 64.36,281.06 L64.36,281.06 Z M48.94,300.99 C49.03,309.08 48.07,317.13 47.29,325.17 C47.65,325.32 48.38,325.62 48.74,325.77 C45.73,332.85 46.01,340.81 45.21,348.32 C45.36,352.13 44.34,356.87 47.61,359.61 C46.93,351.77 48.7,344 48.85,336.17 C50.16,330.39 50.93,324.52 49.39,318.73 C50.85,308.73 50.93,298.59 50.48,288.51 C48.26,292.27 49.35,296.86 48.94,300.99 L48.94,300.99 Z M67.17,299.82 C66.21,300.59 66.6,302.45 67.8,302.77 C69.63,302.74 68.82,299.17 67.17,299.82 L67.17,299.82 Z M67.34,305.77 C66.39,307.33 66.39,309.66 67.34,311.23 C68.78,310.46 68.78,306.54 67.34,305.77 L67.34,305.77 Z M64.15,327.12 C64.26,331.66 65.84,336.77 69.69,339.56 C69.48,337.7 69.18,335.85 68.77,334.03 C69.67,333.51 70.56,332.97 71.48,332.46 C69.74,326.61 68.82,320.56 67.4,314.64 C66.65,318.88 65.55,323.04 64.15,327.12 L64.15,327.12 Z M68.29,339.51 C67.47,346.2 68.27,352.9 68.53,359.6 C69.65,353.08 70.94,345.81 68.29,339.51 L68.29,339.51 Z M44.32,356.54 C44.06,363.86 43.95,371.18 43.33,378.49 C46.32,371.67 46.87,363.57 44.32,356.54 L44.32,356.54 Z M68.15,363.4 C67.3,367.38 72.14,362.58 68.15,363.4 L68.15,363.4 Z M69.14,375.55 C71.17,372.58 72.14,366.77 67.87,365.54 C68.2,368.87 68.66,372.21 69.14,375.55 Z" id="Shape"></path>
                    <path d="M52.11,153.62 C55.16,150.52 57.57,146.8 60.94,144.01 C60.27,148.73 56.37,152.05 52.11,153.62 L52.11,153.62 Z" id="Shape"></path>
                    <path d="M46.79,165.43 C42.72,162.33 43.97,156.73 45.52,152.55 C45.99,156.83 46.47,161.13 46.79,165.43 L46.79,165.43 Z" id="Shape"></path>
                    <path d="M47.89,168.8 C50.32,172.08 52.78,175.44 54.06,179.36 C51.13,176.41 49.16,172.73 47.89,168.8 L47.89,168.8 Z" id="Shape"></path>
                    <path d="M94.5,179.56 C105.78,178.43 117.14,178.95 128.46,179.1 C128.44,183.85 128.5,188.6 128.67,193.36 C126.81,189.68 124.93,186.02 123.3,182.24 C111.4,181.67 99.55,183.58 87.65,182.91 C89.84,181.64 91.94,180 94.5,179.56 L94.5,179.56 Z" id="Shape"></path>
                    <path d="M67.82,185.86 C68.23,184.91 68.65,183.97 69.08,183.03 C70.49,185.14 71.62,188.1 74.42,188.64 C88.82,189.39 103.16,187.14 117.56,187.17 C120.55,194.3 124.29,201.29 125.83,208.91 C122.94,213.68 118.84,217.59 114.69,221.27 C114.98,215.8 121.19,213.6 122.61,208.61 C122.72,202.44 120.87,196.18 117.25,191.18 C116.24,191.66 115.25,192.15 114.27,192.64 C114.27,191.76 114.3,190.87 114.33,189.99 C111.24,189.41 108.05,189.19 104.97,189.97 C104.79,195.57 97.8,191.9 94.55,193 C96.24,192.63 99.62,191.87 101.3,191.5 C100.46,190.94 99.62,190.39 98.79,189.84 C92.32,192.45 85.27,192.4 78.48,193.46 L77.69,198.18 C76.92,192.49 71.94,189.23 67.82,185.86 L67.82,185.86 Z M76.4,191.4 C81.37,192.82 86.52,191.8 91.6,191.6 C86.64,190.18 81.42,191.18 76.4,191.4 L76.4,191.4 Z" id="Shape"></path>
                    <path d="M120.83,183.66 C125.54,188.03 127.32,194.4 128.84,200.42 C126.22,196.47 124.71,191.93 122.22,187.91 C121.65,186.52 121.25,185.08 120.83,183.66 L120.83,183.66 Z" id="Shape"></path>
                    <path d="M65.93,194 C64.15,191.63 65.29,188.91 66.07,186.48 C67.16,188.81 66.44,192.49 68.11,194.8 C70.52,196.55 73.24,197.85 75.61,199.67 C71.9,198.87 67.13,198.44 65.93,194 L65.93,194 Z" id="Shape"></path>
                    <path d="M105.86,192.31 C107.16,191.76 108.49,191.24 109.81,190.72 C109.12,192.96 108.49,195.21 107.94,197.49 C107.27,195.75 106.59,194.02 105.86,192.31 L105.86,192.31 Z" id="Shape"></path>
                    <path d="M82.07,208.51 C82.27,203.83 82.37,198.32 86.54,195.33 C85.27,199.78 84.7,204.59 82.07,208.51 L82.07,208.51 Z" id="Shape"></path>
                    <path d="M89.7,197.52 C94.36,200.46 101,198.06 104.38,203.27 C99.07,204.49 94.11,201.44 89.18,199.96 C89.36,199.15 89.53,198.33 89.7,197.52 L89.7,197.52 Z" id="Shape"></path>
                    <path d="M124.13,196.62 C126.59,199.63 128.09,203.24 128.83,207.05 C125.24,205.01 125.47,200.08 124.13,196.62 L124.13,196.62 Z" id="Shape"></path>
                    <path d="M51.83,201.01 C56.63,202.35 61.39,203.96 65.82,206.28 C65.21,209.92 64.62,213.66 62.44,216.76 C62.71,213.5 63.27,210.31 63.87,207.11 C59.87,205.04 55.81,203.09 51.83,201.01 L51.83,201.01 Z" id="Shape"></path>
                    <path d="M105.39,205.36 C106.53,205.5 107.67,205.64 108.82,205.79 C107.45,207.92 106.13,210.08 104.87,212.28 C105,210.55 105.26,207.09 105.39,205.36 L105.39,205.36 Z" id="Shape"></path>
                    <path d="M66.56,208.1 C70.14,208.32 74.8,207.47 77.78,210.21 C78.73,213.5 79,216.96 79.41,220.36 C80.82,220.09 82.23,219.87 83.65,219.61 C83.74,220.16 83.92,221.25 84.02,221.8 C81.67,222.09 79.34,222.41 77.02,222.76 C76.26,220.6 75.36,218.49 74.88,216.27 C75.59,214.67 76.72,213.25 77.24,211.55 C73.61,210.62 69.99,209.6 66.56,208.1 L66.56,208.1 Z" id="Shape"></path>
                    <path d="M81.76,209.09 C88.19,212.4 95.28,213.21 102.45,213.45 C95.51,216.38 86.39,215.61 81.76,209.09 L81.76,209.09 Z" id="Shape"></path>
                    <path id="Shape" d="M54.27,259 L54.73,259 L54.27,259 L54.27,259 Z"></path>
                    <path id="Shape" d="M56.47,259 C56.5,258.9 56.56,258.69 56.6,258.59 L56.47,259 L56.47,259 Z"></path>
                    <path d="M70.58,387.47 C74.71,387.5 78.87,387.4 83.01,387.25 C82.97,387.74 82.89,388.71 82.85,389.2 C78.69,389.14 74.55,388.71 70.58,387.47 L70.58,387.47 Z" id="Shape"></path>
                    <path d="M46,389 L56,390 L46,389 L46,389 Z" id="Shape"></path>
                    <path d="M76.0461465,92 C78.0461465,95 78.737864,98.32 76.0461465,100 C72.0461456,102 60.3610501,99.56 57.231146,98.48 C57.231146,98.48 76.0461465,91 76.0461465,92 Z" id="Shape-Copy-2" transform="translate(67.523073, 96.335639) scale(-1, 1) translate(-67.523073, -96.335639) "></path>
                </g>
            </g>
        </g>
    </g>
</svg>