<?xml version="1.0" encoding="UTF-8" standalone="no"?>
<svg width="801px" height="1132px" viewBox="0 0 801 1132" version="1.1" xmlns="http://www.w3.org/2000/svg" xmlns:xlink="http://www.w3.org/1999/xlink" xmlns:sketch="http://www.bohemiancoding.com/sketch/ns">
    <!-- Generator: Sketch 3.3.1 (12005) - http://www.bohemiancoding.com/sketch -->
    <title>initial-concept</title>
    <desc>Created with Sketch.</desc>
    <defs>
        <path id="path-1" d="M799.875,565.775 C799.875,753.775 799.875,940.775 799.775,1128.775 C799.775,1129.775 797.875,1131.775 796.875,1131.775 C531.875,1131.875 267.875,1131.875 2.875,1131.775 C1.875,1131.775 0.075,1129.975 0.075,1128.975 C-0.025,753.975 -0.025,377.975 0.075,2.975 C0.075,1.975 2.075,0.075 3.175,0.075 C268.175,-0.025 532.175,-0.025 797.175,0.075 C798.175,0.075 800.075,1.975 800.075,3.075 C800.175,191.075 800.175,378.075 800.175,566.075"></path>
    </defs>
    <g id="initial-layout" stroke="none" stroke-width="1" fill="none" fill-rule="evenodd" sketch:type="MSPage">
        <g id="initial-concept" sketch:type="MSArtboardGroup">
            <g id="page01">
                <use fill="#1A1A1A" fill-rule="evenodd" sketch:type="MSShapeGroup" xlink:href="#path-1"></use>
                <use fill="none" xlink:href="#path-1"></use>
            </g>
            <g id="me-component" sketch:type="MSLayerGroup" transform="translate(311.000000, 74.000000)">
                <rect id="BG" sketch:type="MSShapeGroup" x="0.752202908" y="0.115192379" width="418.022863" height="334.713858"></rect>
                <path d="M418.575,148.875 C418.575,101.875 418.675,53.875 418.275,6.875 C418.275,4.575 414.375,0.375 412.275,0.375 C293.275,0.075 173.275,0.075 54.275,0.175 C52.375,0.175 49.175,1.275 48.675,2.675 C44.475,13.575 40.675,24.675 36.875,35.675 C24.675,71.575 12.475,107.575 0.875,143.675 C0.275,145.675 1.975,150.075 3.775,150.975 C72.775,184.875 142.775,218.975 211.775,251.975 C225.775,258.675 241.775,269.675 254.775,267.575 C297.275,260.775 338.775,248.675 380.775,238.975 C382.975,238.475 388.475,241.775 388.375,242.475 C383.775,265.875 378.375,289.175 373.675,312.475 C372.575,317.775 371.075,325.775 373.675,328.375 C377.875,332.475 389.875,335.975 390.975,334.475 C400.975,320.475 415.775,305.575 416.875,290.475 C420.275,243.575 418.075,196.475 418.075,149.475" id="0:0:0:0" fill="#E0F4FC" sketch:type="MSShapeGroup"></path>
                <text id="Type-something" sketch:type="MSTextLayer" font-family="Carmen" font-size="24" font-weight="normal" sketch:alignment="middle" text-decoration="underline" fill="#1C4E68">
                    <tspan x="286.5" y="44">ME</tspan>
                    <tspan x="227.8125" y="72">SEE TOPECA</tspan>
                </text>
            </g>
            <g id="info-component" sketch:type="MSLayerGroup" transform="translate(75.000000, 74.000000)">
                <path d="M0.175,214.375 C0.175,283.275 0.175,352.375 0.375,421.375 C0.375,424.275 2.175,429.075 4.075,429.675 C25.775,435.975 47.675,441.675 70.075,447.175 C71.575,447.575 74.975,445.875 75.375,444.575 C81.375,425.575 86.375,406.075 92.975,387.575 C96.475,377.575 100.575,361.775 107.675,359.675 C146.175,348.175 185.675,340.075 224.675,330.875 C259.375,322.675 293.675,314.575 328.675,306.375 C373.275,295.875 417.675,285.375 462.675,274.775 C464.175,274.375 465.475,273.275 466.875,272.475 C465.575,271.475 464.475,270.075 462.975,269.375 C384.975,231.775 305.975,194.375 227.975,156.375 C226.375,155.575 224.675,151.875 225.275,150.175 C240.875,103.175 256.775,55.175 272.275,8.175 C272.875,6.275 268.875,0.675 266.975,0.675 C180.975,0.275 94.975,0.275 7.975,0.675 C5.475,0.675 0.875,5.275 0.875,7.675 C0.475,76.675 0.575,145.675 0.575,214.675" id="info" fill="#25AAE1" sketch:type="MSShapeGroup"></path>
                <text id="Type-something" sketch:type="MSTextLayer" font-family="Carmen" font-size="24" font-weight="normal" sketch:alignment="middle" text-decoration="underline" fill="#1C4E68">
                    <tspan x="42.1601562" y="44">README</tspan>
                    <tspan x="41.4863281" y="72">LICENCE</tspan>
                    <tspan x="40.8300781" y="100">CREDITS</tspan>
                    <tspan x="69.5" y="128">ETC</tspan>
                </text>
            </g>
            <g id="story-component" sketch:type="MSLayerGroup" transform="translate(124.000000, 325.000000)">
                <path d="M0.475,316.975 C9.075,316.475 15.275,315.975 21.475,315.575 C103.475,310.775 184.475,306.075 266.475,301.275 C340.475,296.875 415.475,292.575 489.475,287.875 C492.875,287.675 498.075,283.675 498.775,280.575 C519.075,189.575 538.775,97.575 558.775,6.575 C559.175,4.875 554.475,-0.025 552.875,0.275 C535.975,3.675 519.275,7.875 502.875,11.775 C405.875,34.275 309.875,56.775 212.875,79.775 C167.175,90.475 121.875,101.575 75.875,111.675 C64.275,114.275 56.975,118.475 54.875,131.175 C52.075,146.375 47.975,161.175 43.375,176.175 C29.375,221.175 14.775,267.175 0.575,312.175 C0.075,313.775 1.675,315.975 2.075,317.375" id="story" fill="#EA316E" sketch:type="MSShapeGroup"></path>
                <text id="STORY" sketch:type="MSTextLayer" font-family="Carmen" font-size="24" font-weight="normal" sketch:alignment="middle" text-decoration="underline" fill="#1C4E68">
                    <tspan x="385.662109" y="95">STORY</tspan>
                </text>
            </g>
            <g id="setting-component" sketch:type="MSLayerGroup" transform="translate(380.000000, 388.000000)">
                <path d="M349.475,335.475 C349.475,226.475 349.475,117.475 349.375,7.475 C349.375,5.275 348.575,2.975 348.075,0.775 C346.675,2.475 344.975,3.875 343.875,5.775 C334.375,22.075 326.475,41.675 302.175,23.775 C301.875,23.475 298.175,26.175 297.775,27.875 C282.475,94.675 267.375,161.875 252.075,227.875 C251.575,229.875 248.975,232.875 247.175,232.975 C200.575,235.975 154.175,238.875 107.175,241.375 C98.375,241.875 91.175,241.975 89.975,253.675 C88.875,264.075 85.875,274.275 83.575,284.475 C78.075,309.375 72.575,334.275 67.075,359.475 C58.575,397.475 50.075,436.475 41.675,474.475 C37.175,495.075 33.275,515.475 28.675,536.475 C19.275,578.475 9.475,620.475 0.275,663.475 C-0.125,665.475 4.275,670.675 6.475,670.675 C118.475,671.075 229.475,671.075 341.475,670.675 C344.175,670.675 349.175,665.675 349.175,662.975 C349.575,553.975 349.475,444.975 349.475,334.975" id="setting" fill="#AEE7FF" sketch:type="MSShapeGroup"></path>
                <text id="Type-something-Copy" sketch:type="MSTextLayer" font-family="Carmen" font-size="24" font-weight="normal" sketch:alignment="middle" text-decoration="underline" fill="#1C4E68">
                    <tspan x="140.326172" y="601">GAME SETTING</tspan>
                </text>
            </g>
            <g id="assets-component" sketch:type="MSLayerGroup" transform="translate(73.000000, 514.000000)">
                <path d="M0.175,272.075 C0.175,361.075 0.175,449.075 0.375,538.075 C0.375,540.575 3.875,545.075 5.875,545.075 C99.875,545.375 193.875,545.375 287.875,545.275 C289.675,545.275 292.775,543.175 293.175,541.575 C310.875,462.575 328.175,383.575 345.975,305.575 C356.875,256.675 367.475,207.575 378.375,158.575 C387.375,118.575 387.475,117.775 358.475,119.575 C252.475,125.175 147.475,131.275 41.475,136.875 C39.975,136.975 36.375,132.375 36.875,130.875 C46.675,97.275 57.375,63.975 66.475,29.875 C67.775,25.075 62.375,14.575 57.875,12.975 C41.875,7.275 24.875,3.975 8.075,0.575 C5.975,0.175 0.775,4.375 0.775,6.475 C0.375,95.475 0.475,183.475 0.475,272.475" id="assets" fill="#25B786" sketch:type="MSShapeGroup"></path>
                <text id="Type-something" sketch:type="MSTextLayer" font-family="Carmen" font-size="24" font-weight="normal" sketch:alignment="middle" text-decoration="underline" fill="#1C4E68">
                    <tspan x="78.1172056" y="411">ASSETS</tspan>
                    <tspan x="75.4570494" y="439">SEARCH</tspan>
                    <tspan x="46.7871275" y="467">REPOSITORY</tspan>
                </text>
            </g>
        </g>
    </g>
</svg>