<?xml version="1.0" encoding="UTF-8" standalone="no"?>
<svg width="130px" height="219px" viewBox="0 0 130 219" version="1.1" xmlns="http://www.w3.org/2000/svg" xmlns:xlink="http://www.w3.org/1999/xlink" xmlns:sketch="http://www.bohemiancoding.com/sketch/ns">
    <!-- Generator: Sketch 3.3.1 (12005) - http://www.bohemiancoding.com/sketch -->
    <title>kon_sprite</title>
    <desc>Created with Sketch.</desc>
    <defs></defs>
    <g id="defs" stroke="none" stroke-width="1" fill="none" fill-rule="evenodd" sketch:type="MSPage">
        <g id="kon-col-outlined" sketch:type="MSArtboardGroup" transform="translate(0.000000, -0.500000)">
            <g id="kon" sketch:type="MSLayerGroup">
                <g id="kon-col" sketch:type="MSShapeGroup">
                    <path d="M19.9,15.31 C20.49,14.94 21.68,14.2 22.27,13.83 C22.06,15.22 21.28,15.98 19.93,16.13 L19.9,15.31 L19.9,15.31 Z" id="Shape" opacity="0.98" fill="#24342F"></path>
                    <path d="M53,135.3 L53.64,135.03 C53.77,135.65 54.02,136.9 54.15,137.52 L53.4,137.6 C53.3,137.02 53.1,135.87 53,135.3 L53,135.3 Z" id="Shape" opacity="0.98" fill="#24342F"></path>
                    <path d="M70.62,96.87 C71.55,96.83 72.48,96.76 73.41,96.66 C74.94,97.26 76.48,97.8 78.03,98.32 C79.75,105.56 79.69,113.36 82.84,120.2 C80.7,120.96 78.56,121.74 76.42,122.5 C79.05,122.86 81.67,123.18 84.31,123.55 C84.49,125.68 84.67,127.82 84.82,129.98 C88.02,130.55 91.16,131.13 94.37,131.81 C91.37,133.41 87.34,133.76 84.99,136.2 C82.78,142.75 83.93,149.99 83.12,156.81 C76.9,155.25 70.61,154.02 64.4,152.42 C62.73,151.62 61.5,150.18 60.24,148.87 C59.54,148.09 58.85,147.31 58.17,146.54 C58.1,146.09 57.98,145.19 57.91,144.74 C57.13,142.93 56.28,141.15 55.4,139.4 C55.09,138.93 54.46,137.99 54.15,137.52 C54.02,136.9 53.77,135.65 53.64,135.03 C55.07,133.72 56.42,132.33 57.7,130.87 C59.77,133.77 61.87,136.66 64.01,139.51 C65.52,136.92 67.79,134.45 67.88,131.31 C66.11,128.95 64.05,126.85 62.08,124.68 C66.49,117.91 65.24,109.63 66.46,102.02 C68.43,102.4 69.5,100.43 69.9,98.83 L70.17,98.23 C70.28,97.89 70.51,97.21 70.62,96.87 L70.62,96.87 Z" id="Shape" opacity="0.97" fill="#72493C"></path>
                    <path d="M63.91,156.15 C69.65,158.91 75.67,161.03 81.56,163.43 C81.99,164.8 82.84,167.52 83.27,168.89 C76.34,168.63 69.4,168.4 62.52,167.55 C62.95,163.72 63.4,159.95 63.91,156.15 L63.91,156.15 Z" id="Shape" opacity="0.97" fill="#72493C"></path>
                    <path d="M108.07,168.48 C111.07,168.4 114.13,167.85 117.09,168.48 C118.21,169.3 119.65,169.37 120.85,168.66 C123.47,168.16 126.11,168.99 128.63,169.66 C127.62,178.39 122.62,186.46 115.59,191.62 C114.66,192.05 114.06,192.76 113.78,193.75 C105.98,200.08 96.55,204.53 87.19,208.29 C86.18,206.9 85.17,205.52 84.17,204.13 C96.31,198.7 108.82,191.15 114.59,178.65 C114.93,174.45 109.98,171.83 108.07,168.48 L108.07,168.48 Z" id="Shape" opacity="0.97" fill="#72493C"></path>
                    <path d="M61.6,170.03 L62.37,170.02 C62.41,170.63 62.5,171.86 62.55,172.48 C61.22,172.1 60.9,171.28 61.6,170.03 L61.6,170.03 Z" id="Shape" opacity="0.97" fill="#72493C"></path>
                    <path d="M70.87,174.31 C72.64,173.52 74.7,173.75 76.14,175.11 C74.34,175.67 72.41,175.39 70.87,174.31 L70.87,174.31 Z" id="Shape" opacity="0.97" fill="#72493C"></path>
                    <path d="M84.78,51.91 C86.1,52.07 86.73,52.9 86.69,54.39 C85.25,54.07 84.61,53.24 84.78,51.91 L84.78,51.91 Z" id="Shape" opacity="0.97" fill="#938E4F"></path>
                    <path id="Shape" opacity="0.97" fill="#938E4F" d="M87.55,87.24 C87.53,84.44 87.65,81.61 87.85,78.84 C87.67,81.63 87.57,84.43 87.55,87.24 L87.55,87.24 Z"></path>
                    <path d="M76.42,122.5 C78.56,121.74 80.7,120.96 82.84,120.2 C83.35,121.3 83.84,122.42 84.31,123.55 C81.67,123.18 79.05,122.86 76.42,122.5 L76.42,122.5 Z" id="Shape" opacity="0.97" fill="#938E4F"></path>
                    <path d="M56.4,147.13 C55.81,145.64 56.32,144.84 57.91,144.74 C57.98,145.19 58.1,146.09 58.17,146.54 C57.73,146.68 56.84,146.98 56.4,147.13 L56.4,147.13 Z" id="Shape" opacity="0.97" fill="#938E4F"></path>
                    <path d="M45.58,147.3 C46.23,147.61 47.53,148.23 48.18,148.54 C47.09,149.37 45.38,148.86 45.58,147.3 L45.58,147.3 Z" id="Shape" opacity="0.97" fill="#938E4F"></path>
                    <path d="M36.99,164.03 C45.55,164.46 53.13,169.13 61.6,170.03 C60.9,171.28 61.22,172.1 62.55,172.48 C65.31,173.19 68.07,173.68 70.87,174.31 C72.41,175.39 74.34,175.67 76.14,175.11 C85.32,175.27 93.58,171.38 102.09,168.59 C103.41,168.36 106.06,167.89 107.38,167.65 L108.07,168.48 C109.98,171.83 114.93,174.45 114.59,178.65 C108.82,191.15 96.31,198.7 84.17,204.13 C85.17,205.52 86.18,206.9 87.19,208.29 C86.57,208.83 85.95,209.37 85.33,209.92 C83.76,207.75 77.13,205.32 77.19,206.89 C73.67,207.18 70.16,207.53 66.64,207.74 C57.15,200.13 43.79,198.71 35.34,189.61 C34.89,188.69 34.17,188.09 33.19,187.81 C25.61,183.04 20.21,175.37 17.45,166.92 C23.76,164.95 30.33,163.54 36.99,164.03 Z M57.89,187.12 C62.83,192.55 69.49,196.06 76.16,198.91 C79.89,200.93 83.3,197.15 86.65,195.86 C85.06,191.89 81.33,188.78 76.82,190.05 C76.11,188.42 75.17,188.31 74.01,189.72 C69.67,188.4 65.32,186.41 60.73,186.45 C61.09,183.8 55.83,185.39 57.89,187.12 L57.89,187.12 Z" id="Shape" opacity="0.97" fill="#938E4F"></path>
                    <path d="M61.4,1.22 C65.32,1.74 69.21,2.44 73.09,3.17 L78.9999963,10.96 C81.2299963,11.29 94.7299963,10.77 96.9999963,10.96 C103.129996,20.09 97.4299963,19.18 103.999996,28 L107.999996,39 C108.729996,45.18 100.02,45.42 100.21,51.65 C96.33,53.84 92.48,56.1 88.76,58.56 C88.06,57.17 87.37,55.78 86.69,54.39 C86.73,52.9 86.1,52.07 84.78,51.91 C80.52,51.94 73.7200002,56.61 71.0000002,61 C66.7200002,61.43 60.2800002,58.1500014 56.0000002,58.5600014 C43.4700002,55.3600014 33.81,49.95 22.55,43.24 C18.4,40.92 13.51,41.22 8.91,41.07 C11.68,32.39 15.04,23.85 19.93,16.13 C21.28,15.98 22.06,15.22 22.27,13.83 C23.05,12.87 23.84,11.92 24.62,10.96 C26.08,11.12 30.0100007,13.4 30.4400007,12 C31.4300007,11.42 29.44,7.94 30.44,7.37 C32.37,6.27 34.32,5.2 36.33,4.23 C44.11,0.73 53.02,0.58 61.4,1.22 Z" id="Shape" fill="#402014"></path>
                    <path d="M73.41,96.66 C78.28,95.56 83.11,94.31 87.96,93.12 C89.85,98.7 94.88,101.88 100.79,101.71 C100.13,108.75 104.85,114.23 107.82,120.11 C112.58,128.41 115.91,137.84 116.36,147.43 C115.97,154.99 109.19,158.82 102.87,160.9 C102.6,163.45 102.33,166.01 102.09,168.59 C93.58,171.38 85.32,175.27 76.14,175.11 C74.7,173.75 72.64,173.52 70.87,174.31 C68.07,173.68 65.31,173.19 62.55,172.48 C62.5,171.86 62.41,170.63 62.37,170.02 C62.1,169.36 61.58,168.06 61.32,167.4 L62.52,167.55 C69.4,168.4 76.34,168.63 83.27,168.89 C82.84,167.52 81.99,164.8 81.56,163.43 C75.67,161.03 69.65,158.91 63.91,156.15 C64.03,155.21 64.28,153.35 64.4,152.42 C70.61,154.02 76.9,155.25 83.12,156.81 C83.93,149.99 82.78,142.75 84.99,136.2 C87.34,133.76 91.37,133.41 94.37,131.81 C91.16,131.13 88.02,130.55 84.82,129.98 C84.67,127.82 84.49,125.68 84.31,123.55 C83.84,122.42 83.35,121.3 82.84,120.2 C79.69,113.36 79.75,105.56 78.03,98.32 C76.48,97.8 74.94,97.26 73.41,96.66 L73.41,96.66 Z" id="Shape" fill="#402014"></path>
                    <path d="M57.7,130.87 C59.32,128.93 60.77,126.85 62.08,124.68 C64.05,126.85 66.11,128.95 67.88,131.31 C67.79,134.45 65.52,136.92 64.01,139.51 C61.87,136.66 59.77,133.77 57.7,130.87 L57.7,130.87 Z" id="Shape" fill="#402014"></path>
                    <path d="M17.35,58.92 C16.21,53.06 20.31,48.24 22.55,43.24 C33.81,49.95 46.86,52.18 59.39,55.38 C62.81,57.04 66.22,58.72 69.67,60.36 C70.51,58.25 71.32,56.14 72.23,54.07 C74.95,49.68 80.52,51.94 84.78,51.91 C84.61,53.24 85.25,54.07 86.69,54.39 C87.37,55.78 88.06,57.17 88.76,58.56 C92.48,56.1 96.33,53.84 100.21,51.65 C100.22,52.13 100.23,53.08 100.23,53.55 C100.21,56.52 100.19,59.49 100.17,62.46 C98.79,61.81 97.38,61.25 95.98,60.67 C94.68,62.49 93.34,64.27 92.05,66.09 C89.47,69.83 88.75,74.49 87.85,78.84 C87.65,81.61 87.53,84.44 87.55,87.24 C87.57,89.2 87.72,91.17 87.96,93.12 C83.11,94.31 78.28,95.56 73.41,96.66 C72.48,96.76 71.55,96.83 70.62,96.87 C69.41,96.82 68.24,97 67.1,97.4 C65.17,96.83 63.15,96.74 61.18,97.12 C59.74,96.44 58.12,96.85 57.02,97.94 C52.24,98.11 47.47,98.26 42.7,98.42 C42.53,97.02 41.73,96.44 40.31,96.68 C39.87,96.72 38.97,96.81 38.53,96.85 C37.95,95.53 36.95,95.02 35.53,95.31 C24.1,86.61 20.01,72.34 17.35,58.92 L17.35,58.92 Z" id="Shape" fill="#F9DF94"></path>
                    <path d="M48.1799999,137 C48.1799999,137 52.5299996,137.46 53.9999996,137 C54.8799996,138.75 57.13,143.93 57.91,145.74 C56.32,145.84 55.81,146.64 56.4,148.13 C53.66,148.56 50.89,148.97 48.18,149.54 C47.53,149.23 46.23,148.61 45.58,148.3 C45.16,146.26 43.52,141.01 43,139 C45.25,138.5 48.6,141.23 50.85,140.75 L48.1799999,137 Z" id="Shape" fill="#F9DF94"></path>
                    <path d="M0.83,116.99 C3.49,116.32 6.15,115.67 8.86,115.24 C10.66,114.96 12.47,114.75 14.28,114.53 C14.49,115.86 15.29,116.42 16.69,116.21 C23.39,115.87 30.09,116.09 36.79,116.03 C39.44,122.56 41.35,129.4 44.34,135.78 C46.35,139.04 50.31,135.98 53,135.3 C53.1,135.87 53.3,137.02 53.4,137.6 C52.52,138.27 51.67,138.98 50.85,139.75 C48.6,140.23 46.35,140.74 44.1,141.24 C44.62,143.25 45.16,145.26 45.58,147.3 C45.38,148.86 47.09,149.37 48.18,148.54 C50.89,147.97 53.66,147.56 56.4,147.13 C56.84,146.98 57.73,146.68 58.17,146.54 C58.85,147.31 59.54,148.09 60.24,148.87 C59.33,150.21 58.42,151.56 57.53,152.91 C45,152.22 32.45,151.47 20.01,149.91 C15.39,149.45 16.51,143.56 14.58,140.41 C12.83,139.23 10.7,138.86 8.74,138.21 C5.72,131.29 2.95,124.24 0.83,116.99 L0.83,116.99 Z" id="Shape" fill="#13886E"></path>
                    <path d="M79.19,204.87 C81.93,205.49 83.76,207.75 85.33,209.92 C87.18,212.76 86.65,216.24 86.23,219.4 C83.02,217.86 79.84,216.28 76.77,214.48 C71.32,217.07 65.15,218.61 59.14,217.24 C61.4,213.89 63.92,210.72 66.64,207.74 C70.16,207.53 73.67,207.18 77.19,206.89 C78.5,206.86 79.16,206.18 79.19,204.87 L79.19,204.87 Z" id="Shape" opacity="0.98" fill="#24342F"></path>
                </g>
                <g id="kon-outlined" transform="translate(5.000000, 0.000000)" fill="#0E0E0D" opacity="0.93" sketch:type="MSShapeGroup">
                    <path d="M73.29,4.74 C82.04,8.06 83.3600015,11 92.0000009,11 C94.6400003,15 96.2200024,22.84 96.6500024,24 C96.5500024,25.61 97.9400009,30.0300006 99.0000009,29.0300006 L103.03,41 C103.87,44.86 93.2600003,45.32 94.6400003,49 C94.6000003,69.27 83.7600031,54 83.7600031,90.0000038 C83.3100031,96.0700038 94.6400003,96.0000038 101.75,117.46 C103.11,121.96 103.44,126.97 106.77,130.61 C111.3,138.1 112.95,148.34 108.09,156.03 C104.52,157.55 100.81,158.81 97.43,160.74 C97.24,162.95 96.85,167.35 96.65,169.55 C105.71,168.08 115.21,166.74 124.07,169.85 C118.68,189.66 99.55,202.48 80.92,208.26 C80.97,207.48 81.09,205.94 81.15,205.17 C88.36,200.93 94.9,195.34 103.03,192.89 C111.67,189.33 118.11,181.56 119.34,172.15 C111.02,172.98 102.51,172.88 94.64,169.82 C89.53,169.37 84.93,172.98 80.04,173.99 C70.48,176.33 60.88,172.28 51.23,173.14 C51.75,172.47 52.27,171.8 52.79,171.14 C50.11,171.39 47.38,171.26 44.86,170.21 C35.99,167.13 25.61,164.74 16.76,169.02 C19.86,180.45 30.48,187.32 40.18,192.78 C48.59,197.41 57.6,200.8 66.25,204.94 C63.96,206.09 61.4,205.98 59.08,204.96 C45.04,199.54 31.16,192.36 20.97,181.03 C17.52,176.57 13.4,172.02 12.75,166.15 C27.7,161.36 43.46,164.85 57.02,171.82 C58.07,164.64 58.91,157.43 59.02,150.18 C56.77,149.72 54.53,149.17 52.3,148.59 C52.88,150.08 53.41,151.6 53.98,153.11 C40.12,152.14 26.25,151.1 12.45,149.61 C9.28,147.21 10.12,142.49 10.42,139.14 C8.79,137.54 6.08,139.02 4.01,138.56 C2.46,136.75 1.52,134.52 0.46,132.42 C11.84,137.19 24.93,135.02 36.93,136.78 C34.99,131.26 33.27,125.63 30.49,120.47 C21.42,119.42 12.26,118.89 3.28,117.15 L4.31,116.38 C13.71,115.53 23.16,115.97 32.58,116.18 C34.35,122.8 36.61,129.28 38.76,135.79 C41.26,136.32 43.85,137.03 46.38,137.61 C46.45,138.05 46.6,138.94 46.67,139.38 C43.64,139.68 40.65,140.07 37.63,140.41 C38.62,143.07 39.78,145.66 41.13,148.16 C43.75,148.08 48.99,147.93 51.61,147.86 C52.51,146.55 53.37,145.22 54.26,143.91 C51.75,140.97 48.21,138.26 47.66,134.2 C51.12,130.46 56.29,128.21 58.05,123.06 C62.05,116.65 59.27,108.84 60.96,101.88 C65.47,96.52 77.0000031,94.0600038 83.7600031,94.0000038 C85.6500031,95.6500038 82.14,98.8 83.76,100.77 C84.46,89.3 76.4700031,76.1100038 83.7600031,66.0000038 C86.9800031,62.0700038 94.8800003,64.6099986 94.6400003,59.1899986 C96.6500024,43.7200012 85.45,55.84 82.37,59.19 C82.42,56.89 82.46,54.59 82.5,52.29 C74.1,50.94 81.6300018,52.69 73.2900018,51 C77.6100018,53.47 63.6400009,50.2599998 68.0000009,52.6599998 C63.4700009,52.3999998 68.5200009,59.4799986 64.0000009,59.1899986 C66.9100009,60.3099986 53.92,52.81 46.25,52.66 C33.38,50.79 21.67,47.35 10.42,41 C8.01000004,42.51 5.27,42.21 2.87,43.72 C4.01,40.26 5.12,36.8 6.3,33.36 C10.88,19.43 21.19,6.84 35.65,2.62 C48,-0.26 61.4,0.14 73.29,4.74 Z M28.77,14.84 C27.18,16.35 24.87,16.63 22.89,17.37 C24.66,15.47 26.49,13.64 28.27,11.75 C21.18,10.84 17.93,18.58 19.02,24.34 C18.4,24.17 17.79,24.01 17.18,23.86 C15.24,26.52 12.62,28.78 11.46,31.94 C12.94,34.9 17,35.33 18.72,38.25 C21.11,41.77 25.77,41.06 29.16,42.98 C34.79,45.87 41,47.5 47.27,48.2 C51.25,48.48 59.4500009,54.2699996 63.0000009,52.9999996 C67.2400009,52.4399996 66.78,44.6 70.79,42.83 C70.18,43.89 69.58,44.95 69,46.02 C73.09,46.24 77.26,47.18 81.34,46.43 C82.98,44.96 84.24,43.13 85.68,41.48 C85.15,43.73 84.5,45.96 83.84,48.18 C85.51,48.65 87.23,48.91 88.96,48.9 C88.22,45.06 96.3100009,42.1499996 96.0000009,38.2499996 C96.9200009,34.4199996 92.1900009,19.6399996 90.0000009,15.9999996 C88.5900009,16.8799996 84.24,27.84 82.9,28.81 C82.81,25.98 86.2300012,20.1500005 85.6800012,17.3700005 C82.9500012,13.7900005 76.42,13.34 73.75,9.71 C70.67,9.66 57.8700009,14.08 55.0000009,13 C50.8600009,16.03 67.0800009,8.14999997 63.0000009,6.99999997 C55.3900009,6.32999997 36.83,7.46 29.52,9.17 C29.32,11.04 29.79,13.16 28.77,14.84 Z M64.78,103.82 C62.87,108.04 65.84,113.11 63.85,117.47 C60.84,124.31 60.05,131.77 59.68,139.16 C58.25,136.99 56.81,134.83 55.38,132.68 C54.49,134.35 53.58,136.02 52.72,137.72 C54.27,138.98 55.81,140.26 57.33,141.57 C57.43,143.13 57.54,144.69 57.7,146.24 C61.04,148.32 61.78,153.22 65.76,154.27 C72.77,156.52 79.5,160.11 87.08,159.93 C93.06,160.25 98.19,156.92 103.22,154.18 C106.61,152.33 106.85,147.79 106.45,144.44 C105.84,131.93 98.4,121.4 92.3,110.98 C92.49,106.79 91.55,102.75 89.02,99.32 C81.38,103.7 70.65,96.02 64.78,103.82 L64.78,103.82 Z M11.57,137.11 C13.09,140.7 14.35,145.91 19,146.34 C25.1,146.98 31.26,147.75 37.41,147.28 C36.75,144.26 37.67,140.24 34.66,138.32 C27.14,136.21 19.25,137.16 11.57,137.11 L11.57,137.11 Z M60.99,168.85 C70.84,169.47 80.85,170.55 90.67,168.85 C91.39,166.66 92.15,164.49 92.89,162.32 C82.35,163.52 72.04,161.19 62.13,157.9 C61.81,161.55 61.45,165.21 60.99,168.85 Z" id="Shape"></path>
                    <path d="M16.5,55.94 C19.13,53.1 22.63,51.31 26.52,51.12 C26.65,51.83 26.91,53.23 27.04,53.93 C23.62,55.01 20.11,55.84 16.5,55.94 L16.5,55.94 Z" id="Shape"></path>
                    <path d="M20.87,59.73 C22.45,59.97 24.03,60.2 25.6,60.55 C26.04,62.87 27.15,66.69 23.92,66.99 C20,67.66 21.14,62.28 20.87,59.73 L20.87,59.73 Z" id="Shape"></path>
                    <path d="M58.02,60.99 L63.16,61.02 C63.03,62.67 62.78,65.97 62.65,67.62 C61.1,67.8 59.56,68 58.02,68.19 L58.02,60.99 L58.02,60.99 Z" id="Shape"></path>
                    <path d="M47.67,85.66 C54.7,85.32 61.09,82.39 67.14,79.05 C66.23,82.16 65.77,85.93 62.69,87.72 C57.91,90.7 52.41,87.25 47.67,85.66 L47.67,85.66 Z" id="Shape"></path>
                    <path d="M83.87,113.7 C87.34,118.52 90.05,123.82 93.19,128.85 C96.77,134 95.56,140.65 96.26,146.59 C97.17,147.14 98.09,147.69 99.01,148.24 C98.46,143.97 97.96,139.71 97.46,135.45 C101.94,137.97 103.48,142.93 103.17,147.92 C100.8,149.68 97.97,150.51 95.11,151.05 C93.15,148.83 91.64,146.13 92.01,142.95 C90.77,132.81 85.54,123.71 83.87,113.7 L83.87,113.7 Z" id="Shape"></path>
                    <path d="M68.63,118.48 C73.27,117.96 77.92,117.74 82.59,117.78 C82.78,118.59 82.94,119.41 83.09,120.24 C82.56,120.34 81.52,120.56 81,120.67 C83.11,123.77 85.19,126.91 86.81,130.3 C79.15,131.05 71.44,131.16 63.75,130.89 C64.09,128.38 65.81,126.32 68.52,127.13 C68.3,125.21 68.08,123.29 67.83,121.38 C68.19,121.21 68.91,120.87 69.27,120.7 C69.07,119.95 68.85,119.21 68.63,118.48 L68.63,118.48 Z M74.33,119.32 C70.3,121.07 69.23,127.62 73.36,129.86 C77.48,131.87 80.74,127.6 80.97,124.11 C79.97,121.62 77.04,118.97 74.33,119.32 L74.33,119.32 Z" id="Shape"></path>
                    <path id="Shape" d="M105.25,119.4 C105.3,119.46 105.4,119.57 105.45,119.63 L105.25,119.4 L105.25,119.4 Z"></path>
                    <path d="M75.18,123.93 C75.8,124.07 77.05,124.34 77.67,124.48 C77.68,125.49 77.68,126.51 77.69,127.53 C76.41,127.74 75.14,127.95 73.87,128.17 C74.3,126.75 74.74,125.34 75.18,123.93 L75.18,123.93 Z" id="Shape"></path>
                    <path id="Shape" d="M105.27,127.27 C105.77,127.77 105.77,127.77 105.27,127.27 L105.27,127.27 Z"></path>
                    <path d="M63.49,134.6 C72,133.9 80.51,133.39 89.03,132.79 C87.83,133.64 86.67,134.55 85.46,135.39 C85.46,137.14 85.44,138.9 85.42,140.67 C79.68,134.51 70.68,137.38 63.49,134.6 L63.49,134.6 Z" id="Shape"></path>
                    <path d="M41.77,177.91 C48.1,179.78 54.13,182.48 60.34,184.67 C68.18,187.34 76.61,186.39 84.69,187.64 C77.95,188.7 70.73,190.18 64.1,187.81 C56.39,185.26 48.13,183.21 41.77,177.91 L41.77,177.91 Z" id="Shape"></path>
                    <path d="M44.71,184.75 C55.27,188.37 63.67,196.38 74.01,200.62 C78.17,197.64 82.27,194.46 87.06,192.56 C83.89,196.67 79.7,199.83 75.14,202.26 C78.09,207.68 81.86,212.98 82.23,219.34 C78.18,218.95 74.9,216.49 71.71,214.19 C66.48,217.15 60.58,218.28 54.6,218.08 C55.63,213.32 59.19,208.69 64.1,207.7 C66.99,208.39 69.81,209.71 72.86,209.05 C73.11,207.19 73.52,205.36 74.08,203.57 C70.3,202.55 66.81,200.73 63.8,198.23 C57.66,193.43 50.34,190.2 44.71,184.75 L44.71,184.75 Z M61.59,213.23 C64.14,212.76 66.41,211.52 68.32,209.8 C65.72,210.14 63.29,211.17 61.59,213.23 L61.59,213.23 Z" id="Shape"></path>
                </g>
            </g>
        </g>
    </g>
</svg>