<?xml version="1.0" encoding="UTF-8" standalone="no"?>
<svg width="737px" height="733px" viewBox="0 0 737 733" version="1.1" xmlns="http://www.w3.org/2000/svg" xmlns:xlink="http://www.w3.org/1999/xlink" xmlns:sketch="http://www.bohemiancoding.com/sketch/ns">
    <!-- Generator: Sketch 3.3.1 (12005) - http://www.bohemiancoding.com/sketch -->
    <title>love2d-game-maker-icon</title>
    <desc>Created with Sketch.</desc>
    <defs></defs>
    <g id="defs" stroke="none" stroke-width="1" fill="none" fill-rule="evenodd" sketch:type="MSPage">
        <g id="love2d-game-maker-icon" sketch:type="MSArtboardGroup" transform="translate(-2.000000, -4.000000)">
            <g sketch:type="MSLayerGroup" transform="translate(-44.000000, -4.000000)">
                <g id="love2d-game-maker-logo" transform="translate(386.387524, 374.000000) rotate(-13.000000) translate(-386.387524, -374.000000) translate(19.887524, 246.000000)">
                    <g id="love-logo" transform="translate(93.350757, 0.252570)" sketch:type="MSShapeGroup">
                        <ellipse id="Oval" fill="#1A1A1A" cx="83.8421841" cy="8.38868286" rx="7.27297982" ry="7.14918516"></ellipse>
                        <ellipse id="Oval" fill="#1A1A1A" cx="102.266824" cy="8.14918516" rx="7.27297982" ry="7.14918516"></ellipse>
                        <path d="M92.6715816,22.3803531 C52.461458,22.3803531 52.324726,83.1777387 92.4148454,83.1777387 C132.445326,83.1777387 133.037347,22.3803531 92.6715816,22.3803531" id="Shape"></path>
                        <path d="M92.6715816,18.8057606 C80.9904487,18.9215774 70.4511736,23.9503142 64.1353179,33.7582813 C58.5569424,42.4202341 57.508906,53.6594681 60.29373,63.4116715 C63.2465598,73.7501082 71.0853775,81.8594289 81.4537375,85.1902343 C92.7486751,88.8191607 105.901859,86.3905825 114.913808,78.8388982 C125.36799,70.0797165 128.427005,54.7625873 124.862518,42.1464203 C120.770012,27.6600264 107.671375,18.9537487 92.6715816,18.8057606 C87.9797823,18.7592909 87.9841461,25.908476 92.6715816,25.9549457 C103.318497,26.0600387 112.826463,31.2968169 116.88915,41.2513423 C120.528549,50.1692359 119.559788,60.5948926 114.322515,68.6892 C108.351399,77.9173682 96.5429887,81.1051899 86.0364421,78.9854565 C75.8011776,76.9200569 68.9434849,68.9816017 66.7172258,59.2129551 C64.9898931,51.6312442 66.5252191,43.4061067 70.7355471,36.8688918 C75.5153495,29.4473227 83.9912801,26.0407359 92.6715816,25.9549457 C97.3590171,25.908476 97.3641081,18.7592909 92.6715816,18.8057606 L92.6715816,18.8057606 L92.6715816,18.8057606 Z" id="Shape" fill="#1A1A1A"></path>
                        <path d="M130.475076,22.3803531 C165.906125,101.355972 167.8211,105.500354 206.143885,22.3803531" id="Shape"></path>
                        <path d="M127.335331,24.1848075 C134.307209,39.7242763 140.903802,55.6405073 149.432098,70.4407504 C153.243867,77.0573213 158.590961,86.0924615 167.225443,86.7416075 C175.639553,87.3743104 181.786676,77.5041453 185.51626,71.5889095 C194.926769,56.6642706 201.926284,40.1360694 209.284358,24.1855224 C211.205879,20.021122 204.938753,16.3836166 203.00414,20.5773286 C196.027898,35.7007149 189.239298,51.072178 180.767732,65.4642026 C178.462924,69.3790964 175.992293,73.2989946 172.786363,76.5711767 C171.664143,77.717906 170.93539,78.3041392 169.682256,79.0097637 C168.808771,79.5016277 168.180385,79.6224489 167.224716,79.5924223 C166.801428,79.5559615 166.820338,79.5631107 167.2829,79.6117251 C166.974525,79.5623957 166.674151,79.4737458 166.375232,79.3858109 C166.255228,79.3507799 165.827576,79.1791994 165.118461,78.7595422 C163.951875,78.068931 162.942385,77.0265798 161.822346,75.7912006 C158.748785,72.3996271 156.470161,68.2480953 154.270811,64.2838721 C146.456722,50.1978326 140.193232,35.2403074 133.614821,20.5773286 C131.726029,16.3657437 125.461084,20.0075386 127.335331,24.1848075 L127.335331,24.1848075 L127.335331,24.1848075 Z" id="Shape" fill="#1A1A1A"></path>
                        <path d="M242.886979,63.3802151 C284.450605,54.1305994 269.550451,24.8360982 245.239061,22.5240518 C220.927671,20.2120053 207.597027,46.421633 215.438754,64.9222944 C223.28048,83.4236706 238.966116,84.1950677 253.080788,82.6529885" id="Shape"></path>
                        <path d="M243.854286,66.8268373 C255.577602,64.1308796 271.175234,58.0576468 272.530918,44.359808 C273.527316,34.2887509 265.431035,25.8141068 256.697641,21.9063622 C244.015019,16.231339 229.10541,18.6141624 219.417801,28.5929951 C209.857469,38.4395678 206.794817,54.2228239 212.299736,66.7253189 C215.762401,74.5887076 221.512419,81.1716773 229.77307,84.315174 C237.197327,87.140532 245.281244,87.0504523 253.081515,86.2268662 C257.694039,85.7392917 257.742041,78.585817 253.081515,79.077681 C246.143093,79.8104725 239.153032,80.0313823 232.483709,77.7171911 C225.055088,75.1399098 220.071642,68.1051116 217.870838,60.950922 C214.032159,48.4713044 220.548749,32.8296022 233.019,27.71579 C243.087714,23.5878505 256.876556,26.7956899 263.073135,35.9452171 C269.696638,45.7245875 260.143579,53.7138019 251.314908,57.1725777 C248.27553,58.362917 245.100875,59.2015164 241.9204,59.933593 C237.354424,60.9830933 239.291218,67.8763377 243.854286,66.8268373 L243.854286,66.8268373 L243.854286,66.8268373 Z" id="Shape" fill="#1A1A1A"></path>
                        <path d="M8.59811674,21.8927787 C-5.84165739,61.7065909 17.8762571,90.9696356 53.3923995,81.7300287" id="Shape"></path>
                        <path d="M5.09108587,20.942652 C-0.872757578,37.7418073 -1.93533993,57.9568433 9.68979101,72.734209 C20.3563432,86.2926387 38.1773257,89.2423925 54.3582512,85.1766509 C58.8994998,84.0356409 56.9721601,77.1409667 52.4250931,78.2826916 C38.8340757,81.6971424 23.7346423,79.490189 14.9481554,67.7991265 C5.19290759,54.818351 7.00315227,37.2134825 12.1044203,22.8429054 C13.653565,18.4783279 6.62641191,16.6188248 5.09108587,20.942652 L5.09108587,20.942652 L5.09108587,20.942652 Z" id="Shape" fill="#1A1A1A"></path>
                        <path d="M265.841231,72.8678988 C269.530814,72.8678988 272.470552,75.8162227 272.470552,79.5023426 C272.470552,83.2470858 269.530814,86.1653832 265.811412,86.1653832 C262.121829,86.1653832 259.122452,83.2470858 259.122452,79.5023426 C259.122452,75.8162227 262.121829,72.8678988 265.811412,72.8678988 L265.841231,72.8678988 L265.841231,72.8678988 Z M265.811412,73.8995262 C262.841854,73.8995262 260.411952,76.4060305 260.411952,79.5023426 C260.411952,82.6565631 262.841854,85.1337557 265.841231,85.1337557 C268.841335,85.1630674 271.240691,82.6565631 271.240691,79.5316542 C271.240691,76.4060305 268.841335,73.8995262 265.841231,73.8995262 L265.811412,73.8995262 L265.811412,73.8995262 Z M264.551732,83.3643324 L263.352417,83.3643324 L263.352417,75.9634959 C263.982257,75.874846 264.581551,75.7861961 265.481946,75.7861961 C266.621622,75.7861961 267.372193,76.0221193 267.822391,76.3459773 C268.271861,76.6705503 268.511869,77.1717082 268.511869,77.8801925 C268.511869,78.8524817 267.85221,79.4430044 267.042,79.6789275 L267.042,79.7382657 C267.701659,79.8555123 268.151129,80.4453201 268.300953,81.5370007 C268.481323,82.6865897 268.660965,83.1291242 268.78097,83.3650473 L267.521289,83.3650473 C267.341647,83.1291242 267.162004,82.4513815 267.011454,81.4783774 C266.831811,80.5346849 266.351794,80.1808003 265.391761,80.1808003 L264.551732,80.1808003 L264.551732,83.3643324 L264.551732,83.3643324 Z M264.551732,79.2664195 L265.42158,79.2664195 C266.411433,79.2664195 267.251462,78.9125348 267.251462,77.9988689 C267.251462,77.3497229 266.772172,76.7020068 265.42158,76.7020068 C265.031748,76.7020068 264.761921,76.7313184 264.551732,76.7606301 L264.551732,79.2664195 L264.551732,79.2664195 Z" id="Shape" fill="#1A1A1A"></path>
                    </g>
                    <text id="documentation,-on-bo" sketch:type="MSTextLayer" font-family="Giro" font-size="20" font-weight="normal" sketch:alignment="right" fill="#25AAE1">
                        <tspan x="186.492957" y="220.771913">documentation, on-boarding and assets generation panel</tspan>
                        <tspan x="483.532957" y="244.771913">for love2d game maker</tspan>
                    </text>
                    <text id="gameMaker" sketch:type="MSTextLayer" font-family="Carmen" font-size="132" font-weight="normal" sketch:alignment="middle" text-decoration="underline" fill="#1C4E68">
                        <tspan x="17.6216797" y="163.50514">gameMaker</tspan>
                    </text>
                </g>
                <g id="Rectangle-1-Copy-+-Rectangle-1-Copy-2-+-Rectangle-1" transform="translate(37.000000, 0.000000)" stroke-width="12" sketch:type="MSShapeGroup">
                    <rect id="Rectangle-1-Copy" stroke="#EA316E" fill="#25B786" transform="translate(363.268975, 374.000000) rotate(-66.000000) translate(-363.268975, -374.000000) " x="88.018975" y="106.57238" width="550.5" height="534.85524" rx="22"></rect>
                    <rect id="Rectangle-1-Copy-2" stroke="#25AAE1" fill="#EA316E" transform="translate(377.250000, 374.427620) rotate(-33.000000) translate(-377.250000, -374.427620) " x="102" y="107" width="550.5" height="534.85524" rx="22"></rect>
                    <rect id="Rectangle-1" stroke="#EA316E" fill="#AEE7FF" x="101.75" y="106.57238" width="550.5" height="534.85524" rx="22"></rect>
                </g>
            </g>
        </g>
    </g>
</svg>