<?xml version="1.0" encoding="UTF-8" standalone="no"?>
<svg width="163px" height="430px" viewBox="0 0 163 430" version="1.1" xmlns="http://www.w3.org/2000/svg" xmlns:xlink="http://www.w3.org/1999/xlink" xmlns:sketch="http://www.bohemiancoding.com/sketch/ns">
    <!-- Generator: Sketch 3.3.1 (12005) - http://www.bohemiancoding.com/sketch -->
    <title>raf_sprite</title>
    <desc>Created with Sketch.</desc>
    <defs></defs>
    <g id="defs" stroke="none" stroke-width="1" fill="none" fill-rule="evenodd" sketch:type="MSPage">
        <g id="raf-col-outlined" sketch:type="MSArtboardGroup" transform="translate(0.000000, 0.500000)">
            <g id="raf" sketch:type="MSLayerGroup">
                <g id="raf-col" sketch:type="MSShapeGroup">
                    <path d="M34.9999999,11.9999998 C48.2899999,9.61999977 57.8499999,-2.14000003 70.9999999,0.999999974 C77.5599999,2.50999997 90.9000018,8.00000018 107,44.0000009 C111,60.0000009 111.556458,60.7479715 107,71.0000009 C103,80.0000009 107.446817,98.7319858 82.0000003,109.000001 C79.8300003,107.660001 93.21,58.79 90.9,57.73 C90.93,49.29 90.88,40.79 89.49,32.45 C76.78,36.22 63.16,41.62 49.79,38.07 C44.64,34.75 30.9699998,61.5900009 24.9999998,64.0000009 C25.6599998,59.1100009 8.00000065,55.9300012 25.0000003,46.0000009 C26.7000003,42.5000009 -5.0835964,33.7119395 1.99999992,26.0000009 C9.08359623,18.2880623 34.9999999,11.9999998 34.9999999,11.9999998 Z" id="Shape" opacity="0.98" fill="#24342F"></path>
                    <path d="M121.82,240.7 C123.17,240.9 124.01,241.66 124.32,243.01 C122.82,242.95 121.99,242.18 121.82,240.7 L121.82,240.7 Z" id="Shape" opacity="0.98" fill="#24342F"></path>
                    <path d="M31.58,249.52 C37.09,248.28 42.77,248.67 48.34,249.39 C58.55,250.1 68.81,250.56 78.97,251.98 C78.5,254.25 78.03,256.52 77.76,258.82 C74.62,309.35 75.72,360.33 84.28,410.31 C80.33,412.61 72.84,412.59 72,407.04 C68.64,387.5 66.26,367.77 64.89,348 C61.77,319.49 63.5,290.72 62.94,262.11 C57.34,262 51.76,261.1 46.17,261.38 C45.25,262.13 44.73,263.25 44.59,264.41 C41.1,301.33 41.69,338.52 44.39,375.48 C45.14,386.92 47.39,398.25 47.66,409.73 C46.45,412.83 42.29,410.69 39.81,410.28 C36.72,409.62 35.82,406.31 35.34,403.63 C31.42,381.58 30.35,359.13 29.69,336.78 C30.48,307.7 29.04,278.55 31.58,249.52 L31.58,249.52 Z M66.98,259.62 C67.7,259.73 69.13,259.96 69.85,260.07 C70.31,259.03 70.77,257.99 71.24,256.94 C69.81,257.09 68.38,257.24 66.97,257.39 C65.2,256.76 65.22,260.27 66.98,259.62 L66.98,259.62 Z" id="Shape" opacity="0.98" fill="#24342F"></path>
                    <path d="M1.97,255.55 C2.5,255.47 3.57,255.32 4.1,255.24 C3.99,255.61 3.77,256.36 3.67,256.73 C3.24,256.44 2.4,255.85 1.97,255.55 L1.97,255.55 Z" id="Shape" opacity="0.98" fill="#24342F"></path>
                    <path d="M7.3,256.13 C7.48,254.29 9.9,254.34 10.83,255.56 C9.72,256.33 8.55,256.52 7.3,256.13 L7.3,256.13 Z" id="Shape" opacity="0.98" fill="#24342F"></path>
                    <path d="M11.62,256.18 C12.04,255.83 12.9,255.15 13.33,254.8 C13.23,255.35 13.03,256.45 12.93,257 C12.6,256.79 11.95,256.38 11.62,256.18 L11.62,256.18 Z" id="Shape" opacity="0.98" fill="#24342F"></path>
                    <path d="M49.79,38.07 C63.16,41.62 76.78,36.22 89.49,32.45 C90.88,40.79 90.93,49.29 90.9,57.73 C90.56,63.79 89.64,69.8 88.98,75.82 C91.03,76.69 93.08,77.55 95.13,78.41 C93.82,87.93 87.28,95.38 82.51,103.36 C79.89,110.09 79.5500012,121.960003 78.0000012,129.000003 C73.6400012,129.390003 68.17,125.05 63.82,125.35 C63.41,125.37 62.58,125.41 62.16,125.43 C62.48,121.18 62.76,116.94 63.06,112.69 C55.96,112.3 47.89,115.79 41.35,112.62 C40.93,111.69 40.26,111.05 39.32,110.67 C31.88,101.02 28.87,87.91 29.1,75.8 C29.34,74.81 29.19,73.88 28.64,73.01 C26.28,67.72 25.52,61.93 24.78,56.24 C31.89,51.51 31.75,42.37 32.91,34.77 C38.88,32.36 44.64,34.75 49.79,38.07 Z M78.92,57.17 C79.72,55.83 80.52,54.49 81.31,53.14 C77.41,50.61 72.92,48.26 68.15,49.78 C71.01,53.18 75.11,55.04 78.92,57.17 Z" id="Shape" opacity="0.97" fill="#F9DF94"></path>
                    <path d="M109.25,239.84 C112.29,239.75 115.61,238.55 118.65,239.62 C119.7,239.96 120.76,240.33 121.82,240.7 C121.99,242.18 122.82,242.95 124.32,243.01 C125.78,244.6 127.22,246.22 128.66,247.85 C124.14,251.09 119.74,254.86 117.72,260.2 C115.78,259.73 113.83,259.27 111.88,258.86 C110.34,256.22 108.1,253.91 107.27,250.94 C107.34,247.17 108.65,243.55 109.25,239.84 L109.25,239.84 Z" id="Shape" opacity="0.97" fill="#F9DF94"></path>
                    <path d="M4.1,255.24 C4.9,255.46 6.5,255.91 7.3,256.13 C8.55,256.52 9.72,256.33 10.83,255.56 L11.62,256.18 C11.95,256.38 12.6,256.79 12.93,257 C17.57,258.85 20.94,262.76 21.52,267.8 C19.15,267.35 16.79,266.72 14.37,266.73 C14.7,268.27 15.18,269.78 15.59,271.31 C15.75,272.35 16.33,273.07 17.34,273.47 C18.51,274.17 19.64,274.95 20.79,275.72 C16.88,278.2 12.85,280.48 8.56,282.24 C8.5,281.85 8.37,281.09 8.31,280.7 C8.19,279.64 7.59,278.95 6.51,278.65 C1.92,273.19 2.08,263.68 3.67,256.73 C3.77,256.36 3.99,255.61 4.1,255.24 L4.1,255.24 Z" id="Shape" opacity="0.97" fill="#F9DF94"></path>
                    <path d="M66.97,257.39 C68.38,257.24 69.81,257.09 71.24,256.94 C70.77,257.99 70.31,259.03 69.85,260.07 C69.13,259.96 67.7,259.73 66.98,259.62 C66.98,259.06 66.97,257.95 66.97,257.39 L66.97,257.39 Z" id="Shape" opacity="0.97" fill="#72493C"></path>
                    <path d="M116.11,294.31 C117.44,293.49 118.79,292.69 120.13,291.88 C122.43,330.99 126.76,369.95 129.22,409.04 C127.69,409.69 126.17,410.36 124.66,411.03 C124.49,397.29 121.41,383.6 122,369.88 C122.25,368.89 122.11,367.95 121.57,367.09 C120.37,359.1 119.68,350.94 120.05,342.86 C120.26,341.85 120.08,340.93 119.5,340.09 C118.77,336.39 118.71,332.59 119.04,328.86 C119.26,327.86 119.08,326.93 118.51,326.08 C117.66,322.74 117.76,319.26 118.04,315.87 C118.28,314.87 118.13,313.94 117.6,313.07 C116.54,306.87 116.41,300.57 116.11,294.31 L116.11,294.31 Z" id="Shape" opacity="0.97" fill="#72493C"></path>
                    <path d="M111.88,258.86 C113.83,259.27 115.78,259.73 117.72,260.2 C117.8,263.56 118.06,266.95 117.96,270.32 C117.79,271.5 118.01,272.67 118.42,273.77 C119,275.83 119.17,278 118.99,280.14 C118.77,281.13 118.93,282.06 119.49,282.93 C119.92,285.86 119.9,288.91 120.13,291.88 C118.79,292.69 117.44,293.49 116.11,294.31 C115.37,289.15 114.26,284.03 114.1,278.82 C114.22,277.81 113.99,276.89 113.41,276.07 C112.89,273.34 112.76,270.6 113,267.85 C113.22,266.85 113.06,265.92 112.53,265.06 C112.04,263.02 112.02,260.92 111.88,258.86 L111.88,258.86 Z" id="Shape" opacity="0.97" fill="#938E4F"></path>
                    <path d="M132.29,412.92 C140.09,411.23 147.26,407.09 155.42,406.64 L155.78,407.42 C156.2,408.71 157.29,409.55 158.34,410.34 C162.16,413.09 161.58,418.28 162.37,422.41 C161.96,422.48 161.14,422.62 160.73,422.69 C159.67,422.82 158.97,423.41 158.61,424.47 C155.99,427.84 150.97,427.84 147.18,428.58 C143.65,428.52 140.18,428.51 136.68,428.32 C134.54,428.03 132.66,426.83 131.23,425.27 C130.11,424.05 128.95,422.88 127.74,421.77 C124.77,419.07 125.38,414.63 124.66,411.03 C126.17,410.36 127.69,409.69 129.22,409.04 C130.2,410.36 131.15,411.72 132.29,412.92 L132.29,412.92 Z M142.04,413.1 C146.21,416.78 152.67,419.62 158.04,417.85 C157.65,415.75 156.95,413.73 156.24,411.73 C151.49,412.12 146.75,412.51 142.04,413.1 L142.04,413.1 Z M130.47,419.12 C134.21,422.73 138.75,425.32 143.85,426.38 C144.32,425.23 144.79,424.08 145.28,422.94 C140.61,420.79 135.66,419.24 130.47,419.12 L130.47,419.12 Z" id="Shape" opacity="0.97" fill="#938E4F"></path>
                    <path d="M68.15,49.78 C72.92,48.26 77.41,50.61 81.31,53.14 C80.52,54.49 79.72,55.83 78.92,57.17 C75.11,55.04 71.01,53.18 68.15,49.78 L68.15,49.78 Z" id="Shape" fill="#293834"></path>
                    <path d="M90.9,57.73 C93.21,58.79 95.52,59.87 97.69,61.21 C99.38,62.61 100.69,64.39 102.09,66.07 C99.71,70.15 97.13,74.12 95.13,78.41 C93.08,77.55 91.03,76.69 88.98,75.82 C89.64,69.8 90.56,63.79 90.9,57.73 L90.9,57.73 Z" id="Shape" fill="#F9DF94"></path>
                    <path d="M66.98,259.62 C65.22,260.27 65.2,256.76 66.97,257.39 C66.97,257.95 66.98,259.06 66.98,259.62 L66.98,259.62 Z" id="Shape" fill="#402014"></path>
                    <path d="M142.04,413.1 C146.75,412.51 151.49,412.12 156.24,411.73 C156.95,413.73 157.65,415.75 158.04,417.85 C152.67,419.62 146.21,416.78 142.04,413.1 L142.04,413.1 Z" id="Shape" fill="#F9DF94"></path>
                    <path d="M130.47,419.12 C135.66,419.24 140.61,420.79 145.28,422.94 C144.79,424.08 144.32,425.23 143.85,426.38 C138.75,425.32 134.21,422.73 130.47,419.12 L130.47,419.12 Z" id="Shape" fill="#F9DF94"></path>
                    <path d="M62.16,125.43 C62.58,125.41 63.41,125.37 63.82,125.35 C68.16,125.48 72.49,125.88 76.84,126.19 C79.56,126.44 82.3,126.78 85.04,127.07 C85.33,128.43 85.64,129.78 85.9,131.15 C86,132.24 86.6,132.91 87.71,133.16 C96.84,137.59 106.05,142.65 113.65,149.4 C114.1,150.31 114.82,150.91 115.81,151.19 C133.04,164.52 146.07,185.57 145.08,208.01 C145.45,218.55 141.29,228.6 136.98,238 C135.65,240.46 134.52,243.61 131.79,244.83 C130.71,244.95 129.94,245.48 129.49,246.42 C129.28,246.77 128.87,247.49 128.66,247.85 C127.22,246.22 125.78,244.6 124.32,243.01 C124.01,241.66 123.17,240.9 121.82,240.7 C120.76,240.33 119.7,239.96 118.65,239.62 C127.76,226.52 134.32,209.95 129.12,193.94 C127.91,186.23 122.52,180.52 119.27,173.75 C119,172.76 118.4,172.04 117.48,171.6 C113.39,168.36 109.49,164.75 106.39,160.54 C105.96,159.59 105.25,158.99 104.26,158.72 C100.14,156.87 96.48,154.15 92.65,151.79 C88.95,164.57 90.84,178.22 87.41,191.01 C86.87,191.88 86.72,192.82 86.96,193.82 C87.24,200.03 86.98,206.34 85.42,212.4 C85.05,213.73 84.86,215.11 84.97,216.5 C85.21,219.39 85.07,222.24 84.53,225.05 C83.93,225.89 83.74,226.82 83.95,227.82 C84.16,234.83 84.32,241.96 82.82,248.86 C82.34,250.53 80.91,252.4 78.97,251.98 C68.81,250.56 58.55,250.1 48.34,249.39 C42.77,248.67 37.09,248.28 31.58,249.52 L30.42,249.72 C27.68,237.45 30.19,224.94 30.46,212.58 C30.96,206.73 30.32,200.73 31.52,194.96 C32.08,194.11 32.26,193.18 32.06,192.18 C30.59,180.16 34.85,168.18 33.1,156.23 C22.26,170.31 19.23,188.18 15.4,205 C14.85,205.87 14.71,206.81 14.95,207.8 C15.1,211.21 15.48,214.75 14.66,218.12 C13.44,218.7 13.42,220.28 14.67,220.84 C15.24,230.2 15.12,239.59 15.42,248.97 C15.41,251.05 15.77,253.9 13.33,254.8 C12.9,255.15 12.04,255.83 11.62,256.18 L10.83,255.56 C9.9,254.34 7.48,254.29 7.3,256.13 C6.5,255.91 4.9,255.46 4.1,255.24 C3.57,255.32 2.5,255.47 1.97,255.55 C1.13,247.49 0.79,239.37 0.95,231.27 C0.96,229.88 0.98,227.11 0.99,225.73 C0.44,201.94 5.28,177.73 16.71,156.74 C18.75,153.51 20.38,149.81 23.43,147.37 C24.32,146.89 24.91,146.16 25.18,145.18 C30.33,137.66 38.42,130.76 48.05,131.01 C49.14,131.03 49.85,130.49 50.16,129.38 C51.61,124.16 58.24,126.44 62.16,125.43 L62.16,125.43 Z" id="Shape" fill="#13886E"></path>
                </g>
                <g id="raf-outlined" transform="translate(0.000000, 1.000000)" fill="#0E0E0D" opacity="0.93" sketch:type="MSShapeGroup">
                    <path d="M43.9999984,8.00000001 C57.2799984,5.50000001 67.3000015,-8.0000003 85.3300003,10.0000001 C91.7804119,16.4396795 98.4599984,22.0200006 99.9999984,29.0000006 C103.449998,39.3000006 111.320001,43.9700006 108.800001,54.0000006 C110.590002,59.0000006 108.029998,66.7800006 105.999998,70.0000006 C105.999998,87.0000006 98.0299972,102 85.3300003,106 C77.9999984,111.790001 81.6099984,113.730001 77.9999984,124.540001 C80.7399984,124.610001 84.13,126.01 86.87,126.08 C86.36,127.86 85.86,129.65 85.33,131.42 C96.93,135.02 106.59,142.63 116,150.01 C130.15,161.47 141.19,177.52 144.4,195.64 C146.93,211.01 143.1,226.92 135.1,240.11 C131.33,247.04 122.3,248.65 118.77,255.83 C115.94,259.13 118.26,263.35 118.59,267.11 C120.09,309.47 125.3,351.62 128.14,393.9 C128.96,400.38 127.76,407.76 132.1,413.21 C139.4,410.09 146.56,405.28 154.88,406.07 C160.43,407.42 162.25,414.94 161.95,419.89 C160.52,425.83 152.47,426.43 147.59,427.61 C138.66,430.23 126.78,425.56 125.52,415.54 C121.93,375.04 119.6,334.41 116.28,293.88 C114.73,278.93 111,264.08 111.21,249.01 C110.18,250.45 109.07,251.84 107.88,253.15 C106.83,248.5 109.77,243.85 108.37,239.2 C112.16,238.73 115.93,238.22 119.73,237.73 C124.86,228.09 131,218.27 130.96,206.94 C132.24,189.24 121.35,173.55 108.8,162.21 C103.98,156.73 96.06,154.55 92.66,147.82 C105.87,149.97 113.52,162.75 122.72,171.21 C122.55,169.35 122.39,167.49 122.28,165.63 C130.57,179.59 138.46,195.45 136.2,212.19 C135.5,211.11 134.81,210.03 134.13,208.95 C133.65,218.14 130.33,226.96 125.93,234.96 C123.11,241.54 114.97,240.24 110.59,245.03 C111.43,246.56 112.15,248.16 112.74,249.81 C113.87,249.29 114.99,248.75 116.13,248.23 C115.39,250.91 114.6,253.55 113.97,256.27 C115.78,254.09 117.63,251.94 119.59,249.89 C119.22,248.77 118.89,247.66 118.52,246.56 C123.02,248.91 125.16,243.4 127.49,240.59 C130.87,236.5 132.04,230.99 135.84,227.22 C141.83,214.03 141.89,198.6 136.95,185.09 C132.97,176.92 128.51,168.93 122.54,162.02 C121.84,163.32 121.16,164.61 120.47,165.91 C119.8,165.25 119.13,164.6 118.46,163.96 C119.62,162.53 120.71,161.03 121.85,159.57 C120.61,159.9 119.41,160.31 118.18,160.65 C112.9,153.55 105.79,148.22 98.03,144.05 C92.18,139.1 83.04,137.84 79.5,130.41 C76.15,130.67 78.7300012,129.26 75.6200012,128 C77.0600012,126.63 74.1700012,125.900001 75.6200012,124.540001 C75.0500012,124.420001 76.2000012,121.12 75.6200012,121 C76.9000012,116.92 76.3599984,117.320001 77.9999984,113.360001 C77.4399984,112.760001 74.48,110.88 73.91,110.3 C71.68,111.25 69.15,111.73 67.3,113.36 C65.59,117.95 61.5199989,124.540001 65.9999984,128 C62.4899984,128.92 56.42,129.28 53.36,131.34 C49.25,134.25 43.78,133.82 39.59,136.56 C28.26,143.98 21.19,156.14 14.95,167.82 C11.94,176.6 8.96,185.44 7.7,194.68 C5.3,212.25 2.73,230.11 5.45,247.81 C6.63,254.1 5.92,260.51 6.21,266.86 C6.85,271.97 9.1,276.7 10.97,281.46 C5.24,278.75 3.04,271.89 3.21,265.95 C1.13,242.16 -1.15,217.97 3.4,194.33 C6.82,176.79 12.88,159.32 24.2,145.23 C30.55,136.96 38.87,128.1 50.47,129.67 C50.42,128.21 50.4,126.75 50.37,125.3 C54.07,125.02 57.79,124.76 61.52,124.54 C62.48,120.06 63.27,115.56 64.13,111.06 C56.2,111.35 48.07,114.16 40.24,111.79 C35.86,105.52 32.7,98.45 31.15,90.96 C28.52,82.09 30,72.42 26.37,63.81 C24.87,60.3 17.5300003,54.7199987 18.0000003,50.9999987 C21.0000003,46.9999987 22.7499992,46.1299987 24.1999992,45.9999987 C26.1799992,35.5399987 -0.860000013,36.2600007 1.99999999,26.0000007 C3.15999999,21.5500007 27.15,13.9300002 31.15,13.0000002 L43.9999984,8.00000001 Z M34.0700001,34.0000001 C32.0400001,39.0400001 34.65,39.84 33.21,45.06 C36.78,44.73 40.37,44.33 43.96,43.99 L46.0000004,49.9999997 C42.3500004,50.2199997 37.5700001,47.5800002 34.0700001,48.4400002 C32.3800001,50.8200002 29.91,55.07 29.35,57.97 C29.02,61.84 31.34,65.27 31.76,69.05 C32.51,76.66 33,84.3 34.07,91.88 C36.69,90.64 36.63,92.03 35.99,94.15 C35.49,100.14 39.72,104.71 43.24,108.97 C48.9707217,108.117848 51.0000004,113 75.49,108.81 C77.71,103.7 79.01,98.02 82.72,93.71 C86.94,89.17 89.52,83.42 91.57,77.66 C91.11,76.16 89.98,74.96 89.18,73.64 C90.1,67.36 91.22,61.05 90.47,54.68 C89.69,46.42 94.55,37.19 88.3,30.18 C76.47,36.05 63.11,40.33 49.85,37.18 C45.32,35.77 42.0100004,34.3300001 38.0000004,32.0000001 L34.0700001,34.0000001 Z M94.04,72.4 C96.97,69.97 98.59,66.43 97.85,62.44 C95.54,65.29 94.46,68.8 94.04,72.4 L94.04,72.4 Z M139.73,411.35 C145.05,416.88 152.91,419.08 160.42,419.04 C159.49,416.01 158.96,412.68 156.77,410.25 C151.48,407.32 145.13,409.82 139.73,411.35 L139.73,411.35 Z M129.59,416.89 C130.51,419.3 131.12,422.14 133.38,423.72 C139.6,426.44 147.74,427.37 153.56,423.21 C145.63,420.91 137.9,417.55 129.59,416.89 L129.59,416.89 Z" id="Shape"></path>
                    <path d="M68.83,46.78 C73.56,48.81 81.73,49.34 81.3,56.07 C76.63,53.85 67.95,53.98 68.83,46.78 L68.83,46.78 Z" id="Shape"></path>
                    <path d="M35.26,55.1 C39.65,53.23 41.13,61.6 36.92,61.99 C33.26,62.74 32.34,56.66 35.26,55.1 L35.26,55.1 Z" id="Shape"></path>
                    <path d="M70.4,66.45 C69.9,64.09 68.86,60.31 72.08,60.01 C76,59.34 74.82,64.7 75.13,67.27 C73.54,67.03 71.96,66.8 70.4,66.45 L70.4,66.45 Z" id="Shape"></path>
                    <path d="M37.82,93.08 C46.59,94.69 55.79,97.18 64.63,94.56 C60,98.5 54.19,101.04 48.03,100.95 C44.77,99.82 41.7,98.21 38.48,96.99 L37.82,93.08 L37.82,93.08 Z" id="Shape"></path>
                    <path d="M91.57,148.32 C91.21,153.71 91.27,159.14 90.59,164.52 C87.12,193 84.91,221.6 82.65,250.2 C81.19,250.32 79.72,250.43 78.26,250.55 C74.54,305.37 74.49,361.13 86.07,415.06 C82.06,412.03 77.42,409.95 72.37,409.42 C70.51,398.71 69.95,387.84 67.82,377.16 C63.37,340.17 62.13,302.79 63.42,265.57 C63.54,264.23 63.65,262.9 63.76,261.58 C57.36,260.87 50.95,260.44 44.52,260.31 C44.29,262.4 44.04,264.48 43.72,266.55 C43.66,267 43.53,267.9 43.47,268.34 C41.31,275.23 43.29,282.2 42.76,288.92 C41.2,314.95 41.86,341.08 43.67,367.09 C43.97,375.79 46.81,384.45 44.6,393.15 C47.73,399.17 47.83,406.19 48.89,412.8 C47.07,413.09 45.27,413.43 43.48,413.79 C43.93,412.55 44.29,411.27 44.77,410.04 C42.24,409.59 39.66,409.08 37.17,408.62 C31.02,384.95 30.66,360.3 29.95,336 C30.39,309.67 28.97,283.28 31.26,257.01 C32.92,250.13 28.47,243.91 29.24,237.12 C30.52,209.28 31.92,181.44 33.88,153.64 C19.89,172.55 15.68,196.68 14.63,219.69 C13.56,230.61 15.14,241.48 15.59,252.38 C14.42,253.16 13.22,253.91 12.04,254.69 C13.67,257.29 16.52,258.52 19.01,260.11 C21.53,261.88 21.44,265.31 21.82,268.05 C18.54,267.32 18,262.190004 15.59,260.110004 C14.13,265.850004 16.94,271.75 20.97,274.52 C20.02,275.41 19.06,276.31 18.13,277.22 C15,273.85 10.67,270.36 12.33,265.02 C12.46,259.93 10.15,255.06 11.49,249.96 C10.36,243.33 10.3,221.77 10.11,216.9 C9.28,217.97 13.82,192.32 17.51,178.55 C20.18,167.86 25.81,158.09 33.56,150.28 C34.71,152.59 35.99,154.84 37.26,157.1 C41.76,156.1 45.35,159.61 49.62,160.27 C57.16,160.83 64.85,159.67 72.28,161.43 C74.42,162.06 75.62,159.67 76.98,158.47 C79.15,160.78 81.97,162.27 84.95,163.28 C86.31,158.28 87.61,153.19 87.39,147.95 C88.78,148.06 90.17,148.18 91.57,148.32 Z M41.59,166.13 C40.06,163.65 37.11,163.5 35.37,165.86 C37.06,167.61 38.94,169.18 40.96,170.55 C42.55,169.79 44.06,168.39 45.95,168.64 C51.71,169.57 57.18,166.85 62.87,166.4 C62.75,167.26 62.62,168.12 62.5,168.98 C70.41,168.62 80.45,172.6 86.55,165.63 C84.7,165.07 82.81,164.58 80.87,164.61 C74.27,164.67 67.75,163.15 61.16,163.91 C54.56,163.49 47.84,163.67 41.59,166.13 L41.59,166.13 Z M37.11,172.4 C35.59,177.98 34.88,183.78 35.24,189.57 C35.64,208.93 33.54,226.629998 34,245.999998 C48.21,247.389998 60.7400015,249.509998 75.0500015,248.999998 C80.9900015,233.209998 80.41,216.65 80.74,200.11 C81.51,200.69 82.3,201.26 83.1,201.84 C83.23,191.62 84.79,181.48 84.68,171.26 C81.47,171.93 78.29,172.85 75.05,173.28 C68.49,173.55 62.11,171.14 55.54,171.73 C49.44,172.69 43.25,172.9 37.11,172.4 Z M33.72,257.23 C39.17,258.44 41.37,253.86 42.36,249.77 C38.78,251.36 36.2,254.32 33.72,257.23 L33.72,257.23 Z M35.46,262.42 C36.04,277.23 31.27,292.330001 34,307.000001 C31.16,319.940001 34.02,334.020003 34,347.150003 C33.76,358.900003 37.28,392.390001 39.19,404.000001 C39.5,405.160001 42.3200004,407.020001 43.0000004,408.000001 C43.9600004,395.450001 39.9899998,359.640003 39.1899998,347.150003 C39.6499998,333.170003 38.1400002,318.990001 38.0000002,305.000001 C39.5000002,291.830001 37.7299997,281.289999 39.1899997,267.999999 C39.8899997,264.599999 41.47,258.32 44.24,256.14 C50.66,255.76 57.1,256.41 63.5,256.99 C63.42,256 63.34,255.02 63.26,254.03 C65.14,256.09 67.1,258.09 69.11,260.05 C70.94,259.85 72.72,259.33 74.51,258.89 C71.09,256.03 67.24,253.66 63.16,251.9 C57.14,250.34 50.79,251.66 44.69,251.35 C42.06,255.39 39.17,259.31 35.46,262.42 Z M75,404.999995 C75.76,404.189995 80.6100002,409.019995 81.0000002,407.999995 C78.0000002,386.000003 70.7599999,343.000003 72.21,271.91 C71.43,272.95 72.9700002,265.96 72.2100002,267 C72.4700002,263.12 70.43,267.3 70.76,263.42 C69.84,262.9 68.92,262.39 68.01,261.88 C68.11,288.44 63.9999998,322.999999 75,404.999995 Z" id="Shape"></path>
                    <path d="M8.19,271.46 C11.5,273.4 15.13,275.45 16.4,279.31 C11.83,279.26 10.2,274.8 8.19,271.46 L8.19,271.46 Z" id="Shape"></path>
                    <path d="M36.49,411.01 C39.26,411.98 41.71,413.65 43.51,415.99 C40.74,415.01 38.28,413.35 36.49,411.01 L36.49,411.01 Z" id="Shape"></path>
                    <path d="M24.6,418.93 C26.47,415.56 29.21,411.54 33.94,413.03 C36.83,413.11 38.5,415.88 40.5,417.59 C35.22,418.25 29.9,418.61 24.6,418.93 L24.6,418.93 Z" id="Shape"></path>
                    <path d="M61.52,420.01 C63.85,412.86 73.51,413.73 77.43,419.02 C72.15,419.72 66.83,420.03 61.52,420.01 L61.52,420.01 Z" id="Shape"></path>
                </g>
            </g>
        </g>
    </g>
</svg>