<?xml version="1.0" encoding="UTF-8" standalone="no"?>
<svg width="137px" height="361px" viewBox="0 0 137 361" version="1.1" xmlns="http://www.w3.org/2000/svg" xmlns:xlink="http://www.w3.org/1999/xlink" xmlns:sketch="http://www.bohemiancoding.com/sketch/ns">
    <!-- Generator: Sketch 3.3.1 (12005) - http://www.bohemiancoding.com/sketch -->
    <title>tilley_sprite</title>
    <desc>Created with Sketch.</desc>
    <defs></defs>
    <g id="defs" stroke="none" stroke-width="1" fill="none" fill-rule="evenodd" sketch:type="MSPage">
        <g id="tilley-col-outlined" sketch:type="MSArtboardGroup">
            <g id="tilley" sketch:type="MSLayerGroup">
                <g id="tilley-col" sketch:type="MSShapeGroup">
                    <path d="M71.01,0.24 C80.66,0.93 90.68,3.4 98.17,9.86 C105.79,16.93 107.26,27.52 109.95,37.04 C117.76,36.88 128.93,33.96 134.64,41.33 C139.27,53.29 134.05,66.61 127.19,76.63 C126.53,71.23 126.07,65.81 125.35,60.43 C124.17,52.72 117.56,46.39 109.84,45.32 C109.69,47.38 109.54,49.43 109.37,51.48 C109.05,51.24 108.42,50.74 108.1,50.49 C106.71,49.08 104.63,49.71 103.02,50.27 C100.13,49.87 65.8899998,42.4300002 62.9999998,42.0800002 C57.0699998,40.4800002 59.49,37.14 58.58,36.47 C59.19,35.06 51.42,39.57 51.37,40.12 C50.05,40.01 49.23,40.66 48.92,42.08 C45.08,44.71 41.24,47.32 37.43,49.98 C35.61,44.34 31.37,38.88 32.61,32.64 C34.11,24.26 38.44,16.45 44.37,10.39 C51.81,4.25 61.42,0.83 71.01,0.24 Z" id="Shape" opacity="0.97" fill="#72493C"></path>
                    <path d="M104.93,100.94 C105.63,105.35 105.6,109.84 105.81,114.3 C105.65,109.84 105.3,105.38 104.93,100.94 L104.93,100.94 Z" id="Shape" opacity="0.97" fill="#72493C"></path>
                    <path d="M81.87,145.24 C81.59,148.5 81.26,151.75 80.87,155.01 C81.41,151.78 81.59,148.48 81.87,145.24 L81.87,145.24 Z" id="Shape" opacity="0.97" fill="#72493C"></path>
                    <path d="M23.58,164.39 C27.59,165.36 33.17,166.4 31.57,172.6 C26.2,172.95 22.98,169.83 23.58,164.39 L23.58,164.39 Z" id="Shape" opacity="0.97" fill="#72493C"></path>
                    <path d="M39.75,185.2 C40.35,185.58 41.55,186.36 42.15,186.75 C40.98,187.51 39.31,186.7 39.75,185.2 L39.75,185.2 Z" id="Shape" opacity="0.97" fill="#72493C"></path>
                    <path d="M80.6200001,193.59 C83.7700001,193.17 86.92,193.99 90.08,193.59 C90.54,194.95 91.52,195.4 93.03,194.92 C97.71,195.44 102.34,196.25 107,196.97 C105.98,203.13 102.87,208.79 102.3,215.04 C101.52,232.38 109.309999,331.670004 109.999999,349.000004 C106.569999,351.130004 101.379999,346.780004 97.9999993,349.000004 L92.42,273.93 C91.74,253.86 91.93,233.5 95.99,213.75 C93.48,212.73 90.78,212.26 88.15,211.7 C85.62,238.77 84.8,265.97 84.91,293.14 C84.69,294.13 84.87,295.06 85.44,295.92 C86.17,308.04 87.01,320.19 88.8,332.2 C88.65,333.2 88.84,334.12 89.38,334.99 C90.1,337.04 90.55,339.18 91.09,341.29 C88.05,342.21 84.9,342.73 81.8,343.38 C74.73,325.89 75.03,306.54 74.9,288 C74.55,262.87 76.8,237.76 80.59,212.95 C81.15,212.08 81.31,211.15 81.06,210.16 C80.44,205.05 80.55,199.92 80.62,194.8 L80.6200001,193.59 Z" id="Shape" opacity="0.97" fill="#72493C"></path>
                    <path d="M79.6,122.97 C80.18,122.76 81.35,122.32 81.93,122.11 C81.97,123.76 81.98,125.41 81.99,127.07 C81.91,127.48 81.75,128.31 81.66,128.72 C81.48,129.79 81.31,130.86 81.16,131.93 C81.09,132.42 80.93,133.38 80.85,133.87 C79.74,134.93 79.65,136.01 80.56,137.11 C79.65,138.04 78.74,138.98 77.81,139.89 C76.36,141 74.88,142.04 73.4,143.1 C72.38,143.5 71.45,144.05 70.61,144.75 C68.96,145.63 68.2,147.36 67.92,149.13 L67.76,149.29 C66.82,148.17 65.23,148.63 64.25,149.41 C63.06,149.99 62.62,150.95 62.94,152.29 C62.6,152.55 61.9,153.06 61.55,153.32 C61.05,151.38 58.9,152.87 59.07,154.3 C56.43,155.84 53.78,157.39 51.11,158.9 C49.05,158.41 47,157.9 44.96,157.36 C44.56,156.28 44.15,155.2 43.75,154.12 C44.64,153.64 45.5,153.11 46.32,152.52 L47.17,151.98 C48.48,151.25 49.76,150.48 50.96,149.58 C51.45,149.25 52.42,148.59 52.9,148.25 C54.64,147.12 56.39,145.99 58.13,144.85 C58.48,144.64 59.17,144.21 59.52,143.99 C60.48,143.44 61.39,142.8 62.27,142.13 C63.03,141.61 63.74,141.04 64.41,140.4 C66.38,138.57 68.36,136.74 70.34,134.91 C71.46,133.96 72.35,132.79 73.17,131.58 C73.76,130.69 74.49,129.95 75.36,129.35 C76.32,129 77,128.36 77.41,127.43 C77.59,127.16 77.95,126.61 78.13,126.34 C78.39,125.85 78.9,124.86 79.16,124.37 C79.27,124.02 79.49,123.32 79.6,122.97 L79.6,122.97 Z" id="Shape" fill="#EB5D30"></path>
                    <path d="M57.23,33.65 C58.74,34.11 59.19,35.06 58.58,36.47 C57.49,35.85 57.04,34.9 57.23,33.65 L57.23,33.65 Z" id="Shape" opacity="0.97" fill="#938E4F"></path>
                    <path d="M40.0000001,55.11 C41.8100001,54.61 45.71,55.57 47.53,55.11 C47.54,56.63 47.55,59.68 47.56,61.21 C46.06,61.35 44.56,61.48 43.06,61.61 C42.95,64.14 43.12,62.4599995 43.06,64.9999995 C42.59,60.7899995 40.0100001,61.23 40.0000001,57 L40.0000001,55.11 Z" id="Shape" opacity="0.97" fill="#774F43"></path>
                    <path d="M116.95,142.5 C117.54,141.11 119.36,141.35 119.91,142.63 C119.17,142.6 117.69,142.53 116.95,142.5 L116.95,142.5 Z" id="Shape" opacity="0.97" fill="#938E4F"></path>
                    <path d="M44.96,157.36 C47,157.9 49.05,158.41 51.11,158.9 C49.58,159.75 48.04,160.59 46.51,161.44 C45.99,160.08 45.47,158.72 44.96,157.36 L44.96,157.36 Z" id="Shape" opacity="0.97" fill="#938E4F"></path>
                    <path id="Shape" opacity="0.97" fill="#938E4F" d="M123.35,156.69 C123.47,159.89 123.52,163.07 123.59,166.29 C123.53,163.09 123.42,159.87 123.35,156.69 L123.35,156.69 Z"></path>
                    <path d="M115.67,159.03 L116.41,159.01 C116.64,159.64 117.1,160.9 117.33,161.53 C116.06,161.24 115.5,160.4 115.67,159.03 L115.67,159.03 Z" id="Shape" opacity="0.97" fill="#938E4F"></path>
                    <path d="M88.78,189.33 C90.25,188.57 91.98,188.77 93.15,189.96 C91.67,190.59 90,190.4 88.78,189.33 L88.78,189.33 Z" id="Shape" opacity="0.97" fill="#938E4F"></path>
                    <path d="M104.49,189.8 C105.13,189.95 106.41,190.23 107.05,190.38 L107.05,191.11 C105.68,191.62 104.83,191.18 104.49,189.8 L104.49,189.8 Z" id="Shape" opacity="0.97" fill="#938E4F"></path>
                    <path d="M90.08,193.59 C91.36,193.31 92.34,193.76 93.03,194.92 C91.52,195.4 90.54,194.95 90.08,193.59 L90.08,193.59 Z" id="Shape" opacity="0.97" fill="#938E4F"></path>
                    <path d="M0.51,139.74 C12.63,138.89 25.14,138.08 37.04,140.94 C39.97,143.95 41.5,148.32 43.08,152.25 C43.25,152.72 43.58,153.66 43.75,154.12 C44.15,155.2 44.56,156.28 44.96,157.36 C45.47,158.72 45.99,160.08 46.51,161.44 C47.79,164.82 49.09,168.19 50.41,171.56 C46.75,172.74 43.02,173.7 39.3,174.69 C39.47,178.19 39.62,181.69 39.75,185.2 C39.31,186.7 40.98,187.51 42.15,186.75 C46.12,185.89 50.07,184.93 53.98,183.85 C56.43,187.81 59.57,192.38 57.44,197.19 C46.32,196.89 35.18,196.77 24.09,195.78 C22.11,195.52 21.06,193.42 20.19,191.89 C16.35,184.87 14.25,177.1 11.26,169.71 C7.55,159.77 2.89,150.12 0.51,139.74 L0.51,139.74 Z M23.58,164.39 C22.98,169.83 26.2,172.95 31.57,172.6 C33.17,166.4 27.59,165.36 23.58,164.39 L23.58,164.39 Z" id="Shape" fill="#402014"></path>
                    <path d="M59.9999997,31 C59.8099997,32.25 63.9999997,40.3500002 62.9999997,39.9999998 C65.8899997,40.3499998 100.13,49.87 103.02,50.27 C104.57,51.05 107.840002,48.2300002 109.370002,47.0000002 C109.690002,47.2500002 109.05,51.24 109.37,51.48 C109.74,51.8 110.47,52.44 110.84,52.75 C110.84,53.94 110.86,55.13 110.89,56.32 C105.88,67.27 100.62,78.11 94.81,88.66 C95.77,90.15 96.88,91.57 97.55,93.22 C97.85,94.42 98.12,95.64 98.34,96.86 L98.31,97.41 C98.02,100.38 97.59,103.33 97.25,106.29 C95.87,106.57 95.6100011,114.850003 94.8100011,116.000003 C93.4800011,115.470003 85.3299997,121.520003 83.9999997,121.000003 C83.8799997,118.470003 89.46,101.96 89.26,99.45 C89.26,98.78 87.02,91.4 86.07,92.33 C81.75,94.02 77.25,95.51 72.61,95.9 C72.04,95.93 70.91,95.98 70.34,96.01 C64.4,96.29 59.36,92.19 55.03,88.68 C54.19,87.71 53.28,86.81 52.32,85.97 C48.37,81.03 43.94,75.61 42.8,69.22 C42.86,66.68 42.95,64.14 43.06,61.61 C44.56,61.48 46.06,61.35 47.56,61.21 C47.55,59.68 47.54,56.63 47.53,55.11 C45.71,55.57 43.89,56.06 42.08,56.56 C41.54,56.7 40.46,56.99 39.92,57.13 C39.03,54.76 38.19,52.39 37.43,49.98 C41.24,47.32 45.08,44.71 48.92,42.08 C50.41,42.13 59.6999997,30.89 59.9999997,31 Z" id="Shape" fill="#F9DF94"></path>
                    <path d="M115.67,159.03 C115.43,157.66 115.93,156.8 117.18,156.43 C116.99,157.08 116.6,158.36 116.41,159.01 L115.67,159.03 L115.67,159.03 Z" id="Shape" fill="#F9DF94"></path>
                    <path d="M50.41,171.56 C51.64,172.17 52.86,172.8 54.08,173.43 C54.6,176.14 55.13,178.9 55.73,181.61 C55.82,182.03 56,182.88 56.1,183.3 C55.57,183.44 54.51,183.71 53.98,183.85 C50.07,184.93 46.12,185.89 42.15,186.75 C41.55,186.36 40.35,185.58 39.75,185.2 C39.62,181.69 39.47,178.19 39.3,174.69 C43.02,173.7 46.75,172.74 50.41,171.56 L50.41,171.56 Z" id="Shape" fill="#F9DF94"></path>
                    <path d="M80.87,187.09 C83.5,187.84 86.14,188.59 88.78,189.33 C90,190.4 91.67,190.59 93.15,189.96 C96.94,189.95 100.7,189.88 104.49,189.8 C104.83,191.18 105.68,191.62 107.05,191.11 C107.05,193.06 107.07,195.02 107,196.97 C102.34,196.25 97.71,195.44 93.03,194.92 C92.34,193.76 91.36,193.31 90.08,193.59 C86.92,193.99 83.77,194.38 80.62,194.8 C80.69,192.22 80.78,189.65 80.87,187.09 L80.87,187.09 Z" id="Shape" fill="#F9DF94"></path>
                    <path d="M112.6,108.17 C112.08,105.87 112.61,103.55 113.28,101.35 C117.39,112.63 118.29,124.88 118.55,136.8 C118.25,136.22 117.66,135.06 117.36,134.48 C117.26,133.35 117,132.25 116.63,131.18 C115.35,123.5 114.01,115.83 112.6,108.17 L112.6,108.17 Z" id="Shape" fill="#F4EDE1"></path>
                    <path d="M115.34,144.4 C115.74,143.93 116.55,142.97 116.95,142.5 C117.69,142.53 119.17,142.6 119.91,142.63 C120.64,143.44 121.38,144.24 122.14,145.01 C121.32,146.42 121.66,147.39 123.19,147.93 C123.16,150.86 123.26,153.75 123.35,156.69 C123.42,159.87 123.53,163.09 123.59,166.29 C123.62,170.49 123.52,174.7 123.45,178.91 C121.67,178.78 118.1,178.51 116.32,178.38 C116.79,172.77 116.98,167.14 117.33,161.53 C117.1,160.9 116.64,159.64 116.41,159.01 C116.6,158.36 116.99,157.08 117.18,156.43 C116.6,152.41 116.04,148.39 115.34,144.4 L115.34,144.4 Z" id="Shape" fill="#F4EDE1"></path>
                    <path d="M111.48,137.06 C112.89,139.43 114.32,141.82 115.34,144.4 C116.04,148.39 116.6,152.41 117.18,156.43 C115.93,156.8 115.43,157.66 115.67,159.03 C115.5,160.4 116.06,161.24 117.33,161.53 C116.98,167.14 116.79,172.77 116.32,178.38 C118.1,178.51 121.67,178.78 123.45,178.91 C124.79,180.05 126.11,181.21 127.44,182.37 C126.44,182.94 125.44,183.51 124.45,184.09 C123.05,184.02 122.11,184.65 121.62,185.96 C120.84,186.92 120.05,187.87 119.27,188.83 C118.68,189.2 117.49,189.94 116.9,190.31 C114.6,189.74 112.3,189.18 110.01,188.64 C109.93,185.17 109.82,181.68 109.73,178.23 C109.73,176.57 109.74,173.26 109.74,171.61 C106.15,167.78 103.14,163.38 101.52,158.34 L102.23,158.53 C103.58,160.81 104.91,163.1 106.22,165.4 C108.13,164.33 110.03,163.26 111.93,162.18 L112.55,161.83 C112.27,160.67 111.7,158.35 111.42,157.19 C111.3,155.43 111.07,151.91 110.95,150.15 C111.54,148.62 111.18,146.94 109.94,145.86 C109.78,144.69 109.64,143.53 109.49,142.36 C110.09,140.57 110.78,138.81 111.48,137.06 L111.48,137.06 Z" id="Shape" fill="#13886E"></path>
                    <path d="M106.39,92.15 C109.4,93.69 112.64,94.8 115.53,96.56 C116.01,97.44 116.73,98.04 117.69,98.35 C121.76,108.44 123.52,119.53 123.81,130.4 C123.68,131.57 123.82,132.77 124.47,133.78 C130,142.74 131.78,153.13 131.88,163.5 C131.86,164.88 132.03,166.25 132.3,167.6 C132.8,171.45 133.09,175.35 133.33,179.23 C131.32,180.2 129.37,181.27 127.44,182.37 C126.11,181.21 124.79,180.05 123.45,178.91 C123.52,174.7 123.62,170.49 123.59,166.29 C123.52,163.07 123.47,159.89 123.35,156.69 C123.26,153.75 123.16,150.86 123.19,147.93 C123.42,146.74 123.07,145.77 122.14,145.01 C121.38,144.24 120.64,143.44 119.91,142.63 C119.36,141.35 117.54,141.11 116.95,142.5 C116.55,142.97 115.74,143.93 115.34,144.4 C114.32,141.82 114.41,191.37 113,189 C112.3,190.75 107.56,188.21 106.96,190 C106.2,185.12 94.6,149.310002 94,144.400002 C93.88,142.510002 107.02,123.93 106.96,122.05 C107.47,120.66 107.55,118.5 105.75,118.06 C105.81,116.81 105.83,115.55 105.81,114.3 C105.6,109.84 105.63,105.35 104.93,100.94 C104.6,99.88 100.47,101.94 99.9999999,100.94 C98.6499999,100.7 99.69,97.11 98.34,96.86 C98.12,95.64 97.85,94.42 97.55,93.22 C100.03,91.91 105.24,91.73 106.39,92.15 Z M116.63,131.18 C114.78,131.66 115.43,134.95 117.36,134.48 C117.66,135.06 118.25,136.22 118.55,136.8 C118.29,124.88 117.39,112.63 113.28,101.35 C112.61,103.55 112.08,105.87 112.6,108.17 C114.01,115.83 115.35,123.5 116.63,131.18 Z" id="Shape" fill="#4393C9"></path>
                    <path d="M103.73,97.85 C104.2,98.85 104.6,99.88 104.93,100.94 C105.3,105.38 105.65,109.84 105.81,114.3 C105.83,115.55 105.81,116.81 105.75,118.06 C105.42,119.52 105.97,120.96 106.96,122.05 C107.02,123.93 107.1,125.82 107.22,127.71 C107.36,139.49 108.47,151.24 108.51,163.02 C104.94,157.88 104.11,151.51 102.51,145.6 C101.78,145.35 100.32,144.86 99.6,144.61 C94.16,153.93 101.63,163.88 105.83,171.97 C107.27,177.96 107.19,184.23 107.05,190.38 C106.41,190.23 105.13,189.95 104.49,189.8 C100.7,189.88 96.94,189.95 93.15,189.96 C91.98,188.77 90.25,188.57 88.78,189.33 C86.14,188.59 83.5,187.84 80.87,187.09 C81.05,186.25 81.42,184.57 81.61,183.73 C81.65,182.63 81.74,180.42 81.78,179.32 C81.3,177.4 80.88,175.47 80.45,173.55 C72.54,177.19 64.72,181.46 55.73,181.61 C55.13,178.9 54.6,176.14 54.08,173.43 C64.01,169.18 74.68,164.28 80.87,155.01 C81.26,151.75 80.5900009,152.26 80.8700009,149 C80.8800009,148.8 75.9900001,138.19 76.0000001,138 C78.0300001,136.11 73.6500001,131.92 74.0000001,129 C75.8500001,118.9 76.0000001,121 89.9999982,103 C79.0000001,125 87.4500008,117.53 88.7800008,118.06 C90.4800008,119.26 95.2999982,110.91 94.9999982,109 C95.3399982,106.04 98.02,100.38 98.31,97.41 C99.8,98.74 102.03,98.8 103.73,97.85 Z" id="Shape" fill="#EB5D30"></path>
                </g>
                <g id="tilley-outlined" fill="#0E0E0D" opacity="0.93" sketch:type="MSShapeGroup">
                    <path d="M93.95,7.06 C98.68,10.92 103.21,15.3 106.59,20.39 C106.95,28.31 112.670001,30.9700018 114.000001,38.7600018 C114.640001,38.8500018 112.21,44.06 112.86,44.15 C112.7,41.83 112.37,39.51 111.54,37.32 C118.43,38 126.27,34.03 132.27,38.76 C136.7,42.85 136.47,49.28 135.84,54.8 C134.27,62.95 131.86,71.79 125.51,77.6 C128.11,66.34 126.52,51.63 115,45.98 C111.9,43.57 107.92,47.44 107.89,50.75 C91.71,49.96 83.4600003,47.9599997 69.1400003,40.9999997 C76.6900003,49.1599997 81.01,47.85 91.39,50.82 C86.02,50.52 80.64,49.12 75.25,49.95 C75.79,49.11 76.32,48.27 76.85,47.43 C73.87,47.12 71.4,48.81 69.14,50.53 C68.1,50.29 67.05,50.07 66,49.86 C68.16,48.96 70.24,47.86 72.23,46.63 C65.74,42.67 59.96,37.62 55.89,31.12 C51.84,39.81 44.81,46.54 35.91,50.13 C34.7,40.06 36.84,30.37 38.84,20.63 C35.14,27.38 34.64,35.16 33.28,42.58 C32.07,32.15 34.19,20.57 42.13,13.15 C54.89,-0.98 78.28,-3.64 93.95,7.06 Z M49.32,10.6 C45.94,13.99 42.67,17.88 40.99,22.42 C39.86,29.24 39.48,36.24 40.07,43.14 L43.67,42.72 C47.13,38.78 49.92,34.3 53.36,30.35 C56.69,27.4 59.71,32 62.7,33.31 C73.64,38.16 84.49,43.77 96.52,45.41 C100.3,45.99 104.24,46.49 107.91,45.08 C106.87,41.39 105.64,37.76 104.3,34.18 C102.23,28.41 102.14,21.84 98.26,16.84 C94.26,11.58 88.15,8.25 82.12,5.85 C71.13,2.3 59.32,5.65 49.32,10.6 L49.32,10.6 Z M116.29,40.53 C115.99,41.1 115.68,41.67 115.35,42.22 C117.93,43.91 120.45,45.7 122.77,47.74 C123.39,47.32 124.02,46.91 124.65,46.51 C125.43,51.49 127.9,56.34 132.81,58.25 C132.02,52.59 132.5,46.34 129.67,41.25 C125.6,39.01 120.72,40.7 116.29,40.53 L116.29,40.53 Z" id="Shape"></path>
                    <path d="M41.67,49.66 C44.75,49.01 47.93,48.99 51.06,48.71 C50.3,49.93 49.49,51.12 48.74,52.34 C46.87,51.89 44.99,51.48 43.12,51.05 C41.31,52.39 39.47,53.7 37.56,54.91 C38.76,53.1 39.23,50.19 41.67,49.66 L41.67,49.66 Z" id="Shape"></path>
                    <path d="M74.2,51.47 C74.94,51.32 76.43,51.01 77.17,50.85 C77.19,53.49 77.48,56.1 77.77,58.72 C76.6,58.69 75.44,58.67 74.27,58.67 C74.44,56.26 74.41,53.86 74.2,51.47 L74.2,51.47 Z" id="Shape"></path>
                    <path d="M42.8648871,54.785 C45.4548871,56.975 48.6748871,61.055 44.9348871,63.855 C41.3848871,61.875 41.5048871,58.145 42.8648871,54.785 L42.8648871,54.785 Z" id="Shape"></path>
                    <path d="M95,86.9999995 C98.42,81.9399995 103.55,70.62 106,65 C105.15,71.1 100.76,81.08 95,84 L95,86.9999995 Z" id="Shape"></path>
                    <path d="M66.78,85.76 C70.74,84.52 74.57,82.87 78.25,80.93 C77.32,83.33 76.87,86.19 74.72,87.87 C71.87,88.51 69.28,86.84 66.78,85.76 L66.78,85.76 Z" id="Shape"></path>
                    <path d="M99.08,90.98 C102.09,90.57 105.1,90.19 108.13,89.82 C107.98,91.39 107.8,92.96 107.64,94.53 C107.13,94.57 106.12,94.64 105.61,94.67 C105.28,94.02 104.62,92.71 104.29,92.05 C101.93,92.56 100.24,94.11 99.53,96.43 C100.83,96.5 102.12,96.58 103.42,96.64 C99.21,106.5 101.99,118.31 96.55,127.77 C96.9,115.51 96.9,103.09 99.08,90.98 L99.08,90.98 Z" id="Shape"></path>
                    <path d="M106.25,97.49 C108.77,96.14 111.63,94.26 114.65,95.24 C116.98,96.73 118.31,99.31 119.22,101.84 C123.5,114.54 123.1,128.19 125.48,141.24 C126.66,141.67 129.03,142.52 130.22,142.95 C130.86,153.31 132.83,163.56 132.98,173.97 C132.97,175.63 131.85,177 131.18,178.45 C130.51,172.18 130.74,165.82 129.12,159.67 C128.18,159.61 127.25,159.56 126.32,159.51 C127.59,156.34 127.27,152.9 126.11,149.76 C126.61,149.62 127.61,149.34 128.11,149.21 C127.01,147.44 125.96,145.65 124.98,143.82 C124.16,143.97 123.33,144.1 122.51,144.25 C122.43,142.05 122.35,139.82 122.29,137.64 C121.93,137.48 121.21,137.17 120.85,137.02 C121.58,139.24 120.81,141.26 119.02,142.71 C117.85,141.48 117.07,139.99 116.67,138.35 C118.1,137.44 119.5,136.47 120.89,135.49 C120.46,134.07 120.12,132.61 119.84,131.15 C118.68,131.06 117.52,130.96 116.37,130.86 C116.37,132.4 116.38,133.94 116.39,135.48 C115.74,133.11 115.12,130.7 114.51,128.33 C116.01,129 117.53,129.6 119.05,130.22 C118.68,120.13 117.05,110.12 114.51,100.35 C114.23,98.57 112.49,97.78 111.21,96.81 C107.33,102.85 110.2,110.19 110.27,116.84 C109.45,116.16 108.64,115.48 107.83,114.8 C107.17,114.99 106.51,115.18 105.85,115.36 C106.75,110.49 106.09,105.57 104.87,100.81 C105.49,101.9 106.12,102.98 106.74,104.07 C107.12,103.39 107.49,102.7 107.86,102.01 C107.38,100.48 106.81,98.99 106.25,97.49 L106.25,97.49 Z" id="Shape"></path>
                    <path d="M81.01,101.97 C83.54,100.81 86.23,100.08 88.98,99.72 C89.65,113.76 87.38,127.69 84.33,141.34 C83.27,146.11 84.65,151.23 82.82,155.83 C78.88,161.79 72.97,166.2 66.92,169.88 C63.05,172.31 57.88,173.9 56.47,178.78 C64.68,178.04 72.36,175.1 79.59,171.28 C73.63,178.34 63.9,180.44 55.28,182.08 C54.34,179.27 53.63,176.4 53.03,173.51 C63.96,170.08 73.69,163.74 81.87,155.79 C81.42,150.25 81.14,144.66 82.13,139.15 C84.06,126.98 84.45,114.64 84.72,102.34 C83.16,104.49 81.89,106.83 80.97,109.32 C80.98,107.48 81,103.81 81.01,101.97 L81.01,101.97 Z" id="Shape"></path>
                    <path d="M106.87,118.84 C108.08,119.63 109.29,120.43 110.51,121.22 C109.9,124.56 108.98,127.98 109.6,131.39 C111.82,139.75 109.08,148.27 108.35,156.63 C107.78,144.03 108.34,131.39 106.87,118.84 L106.87,118.84 Z" id="Shape"></path>
                    <path d="M63.68,139.73 C70.83,134.08 76,126.5 81.9,119.67 C81.27,123.19 80.63,126.71 80,130.24 C77.83,129.93 75.01,128.61 73.98,131.99 C66.02,139.93 58.04,149.02 46.71,151.97 C52.17,147.62 58.5,144.47 63.68,139.73 L63.68,139.73 Z" id="Shape"></path>
                    <path d="M57.89,152.8 C65.83,149.12 71.62,142.27 78.99,137.69 C71.11,147.68 59.86,155.22 47.84,159.28 C50.89,156.69 54.31,154.57 57.89,152.8 L57.89,152.8 Z" id="Shape"></path>
                    <path d="M0.78,139 C12.76,139.02 24.76,139.29 36.7,140.33 C39.13,141.69 39.49,144.93 40.77,147.17 C43.93,155.82 47.32,164.38 50.29,173.1 C45.83,174.52 41.23,174.83 36.61,174.23 C38.65,177.08 42.07,177.96 45.32,178.66 C43.37,179.91 38.66,177.51 37.52,180.67 C40.86,180.84 44.24,181.06 47.57,181.46 C44.71,182.21 41.81,182.78 38.93,183.42 C39.1,183.99 39.43,185.15 39.6,185.72 C44.72,185.76 49.72,184.6 54.64,183.29 C56.41,187.63 58.31,191.97 58.85,196.68 C47.23,197.18 35.61,196.56 24.01,195.93 C21.4,196.12 20.37,193.36 19.51,191.41 C14.63,178.9 10.04,166.27 5.24,153.72 C3.22,148.99 1.31,144.18 0.78,139 L0.78,139 Z M8.92,144.44 C8.76,146.32 7.69,148.39 8.8,150.16 C12.21,155.92 15.37,161.95 16.73,168.56 C18.18,173.83 22.3,177.96 23.84,183.14 C23.37,186.39 24.06,189.49 27,191.35 C27.21,190.77 27.62,189.6 27.82,189.02 C32.5,192.16 37.88,192.43 43.26,191.05 C42.92,190.66 42.24,189.88 41.9,189.48 C39.49,190.08 36.98,190.3 34.56,190.76 C35.97,190.45 37.39,190.16 38.81,189.9 C36.31,188.66 35.49,186.02 35.34,183.44 C34.5,183.81 33.65,184.17 32.81,184.53 C33.66,181.81 34.4,178.99 34.13,176.11 C30.28,175.81 25.74,176.48 23.21,172.8 C20.11,170.07 21.65,165.99 22.05,162.5 C24.63,161.8 27.14,160.35 29.84,160.45 C32.77,163.26 33.92,167.43 35.15,171.2 C34.55,171.02 33.36,170.66 32.76,170.49 C31.56,166.74 28.9,163.78 24.99,162.87 C21.7,165.91 23.23,170.24 26.14,172.9 C28.68,172.5 31.27,172.28 33.82,171.88 C33.29,172.8 32.75,173.72 32.22,174.65 C35.63,173.14 39.53,171.7 41.38,168.21 C44.51,162.87 37.14,158.02 39.39,152.42 C38.5,152.81 37.63,153.24 36.76,153.65 C36.35,151.39 35.94,149.12 35.53,146.88 C35.03,148.29 34.65,149.74 34.34,151.2 C33.89,148.88 33.29,146.6 32.56,144.37 C32.68,145.53 32.82,146.69 32.97,147.85 C26.33,142.29 16.82,145.51 8.92,144.44 L8.92,144.44 Z M21.12,181.51 C19.83,182.45 21.36,184.73 22.68,183.69 C23.97,182.74 22.43,180.48 21.12,181.51 L21.12,181.51 Z M49.19,189.31 C47.73,190.3 49.34,192.86 50.81,191.69 C52.27,190.69 50.66,188.14 49.19,189.31 L49.19,189.31 Z M45.31,190.32 C44.26,191.63 46.55,193.17 47.49,191.88 C48.52,190.56 46.25,189.02 45.31,190.32 L45.31,190.32 Z" id="Shape"></path>
                    <path d="M98.23,151.97 C98.07,148.32 100.42,145.3 102.63,142.65 C101.26,149.45 105.14,155.59 105.19,162.3 C107.8,166.61 114.84,168.05 114.08,174.44 C109.3,172.13 103.94,169.21 102.05,163.96 C100.71,159.99 98.74,156.16 98.23,151.97 L98.23,151.97 Z" id="Shape"></path>
                    <path d="M124.7,162.4 C123.3,158.3 120.85,152.8 124.96,149.56 C124.96,153.84 124.87,158.12 124.7,162.4 L124.7,162.4 Z" id="Shape"></path>
                    <path d="M82.15,172.04 C83.31,167.6 87.39,164.77 91.36,162.96 C88.68,165.82 85.99,168.66 83.21,171.41 C83.11,173.1 82.92,176.47 82.83,178.15 C91.4,179.67 100.15,179.29 108.8,178.86 C110.57,178.45 111.87,177.08 113.29,176.04 C112.99,179.54 112.64,183.05 112.36,186.55 C113.82,186.27 115.29,185.98 116.75,185.68 C116.87,186.65 116.96,187.63 117.04,188.62 C114.59,188.84 109.69,189.26 107.24,189.48 C105.71,195.07 107.14,201.24 104.45,206.52 C101.71,212.58 102.08,219.46 101.85,225.97 C101.84,246.93 103.3,267.88 105.01,288.77 L105.14,289.89 C104.13,290.46 103.09,290.94 102.01,291.34 C100.74,291.07 99.47,290.78 98.22,290.47 C97.57,272.46 98.05,254.46 98.34,236.45 C94.65,250.65 96.19,265.51 95.91,280.02 C95.49,287.44 97.39,294.75 100.68,301.35 C101.29,303.15 101.28,305.21 100.53,306.98 C99.72,307.86 99.93,309.85 101.52,309.35 L102.22,309.32 C101.54,309.43 100.19,309.67 99.51,309.79 C98.93,307.3 98.3,304.83 97.43,302.42 C96.81,316.97 97.74,331.68 101.16,345.86 C102.38,345.92 103.61,345.99 104.84,346.06 C104.66,343.74 104.53,341.35 104.36,339.05 C104.75,338.83 105.53,338.38 105.92,338.16 C103.33,333.16 100.93,328 100.27,322.34 C102.14,323.75 102.6,326.02 102.89,328.2 C103.34,328.51 104.25,329.13 104.7,329.43 C104.11,326.11 103.5,322.81 102.98,319.49 C101.65,319.94 100.32,320.38 99,320.84 C98.69,317.73 98.35,314.68 98.07,311.58 C103.56,312.58 106.32,318.12 108.14,322.83 C109.6,331.46 110.19,340.22 110.98,348.94 C106.35,349.14 101.64,350.29 97.08,349.01 C91.78,303.38 89.33,257.04 95.67,211.38 C93.16,211.23 90.66,211.09 88.16,210.96 C84.28,254.4 82.23,298.7 90.73,341.72 C86.49,342.7 78.95,343.31 78.89,349.37 C77.95,349.41 77.01,349.45 76.07,349.48 C76.07,349.9 76.06,350.72 76.06,351.13 C81.68,350.74 87.02,348.96 92.2,346.87 C91.95,348.09 91.7,349.32 91.46,350.55 C84.66,352.25 77.69,353.08 70.74,353.89 C73.61,350.04 76.88,346.45 80.69,343.51 C70.03,297.56 75.89,250.04 81.22,203.77 C80.4,193.2 81.04,182.58 82.15,172.04 L82.15,172.04 Z M82.64,180.11 C82.38,185.88 88.04,188 92.5,189.75 C89.55,188.98 86.64,188.14 83.72,187.3 C83.01,189.41 82.37,191.54 81.83,193.7 C89.35,195.56 97.08,196.31 104.82,196.09 C104.55,193.93 103.92,191.76 104.16,189.58 C106.02,185.91 111.9,185.16 111.14,180.06 C101.64,179.86 92.14,179.82 82.64,180.11 L82.64,180.11 Z M82.57,196.25 C80.74,209.01 100.87,198.39 98.69,210.46 C100.3,208.73 100.53,206.04 100.82,203.89 C101.82,203.34 102.81,202.81 103.81,202.27 C103.71,201.51 103.63,200.76 103.57,200 C96.71,197.98 89.84,196.09 82.57,196.25 L82.57,196.25 Z M94.46,206.26 C93.18,207.65 95.58,209.74 96.85,208.42 C98.17,207.01 95.75,204.87 94.46,206.26 L94.46,206.26 Z M79.63,313.08 C82.41,321.36 79.82,331.09 85.8,338.36 C84.94,331.56 84.02,324.77 82.98,318 C79.79,301.32 82.11,284.15 79.32,267.42 C79.27,282.62 79.71,297.86 79.63,313.08 L79.63,313.08 Z M99.12,273.53 C96.83,276.97 103.05,274.31 99.12,273.53 L99.12,273.53 Z M99.18,283.76 C97.97,284.24 98.39,286.65 99.82,286.24 C101.03,285.75 100.6,283.34 99.18,283.76 L99.18,283.76 Z" id="Shape"></path>
                    <path d="M95.64,189.65 C97.74,188.66 99.86,187.72 101.98,186.79 C101.54,188.25 101.08,189.69 100.64,191.16 C98.89,190.97 97.17,190.55 95.64,189.65 L95.64,189.65 Z" id="Shape"></path>
                    <path d="M92.4,355.91 C93.98,351.84 98.22,351.5 102.14,351.72 C98.67,352.88 96.66,357.15 92.4,355.91 L92.4,355.91 Z" id="Shape"></path>
                    <path d="M89.52,358.41 C95.93,356.99 105.11,358.72 109.09,351.96 C109.4,353.6 109.74,355.24 110.08,356.88 C103.04,358.65 95.89,359.84 88.63,360.13 C88.85,359.7 89.3,358.84 89.52,358.41 L89.52,358.41 Z" id="Shape"></path>
                </g>
            </g>
        </g>
    </g>
</svg>