<?xml version="1.0" encoding="UTF-8" standalone="no"?>
<svg width="801px" height="1141px" viewBox="0 0 801 1141" version="1.1" xmlns="http://www.w3.org/2000/svg" xmlns:xlink="http://www.w3.org/1999/xlink" xmlns:sketch="http://www.bohemiancoding.com/sketch/ns">
    <!-- Generator: Sketch 3.3.1 (12005) - http://www.bohemiancoding.com/sketch -->
    <title>title-scr</title>
    <desc>Created with Sketch.</desc>
    <defs></defs>
    <g id="home" stroke="none" stroke-width="1" fill="none" fill-rule="evenodd" sketch:type="MSPage">
        <g id="title-scr" sketch:type="MSArtboardGroup" transform="translate(0.000000, 0.925000)">
            <g id="Rectangle-1-+-Rectangle-1-Copy-+-Rectangle-1-Copy-2" sketch:type="MSLayerGroup" transform="translate(-56.000000, -107.000000)">
                <rect id="Rectangle-1" fill="#EA316E" sketch:type="MSShapeGroup" transform="translate(428.500000, 300.000000) rotate(-13.000000) translate(-428.500000, -300.000000) " x="40" y="82" width="777" height="436"></rect>
                <rect id="Rectangle-1-Copy" fill="#25B786" sketch:type="MSShapeGroup" transform="translate(460.500000, 673.500000) rotate(-13.000000) translate(-460.500000, -673.500000) " x="72" y="506" width="777" height="335"></rect>
                <rect id="Rectangle-1-Copy-2" fill="#AEE7FF" sketch:type="MSShapeGroup" transform="translate(478.500000, 1049.000000) rotate(-13.000000) translate(-478.500000, -1049.000000) " x="90" y="853" width="777" height="392"></rect>
            </g>
            <path d="M0,569.075 C0,380.075 0,191.075 0.1,3.075 C0.1,2.075 2,0.075 3.1,0.075 C268.1,-0.025 532.1,-0.025 797.1,0.075 C798.1,0.075 800.1,1.975 800.1,3.075 C800.2,381.075 800.2,758.075 800.1,1136.075 C800.1,1137.075 798.2,1139.075 797.1,1139.075 C532.1,1139.175 268.1,1139.175 3.1,1139.075 C2.1,1139.075 0.1,1137.175 0.1,1136.075 C2.27318164e-14,947.075 2.27318164e-14,758.075 2.27318164e-14,570.075 M727,495.075 C727,448.275 726.8,401.075 727.1,355.075 C727.2,342.775 730,333.675 710.1,339.475 C671.6,350.575 632.1,357.075 593.1,366.075 C539.1,378.375 485.1,391.075 431.1,403.775 C391.1,413.075 350.1,421.975 310.1,431.375 C233.1,449.075 157.1,466.975 80.1,485.075 C77.5,485.675 74.1,490.175 74,492.775 C73.7,593.775 73.7,695.775 74,796.775 C74,798.675 78.8,802.475 80.6,802.075 C122.6,792.875 164.5,783.275 206.6,773.775 C251.6,763.475 296.6,753.075 341.6,742.775 C369.6,736.375 397.5,730.075 425.6,723.775 C471.5,713.275 517.6,702.775 563.6,692.175 C611.6,681.175 660.6,669.775 708.6,659.575 C722.5,656.675 728.4,652.375 727.9,636.575 C726.5,589.675 727.4,542.575 727.4,495.575 M400.4,1066.575 C507.4,1066.575 613.4,1066.575 720.4,1066.375 C722.8,1066.375 727.4,1062.975 727.4,1061.175 C727.7,935.175 727.7,809.175 727.5,683.175 C727.5,681.575 723.9,678.375 722.6,678.675 C642.7,696.675 562.6,714.675 482.6,733.475 C400.6,752.475 319.6,772.475 237.6,792.475 C216.6,797.575 195.1,802.475 173.8,807.175 C143.1,813.875 111.8,819.875 81.8,826.975 C78.7,827.675 74.4,833.075 74.4,836.375 C74,910.375 74,984.375 74.4,1059.375 C74.4,1061.875 79.2,1066.675 81.7,1066.675 C187.7,1067.075 294.7,1066.975 400.7,1066.975 M400.4,75.975 C295.4,75.975 189.4,75.875 84.4,76.375 C80.9,76.375 74.4,82.775 74.4,86.275 C73.9,209.275 73.9,331.275 74.2,454.275 C74.2,456.075 78.6,459.675 80.4,459.275 C100.3,455.275 120.2,450.675 140.4,446.275 C243.4,422.575 347.4,399.275 450.4,375.275 C538.4,355.275 626.4,335.475 713.4,314.275 C718.4,313.075 725.2,304.575 725.2,299.375 C726,227.375 725.8,155.375 725.4,83.375 C725.4,80.875 720.6,76.075 718.1,76.075 C612.1,75.675 506.1,75.775 401.1,75.775" id="page05" fill="#1A1A1A" sketch:type="MSShapeGroup"></path>
            <text id="the-purpose-is-to-pr" sketch:type="MSTextLayer" font-family="Giro" font-size="14" font-weight="260" sketch:alignment="right" fill="#1C4E68">
                <tspan x="190.024" y="832">the purpose is to provide information as to the workings of the tool and game </tspan>
                <tspan x="150.026" y="849">development in general in a way that is suitable as well as engaging for very young </tspan>
                <tspan x="623.8" y="866">users. </tspan>
                <tspan x="184.984" y="883">as an extra value the web based tool could streamline the usual, mundane and </tspan>
                <tspan x="169.22" y="900">unavoidable tasks concerning project setup without which no development could </tspan>
                <tspan x="166.868" y="917">take place as well as ensure young user does not set the game up for fail right off </tspan>
                <tspan x="170.354" y="934">the bat just because the assets used infringe some petty claims of one or another </tspan>
                <tspan x="555.004" y="951">copyright holder.</tspan>
            </text>
            <text id="here-however-it-woul" sketch:type="MSTextLayer" font-family="Giro" font-size="14" font-weight="260" fill="#1C4E68">
                <tspan x="92" y="601">here however it would be a web based tool easily editable for anyone with basic knowledge of </tspan>
                <tspan x="92" y="618" font-family="Lucida Grande" font-weight="normal">HTML</tspan>
                <tspan x="130.664062" y="618">/</tspan>
                <tspan x="138.588063" y="618" font-family="Lucida Grande" font-weight="normal">JS</tspan>
                <tspan x="150.482594" y="618">/</tspan>
                <tspan x="158.406594" y="618" font-family="Lucida Grande" font-weight="normal">CSS</tspan>
                <tspan x="183.173195" y="618"> as opposed to more advanced and less common programming experience which </tspan>
                <tspan x="92" y="640">would likely to be necessary for adjusting and editing of any potential on boarding routines </tspan>
                <tspan x="92" y="657">within </tspan>
                <tspan x="136.744" y="657" font-family="Apple Color Emoji" font-weight="normal">💟</tspan>
                <tspan x="154.244" y="657" font-family="Lucida Grande" font-weight="normal">GM</tspan>
                <tspan x="176.419781" y="657"> itself.</tspan>
            </text>
            <text id="the-basic-idea-is-ve" sketch:type="MSTextLayer" font-family="Giro" font-size="14" font-weight="260" sketch:alignment="right" fill="#1C4E68">
                <tspan x="351.594" y="451">the basic idea is very simple and probably duplicates some </tspan>
                <tspan x="324.587016" y="468">functionalities provided by </tspan>
                <tspan x="491.285016" y="468" font-family="Apple Color Emoji" font-weight="normal">💟</tspan>
                <tspan x="508.785016" y="468" font-family="Lucida Grande" font-weight="normal">GM</tspan>
                <tspan x="530.960797" y="468"> itself. what </tspan>
                <tspan x="608.310797" y="468" font-family="Lucida Grande" font-weight="normal">I</tspan>
                <tspan x="612.344" y="468"> have in mind is </tspan>
                <tspan x="319.044" y="494">initial project setup, collation of assets and some daunting if not </tspan>
                <tspan x="296.28" y="511">scary considerations regarding licensing etc as well as more general </tspan>
                <tspan x="432.346" y="528">concepts regarding games and creation of fun.</tspan>
            </text>
            <g id="love-logo-+-gameMaker" sketch:type="MSLayerGroup" transform="translate(380.000000, 250.231102) rotate(-13.000000) translate(-380.000000, -250.231102) translate(13.500000, 122.231102)">
                <g id="love-logo" transform="translate(93.350757, 0.252570)" sketch:type="MSShapeGroup">
                    <ellipse id="Oval" fill="#1A1A1A" cx="83.8421841" cy="8.38868286" rx="7.27297982" ry="7.14918516"></ellipse>
                    <ellipse id="Oval" fill="#1A1A1A" cx="102.266824" cy="8.14918516" rx="7.27297982" ry="7.14918516"></ellipse>
                    <path d="M92.6715816,22.3803531 C52.461458,22.3803531 52.324726,83.1777387 92.4148454,83.1777387 C132.445326,83.1777387 133.037347,22.3803531 92.6715816,22.3803531" id="Shape"></path>
                    <path d="M92.6715816,18.8057606 C80.9904487,18.9215774 70.4511736,23.9503142 64.1353179,33.7582813 C58.5569424,42.4202341 57.508906,53.6594681 60.29373,63.4116715 C63.2465598,73.7501082 71.0853775,81.8594289 81.4537375,85.1902343 C92.7486751,88.8191607 105.901859,86.3905825 114.913808,78.8388982 C125.36799,70.0797165 128.427005,54.7625873 124.862518,42.1464203 C120.770012,27.6600264 107.671375,18.9537487 92.6715816,18.8057606 C87.9797823,18.7592909 87.9841461,25.908476 92.6715816,25.9549457 C103.318497,26.0600387 112.826463,31.2968169 116.88915,41.2513423 C120.528549,50.1692359 119.559788,60.5948926 114.322515,68.6892 C108.351399,77.9173682 96.5429887,81.1051899 86.0364421,78.9854565 C75.8011776,76.9200569 68.9434849,68.9816017 66.7172258,59.2129551 C64.9898931,51.6312442 66.5252191,43.4061067 70.7355471,36.8688918 C75.5153495,29.4473227 83.9912801,26.0407359 92.6715816,25.9549457 C97.3590171,25.908476 97.3641081,18.7592909 92.6715816,18.8057606 L92.6715816,18.8057606 L92.6715816,18.8057606 Z" id="Shape" fill="#1A1A1A"></path>
                    <path d="M130.475076,22.3803531 C165.906125,101.355972 167.8211,105.500354 206.143885,22.3803531" id="Shape"></path>
                    <path d="M127.335331,24.1848075 C134.307209,39.7242763 140.903802,55.6405073 149.432098,70.4407504 C153.243867,77.0573213 158.590961,86.0924615 167.225443,86.7416075 C175.639553,87.3743104 181.786676,77.5041453 185.51626,71.5889095 C194.926769,56.6642706 201.926284,40.1360694 209.284358,24.1855224 C211.205879,20.021122 204.938753,16.3836166 203.00414,20.5773286 C196.027898,35.7007149 189.239298,51.072178 180.767732,65.4642026 C178.462924,69.3790964 175.992293,73.2989946 172.786363,76.5711767 C171.664143,77.717906 170.93539,78.3041392 169.682256,79.0097637 C168.808771,79.5016277 168.180385,79.6224489 167.224716,79.5924223 C166.801428,79.5559615 166.820338,79.5631107 167.2829,79.6117251 C166.974525,79.5623957 166.674151,79.4737458 166.375232,79.3858109 C166.255228,79.3507799 165.827576,79.1791994 165.118461,78.7595422 C163.951875,78.068931 162.942385,77.0265798 161.822346,75.7912006 C158.748785,72.3996271 156.470161,68.2480953 154.270811,64.2838721 C146.456722,50.1978326 140.193232,35.2403074 133.614821,20.5773286 C131.726029,16.3657437 125.461084,20.0075386 127.335331,24.1848075 L127.335331,24.1848075 L127.335331,24.1848075 Z" id="Shape" fill="#1A1A1A"></path>
                    <path d="M242.886979,63.3802151 C284.450605,54.1305994 269.550451,24.8360982 245.239061,22.5240518 C220.927671,20.2120053 207.597027,46.421633 215.438754,64.9222944 C223.28048,83.4236706 238.966116,84.1950677 253.080788,82.6529885" id="Shape"></path>
                    <path d="M243.854286,66.8268373 C255.577602,64.1308796 271.175234,58.0576468 272.530918,44.359808 C273.527316,34.2887509 265.431035,25.8141068 256.697641,21.9063622 C244.015019,16.231339 229.10541,18.6141624 219.417801,28.5929951 C209.857469,38.4395678 206.794817,54.2228239 212.299736,66.7253189 C215.762401,74.5887076 221.512419,81.1716773 229.77307,84.315174 C237.197327,87.140532 245.281244,87.0504523 253.081515,86.2268662 C257.694039,85.7392917 257.742041,78.585817 253.081515,79.077681 C246.143093,79.8104725 239.153032,80.0313823 232.483709,77.7171911 C225.055088,75.1399098 220.071642,68.1051116 217.870838,60.950922 C214.032159,48.4713044 220.548749,32.8296022 233.019,27.71579 C243.087714,23.5878505 256.876556,26.7956899 263.073135,35.9452171 C269.696638,45.7245875 260.143579,53.7138019 251.314908,57.1725777 C248.27553,58.362917 245.100875,59.2015164 241.9204,59.933593 C237.354424,60.9830933 239.291218,67.8763377 243.854286,66.8268373 L243.854286,66.8268373 L243.854286,66.8268373 Z" id="Shape" fill="#1A1A1A"></path>
                    <path d="M8.59811674,21.8927787 C-5.84165739,61.7065909 17.8762571,90.9696356 53.3923995,81.7300287" id="Shape"></path>
                    <path d="M5.09108587,20.942652 C-0.872757578,37.7418073 -1.93533993,57.9568433 9.68979101,72.734209 C20.3563432,86.2926387 38.1773257,89.2423925 54.3582512,85.1766509 C58.8994998,84.0356409 56.9721601,77.1409667 52.4250931,78.2826916 C38.8340757,81.6971424 23.7346423,79.490189 14.9481554,67.7991265 C5.19290759,54.818351 7.00315227,37.2134825 12.1044203,22.8429054 C13.653565,18.4783279 6.62641191,16.6188248 5.09108587,20.942652 L5.09108587,20.942652 L5.09108587,20.942652 Z" id="Shape" fill="#1A1A1A"></path>
                    <path d="M265.841231,72.8678988 C269.530814,72.8678988 272.470552,75.8162227 272.470552,79.5023426 C272.470552,83.2470858 269.530814,86.1653832 265.811412,86.1653832 C262.121829,86.1653832 259.122452,83.2470858 259.122452,79.5023426 C259.122452,75.8162227 262.121829,72.8678988 265.811412,72.8678988 L265.841231,72.8678988 L265.841231,72.8678988 Z M265.811412,73.8995262 C262.841854,73.8995262 260.411952,76.4060305 260.411952,79.5023426 C260.411952,82.6565631 262.841854,85.1337557 265.841231,85.1337557 C268.841335,85.1630674 271.240691,82.6565631 271.240691,79.5316542 C271.240691,76.4060305 268.841335,73.8995262 265.841231,73.8995262 L265.811412,73.8995262 L265.811412,73.8995262 Z M264.551732,83.3643324 L263.352417,83.3643324 L263.352417,75.9634959 C263.982257,75.874846 264.581551,75.7861961 265.481946,75.7861961 C266.621622,75.7861961 267.372193,76.0221193 267.822391,76.3459773 C268.271861,76.6705503 268.511869,77.1717082 268.511869,77.8801925 C268.511869,78.8524817 267.85221,79.4430044 267.042,79.6789275 L267.042,79.7382657 C267.701659,79.8555123 268.151129,80.4453201 268.300953,81.5370007 C268.481323,82.6865897 268.660965,83.1291242 268.78097,83.3650473 L267.521289,83.3650473 C267.341647,83.1291242 267.162004,82.4513815 267.011454,81.4783774 C266.831811,80.5346849 266.351794,80.1808003 265.391761,80.1808003 L264.551732,80.1808003 L264.551732,83.3643324 L264.551732,83.3643324 Z M264.551732,79.2664195 L265.42158,79.2664195 C266.411433,79.2664195 267.251462,78.9125348 267.251462,77.9988689 C267.251462,77.3497229 266.772172,76.7020068 265.42158,76.7020068 C265.031748,76.7020068 264.761921,76.7313184 264.551732,76.7606301 L264.551732,79.2664195 L264.551732,79.2664195 Z" id="Shape" fill="#1A1A1A"></path>
                </g>
                <text id="documentation,-on-bo" sketch:type="MSTextLayer" font-family="Giro" font-size="20" font-weight="normal" sketch:alignment="right" fill="#25AAE1">
                    <tspan x="186.492957" y="220.771913">documentation, on-boarding and assets generation panel</tspan>
                    <tspan x="483.532957" y="244.771913">for love2d game maker</tspan>
                </text>
                <text id="gameMaker" sketch:type="MSTextLayer" font-family="Carmen" font-size="132" font-weight="normal" sketch:alignment="middle" text-decoration="underline" fill="#1C4E68">
                    <tspan x="17.6216797" y="163.50514">gameMaker</tspan>
                </text>
            </g>
        </g>
    </g>
</svg>