<?xml version="1.0" encoding="UTF-8" standalone="no"?>
<svg width="166px" height="383px" viewBox="0 0 166 383" version="1.1" xmlns="http://www.w3.org/2000/svg" xmlns:xlink="http://www.w3.org/1999/xlink" xmlns:sketch="http://www.bohemiancoding.com/sketch/ns">
    <!-- Generator: Sketch 3.3.1 (12005) - http://www.bohemiancoding.com/sketch -->
    <title>zorzon_sprite</title>
    <desc>Created with Sketch.</desc>
    <defs></defs>
    <g id="defs" stroke="none" stroke-width="1" fill="none" fill-rule="evenodd" sketch:type="MSPage">
        <g id="zorzon-col-outlined" sketch:type="MSArtboardGroup">
            <g id="zorzon" sketch:type="MSLayerGroup">
                <g id="zorzon-col" sketch:type="MSShapeGroup">
                    <path d="M106.12,213.12 L106.87,213.05 C108.13,221.79 110.62,230.26 113.39,238.63 C126,279.55 137.93,320.67 150.43,361.63 C151.67,366.29 154.88,370.19 155.86,374.92 C155.09,378.39 151.98,381.75 148.14,381.07 C131.51,330.72 114.69,280.34 96.88,230.36 C90.42,229.13 89.61,235.88 90.89,240.06 C95.45,284.91 99.32,329.81 103.85,374.65 C102.46,375.52 101.09,376.4 99.72,377.3 C97.51,375.23 94.08,373.33 95.66,369.43 C95.16,355.35 92.09,341.54 90.38,327.58 C88.1,307.86 85.26,288.2 82.62,268.52 C80.25,251.24 78.33,233.88 75,216.75 C78.35,216.49 103.39,213.37 106.12,213.12 Z" id="Shape" opacity="0.98" fill="#24342F"></path>
                    <path d="M127.75,147.96 C129.26,147.52 132.28,146.64 133.79,146.2 L134.44,146.84 C132.77,147.12 129.42,147.68 127.75,147.96 L127.75,147.96 Z" id="Shape" opacity="0.97" fill="#72493C"></path>
                    <path d="M29.29,179.24 C30.24,177.59 31.49,176.13 32.69,174.66 C33.45,176.73 34.24,178.79 35.07,180.83 C33.18,183.8 31.35,186.81 29.62,189.87 C28.68,189.15 27.74,188.42 26.81,187.7 C27.22,186.13 27.65,184.58 28.11,183.03 C28.49,181.76 28.89,180.5 29.29,179.24 L29.29,179.24 Z" id="Shape" opacity="0.97" fill="#72493C"></path>
                    <path d="M81.79,107.87 C82.95,109.34 84.11,110.81 85.28,112.28 C87.54,112.13 89.8,112.13 92.06,112.28 C93.12,112.91 94.19,113.53 95.26,114.17 C103.34,129.31 109.83,145.31 117.32,160.78 C117.96,160.87 119.25,161.04 119.89,161.12 C120.71,159.55 122.37,156.4 123.19,154.82 C122.54,152.51 121.86,150.2 121.15,147.91 L121.01,147.43 C122.7,147.56 126.07,147.83 127.75,147.96 C129.42,147.68 132.77,147.12 134.44,146.84 L134.79,146.4 C134.29,157.22 130.2,167.83 122.81,175.79 C121.08,177.44 118.62,178.39 116.24,177.9 C111.04,172.13 108.6,164.49 103.64,158.53 C102.76,159.48 101.89,160.44 101.02,161.39 C101.66,170.79 103.37,180.09 103.88,189.5 C103.88,190.88 104.08,192.25 104.35,193.61 C104.5,195.53 104.81,199.39 104.96,201.31 C104.87,202.48 105.04,203.64 105.34,204.77 C105.65,207.54 105.91,210.32 106.12,213.12 C103.39,213.37 78.35,216.49 75,216.75 C72.7,205.2 69.57,193.82 67.26,182.27 C65.92,183.84 64.64,185.46 63.49,187.17 C62.64,188.08 62.63,189.37 62.8,190.52 C63.59,196.95 58.1,204.49 50.97,202.99 C46.88,202.92 42.88,200.78 40.36,197.6 C39.88,196.68 39.16,196.09 38.17,195.83 C36.99,195.3 36.14,194.28 35.3,193.34 C34.51,192.31 33.59,191.29 32.29,190.95 C31.62,190.68 30.29,190.14 29.62,189.87 C31.35,186.81 33.18,183.8 35.07,180.83 C39.5,185.38 44.49,189.91 51.12,190.71 C52.64,186.84 53.8,182.84 54.75,178.79 C55.16,177.69 55.29,176.51 55.11,175.35 C54.76,167.41 54.79,159.47 55.02,151.53 C55.15,150.15 54.95,148.76 54.69,147.41 C54.53,145.52 54.22,141.73 54.06,139.84 C54.23,138.84 54.05,137.91 53.5,137.06 C52.33,131.9 52.32,126.61 51.92,121.38 C56.09,119.63 60.84,118.71 64.23,115.58 C65.3,114.8 66.06,113.62 66.1,112.27 C69.74,111.04 73.39,109.79 77.13,108.84 C78.67,108.47 80.23,108.18 81.79,107.87 Z" id="Shape" opacity="0.97" fill="#938E4F"></path>
                    <path d="M88.03,48.9 C86.96,49.66 89.4400027,54.71 90.1100027,56 C89.2300027,59.26 84.8600021,64.5200009 84.0000021,67.7900009 C83.2400021,71.0800009 87.7800027,68.48 90.1100027,66 C88.5900027,68.54 87.79,76.75 85.42,78.67 C84.4,79.16 81.03,83.34 80.76,84.53 C79.55,87.47 78.06,90.28 76.39,92.98 C75.7,93.79 75.5,94.7 75.79,95.72 C76.32,100.08 76.68,104.47 77.13,108.84 C73.39,109.79 69.74,111.04 66.1,112.27 C66.2,109.11 66.18,105.95 66.2,102.79 C50.72,110.08 33,106.71 17.08,102.81 C16.95,100.32 16.85,97.83 16.78,95.34 C16.72,92.09 16.68,88.86 16.73,85.63 C16.82,82.49 17.17,79.38 17.27,76.24 C17.28,73.42 17.43,70.6 17.15,67.79 C16.05,63 13.02,58.7 12.99,53.67 C13.01,53.1 13.04,51.96 13.06,51.4 C13.81,47.96 15.63,44.84 17.41,41.83 C18.41,40.82 18.46,39.28 17.51,38.22 C16.77,36.91 16.07,35.58 15.41,34.24 C16.0699999,32 49.6299983,31.06 49.9999983,31 C51.5199983,31.59 82.04,41.41 88.03,48.9 Z" id="Shape" fill="#F9DF94"></path>
                    <path d="M12.88,167.45 C16.67,168.35 21.38,168.77 23.67,172.37 C24.1,173.29 24.81,173.9 25.79,174.2 C27.65,175.2 28.85,177.21 29.29,179.24 C28.89,180.5 28.49,181.76 28.11,183.03 C23.59,180.94 18.62,179.48 14.71,176.34 C13.09,175.16 12.99,173.14 13.09,171.32 C13.12,170.03 13.11,168.72 12.88,167.45 L12.88,167.45 Z" id="Shape" fill="#F9DF94"></path>
                    <path d="M94.03,138.69 C93.93,141.82 94,145.02 94.04,148.17 C92.7422756,148.292499 64.2688489,150.522893 59.93,150.06 C60.3,147.4 60.81,144.83 61.06,142.18 C67.04,141.56 90.28,139.18 94.03,138.69 Z" id="Shape" fill="#F4EDE1"></path>
                    <path d="M8.99,202.68 C12.09,205.04 13.39,208.81 14.81,212.3 C12.86,209.09 10.89,205.91 8.99,202.68 L8.99,202.68 Z" id="Shape" fill="#F4EDE1"></path>
                    <path d="M133.74,111.49 C140.18,114.16 147.39,114.97 153.64,117.99 C154.37,118.9 155.23,119.15 156.24,118.76 C153.77,123.32 151.32,127.98 147.92,131.93 C145.38,135.11 140.91,135.17 137.3,136.42 C136.35,138.43 135.38,140.43 134.41,142.43 C133.52,143.77 133.77,145.46 134.44,146.84 L133.79,146.2 C132.28,146.64 129.26,147.52 127.75,147.96 C126.07,147.83 122.7,147.56 121.01,147.43 C119.55,147.24 118.08,147.08 116.61,147.13 L115.37,147.14 C114.61,145.22 112.6,143.16 113.96,141.04 C118.39,131.74 124.02,123.07 129.27,114.22 C130.31,112.84 131.7,110.46 133.74,111.49 Z" id="Shape" fill="#13886E"></path>
                    <path d="M151,131 L139.5,134 C139.5,134 135.319029,136.354139 133.478544,139.031209 C132.731999,140.117092 130.982638,132.570709 130,134 C128.578932,136.067009 128,147 128,147 L134,149 L151,131 Z" id="Path-1258" fill="#F9DF94"></path>
                    <path d="M58.37,1.52 C59.71,1.86 61.08,2.08 62.46,2.17 C71.13,2.15 78.71,7.82 87.25,7.85 C91.13,7.22 95.15,8.08 97.93,11.02 C98.65,11.67 99.39,12.29 100.15,12.91 C101.82,15.89 103.79,18.74 104.94,21.98 C105.19,28.45 105.17,34.92 105.29,41.4 L105.31,42.7 L104.67,42.76 C102.96,42.57 102.84,44.52 103.04,45.72 C103.01,45.98 102.93,46.49 102.89,46.74 C101.92,49.29 100.88,51.82 99.98,54.4 L99.62,55.39 C99.09,55.24 98.04,54.92 97.51,54.77 C96.42,54.2 95,54.62 94.49,55.75 C93.78,56.65 93.48,57.77 93.15,58.84 C93.06,59.08 92.88,59.55 92.79,59.79 C91.49,62.61 90.19,65.43 89.06,68.33 C87.78,68.1 86.71,68.46 85.83,69.39 C85.09,68.58 80.7300024,72.8100017 80.0000024,72.0000017 C80.8600024,68.7300017 85.44,60.44 86.32,57.18 C87.35,56.2 87.56,55.06 86.92,53.78 C87.03,53.33 87.24,52.43 87.35,51.99 C88.58,51.03 88.81,50 88.03,48.9 C82.04,41.41 71.49,41.6 62.95,39.03 C62.26,37.76 61.28,37.33 60,37.73 C59.45,37.88 58.36,38.18 57.81,38.34 C57.48,37.09 56.65,36.58 55.32,36.79 C48.94,36.92 42.58,37.03 36.22,36.94 C36.31,35.62 31.3300006,38.6200019 29.9200006,38.3400019 C28.4800006,37.5600019 26.3999994,34.1200002 24.9499994,33.3500002 C23.3799994,32.2000002 26.42,31.9 24.95,32.76 C23.71,32.86 22.47,32.96 21.24,33.06 C19.71,32.45 18.03,32.77 16.91,33.99 C16.54,34.05 15.79,34.17 15.41,34.24 C11.13,34.91 6.87,35.81 2.69,36.95 C2.1,35.73 1.47,34.53 0.81,33.35 C2.36,32.37 3.89,31.33 5.5,30.44 C6.46,30.06 7.08,29.36 7.36,28.36 C8.68,25.12 11.32,22.25 11.21,18.57 C11.46,17.1 9.96,16.23 8.82,15.76 L8.11,15.43 C19.21,9.04 31.14,2.84 44.13,2.02 C45.13,2.21 46.06,2.02 46.91,1.44 C50.63,0.61 54.63,0.8 58.37,1.52 Z" id="Shape" fill="#EB5D30"></path>
                    <path d="M127.342188,145.975 C128.292188,144.325 129.542188,142.865 130.742188,141.395 C131.502187,143.465 132.292188,145.525 133.122187,147.565 C131.232188,150.535 129.402188,153.545 127.672188,156.605 C126.732188,155.885 125.792188,155.155 124.862188,154.435 C125.272188,152.865 125.702187,151.315 126.162188,149.765 C126.542188,148.495 126.942187,147.235 127.342188,145.975 L127.342188,145.975 Z" id="Shape-Copy-3" opacity="0.97" fill="#72493C" transform="translate(128.992188, 149.000000) rotate(-289.000000) translate(-128.992188, -149.000000) "></path>
                </g>
                <g id="zorzon-outlined" transform="translate(0.000000, 1.000000)" fill="#0E0E0D" opacity="0.93" sketch:type="MSShapeGroup">
                    <path d="M5.59,16.98 C26.32,0.3 56.45,-4.72 81.05,5.94 C84.13,7.09 86.3,9.54 88.51,11.85 C68.77,0 43.49,-0.56 22.57,8.51 C16.63,10.99 12.7,17.42 5.59,16.98 L5.59,16.98 Z" id="Shape"></path>
                    <path d="M103.91,16.32 C104.71,16.01 105.52,15.72 106.34,15.45 C106.68,21.52 107.4,27.6 106.64,33.67 C105.51,38.62 103.64,43.44 103.59,48.58 C102.2,52.52 98.08,54.31 94.45,55.67 C92.56,59.87 91.43,64.39 89.41,68.53 L79.9999998,71.0000009 C82.0000001,64.0000009 85.67,53.17 89.96,46.52 C89.86,52.87 87.8999999,61.0000009 83.0000001,68.5299997 C89.9599999,67.0000009 90.97,59.47 92.6,56.6 C94.44,53.19 98.82,51.82 99.98,47.96 C102.66,39.05 105.1,29.67 103.74,20.3 C103.42,17.72 100.86,16.55 99.5,14.6 C97.88,10.05 92.88,6 87.9,7.38 C87.18,5.96 85.74,3.13 85.02,1.71 C92.88,4.16 100.03,8.8 103.91,16.32 Z" id="Shape"></path>
                    <path d="M40.4,9.29 C48.51,8.92 56.96,8.23 64.69,11.33 C73.23,15.51 80.14,22.49 84.23,31.06 C77.83,25.3 72.14,18.4 64.05,14.9 C56.89,10.62 48.35,10.87 40.4,9.29 L40.4,9.29 Z" id="Shape"></path>
                    <path d="M0.999999981,33.0000002 C4.99999998,30.16 8.73,23.48 13.12,19.7 C11.58,23.57 6.90999998,29.3100002 4.99999998,33.0000002 C15.61,33.0600002 29.05,30.01 39.66,30.16 C27.71,31.61 14.91,34.0199992 2.99999998,35.9999992 L0.999999981,33.0000002 Z" id="Shape"></path>
                    <path d="M31.61,23.66 C47.83,17.14 69.42,17.76 81.28,32.14 C76.01,29.66 71.29,26.01 65.67,24.34 C54.54,21.32 42.9,22.14 31.61,23.66 L31.61,23.66 Z" id="Shape"></path>
                    <path d="M33.9999999,35.0999999 C46.9999999,33 48.34,33.57 59.82,35.29 C69.13,37.47 79.13,38.7 87.36,43.89 C72.33,39.22 60.8699999,35.0800001 44.9999999,35.2900001 C39.4699999,35.2700001 34.4799999,37.5887242 28.9999999,37.9887242 L33.9999999,35.0999999 Z" id="Shape"></path>
                    <path d="M22.61,47.07 C25.12,43.08 29.92,42.14 34.11,40.91 C33.99,42.15 33.88,43.39 33.77,44.63 C30.12,45.75 26.42,46.74 22.61,47.07 L22.61,47.07 Z" id="Shape"></path>
                    <path d="M59.42,44.03 C63.76,44.42 67.29,47.59 69.52,51.17 C65.71,50.66 62.42,48.66 59.24,46.64 C59.29,45.98 59.38,44.68 59.42,44.03 L59.42,44.03 Z" id="Shape"></path>
                    <path d="M26.98,58.1 C25.68,54.95 25.61,51.46 28.89,49.57 C29.42,49.99 30.49,50.85 31.02,51.28 C30.94,52.86 30.78,56.02 30.7,57.6 C29.46,57.77 28.22,57.94 26.98,58.1 L26.98,58.1 Z" id="Shape"></path>
                    <path d="M57.97,58.01 C58.27,56.03 59.19,52.4 61.82,53.11 C64.63,55.36 63.18,58.71 61.97,61.37 C60.21,60.96 57.25,60.55 57.97,58.01 L57.97,58.01 Z" id="Shape"></path>
                    <path d="M30.55,91.44 C35.14,92.1 39.77,92.66 44.41,92.51 C40.11,95.92 34.34,95.3 30.55,91.44 L30.55,91.44 Z" id="Shape"></path>
                    <path d="M79.9999998,84.0000002 C76.9999998,98.0000002 76.8199999,104.769999 76.9999999,108.999999 C76.4899999,109.009999 74.57,109.989999 74.06,109.999999 C74.09,105.819999 74.01,101.18 74.06,97.0000002 L79.9999998,84.0000002 Z" id="Shape"></path>
                    <path d="M33.44,97.16 C35.48,97.11 37.52,97.11 39.56,97.16 C37.73,99.29 35.26,99.29 33.44,97.16 L33.44,97.16 Z" id="Shape"></path>
                    <path d="M83.23,107.14 C82.05,115.98 90.87,110.54 94.87,111.03 C102.56,127.73 110.75,144.24 117.73,161.25 C118.9,163.84 115.78,165.41 114.4,167.13 C112.17,162.8 111.72,156.78 106.88,154.53 C109.01,160.94 111.86,167.51 117.34,171.77 C121.63,173.45 124.03,168.24 125.62,165.21 C127.8,160.09 129.7,154.83 131.45,149.55 C132.15,145.7 131.38,141.71 131.84,137.83 C134.69,139.08 137.55,140.3 140.38,141.63 C138.13,141.55 135.89,141.41 133.66,141.2 C134.71,142.86 136.9,144.59 135.84,146.77 C132.45,156.4 130.21,167.28 122.73,174.75 C120.75,176.85 116.51,178.39 114.74,175.24 C109.94,167.58 105.18,159.7 102.51,151 C103.52,152.21 104.45,153.48 105.34,154.78 C106.21,154.46 107.08,154.13 107.95,153.79 C105.69,146.84 105.88,137.55 98.47,133.96 C99.02,139.33 99.56,144.72 99.2,150.13 C98.71,149.25 98.22,148.36 97.73,147.48 C95.84,149.6 93.56,151.59 90.38,151.32 C79.66,152.96 68.71,153 58.07,155.13 C58.22,163.11 56.74,171.42 59.28,179.13 C56.95,182.88 56.36,188.12 52.24,190.53 C57.64,167.02 54.19,142.82 51.99,119.15 C57.06,118.75 62.32,116.2 67.35,118.1 C63.8,120.2 59.79,121.11 55.93,122.44 C56.23,124.21 56.54,125.98 56.8,127.76 C69.42,125.83 82.48,122.14 95.21,125.51 C94.56,121.21 94.66,114.87 88.95,114.71 C88.68,115.25 88.14,116.34 87.87,116.89 C85.72,116.94 83.59,117.04 81.46,117.19 C81.84,115.53 82.21,113.87 82.52,112.19 C80.21,112.45 77.89,112.61 76.3,114.42 C75.73,113.39 75.18,112.37 74.61,111.35 C71.58,113.45 68.09,114.87 64.36,114.82 C63.89,113.95 63.44,113.08 63,112.2 C69.71,110.39 76.48,108.81 83.23,107.14 Z M95.15,121.4 C94.3,125.38 99.14,120.58 95.15,121.4 L95.15,121.4 Z M56.9,130.96 C58.23,137.36 56.33,145.29 60.28,150.8 C70.28,150.83 80.26,149.33 90.2,148.28 C91.88,147.8 96.83,148.15 96.63,144.95 C96.48,138.87 96.44,132.52 93.97,126.87 C81.7,128.57 68.69,127 56.9,130.96 L56.9,130.96 Z" id="Shape"></path>
                    <path d="M131.42,109.29 C139.68,112.57 148.29,114.84 156.83,117.3 C157.01,118.28 157.22,119.27 157.44,120.26 C152.53,123.88 149,129 145.36,133.83 C142.66,134.08 140.12,133.75 137.54,133.14 C140.66,131.52 143.86,130.07 147.07,128.62 C145.18,126.97 143.34,125.29 141.5,123.6 C144.29,124.12 147.22,123.83 149.79,122.58 C151.55,121.81 150.38,119.52 150.6,118.06 C145.22,117.13 139.86,116.09 134.37,116.16 C129.65,125.8 121.76,133.94 118.65,144.31 C121.1,144.54 123.54,144.83 125.99,145.14 C125.51,146.11 125.03,147.09 124.56,148.06 C119.65,148.59 114.95,146.84 112.22,142.71 C118.25,131.36 124.91,120.36 131.42,109.29 L131.42,109.29 Z M119.79,134.2 C125.55,128.56 129.28,121.17 132.09,113.71 C127.1,119.94 123.58,127.21 119.79,134.2 L119.79,134.2 Z M118.17,136.48 C116.88,136.69 115.82,138.5 116.63,139.63 C118.22,140.47 120.01,137.01 118.17,136.48 L118.17,136.48 Z" id="Shape"></path>
                    <path d="M134.68,123.92 C135.72,121.35 138.98,122.15 141.17,121.48 C141.14,122.57 141.1,123.67 141.06,124.76 C139.47,124.55 136.27,124.13 134.68,123.92 L134.68,123.92 Z" id="Shape"></path>
                    <path d="M124.31,150.3 C125.03,150.2 126.47,150.02 127.2,149.92 C125.83,152.95 125.07,156.17 124.89,159.48 C123.37,160.94 121.42,161.84 119.63,162.9 C120.85,158.58 122.61,154.44 124.31,150.3 L124.31,150.3 Z" id="Shape"></path>
                    <path d="M97.11,155.18 C97.16,153.5 98.55,152.41 99.65,151.34 C101.91,168.35 103.85,185.41 105.44,202.5 C106.11,211.06 107.97,219.44 110.3,227.69 C121.32,263.75 131.96,299.93 142.97,336.01 C146.57,347.51 148.69,359.67 154.61,370.3 C157.06,374.95 161.55,377.91 165.09,381.66 C160.62,382.29 158.56,378.09 155.4,375.9 C153.46,378.11 151.08,379.85 148.48,381.22 C138.92,350.02 127.74,319.36 117.63,288.34 C116.58,284.65 114.88,281.21 113.59,277.62 C108.59,261.67 103,245.91 97.43,230.16 C94.98,230.06 92.54,229.98 90.11,229.92 C91.11,245.97 93.88,261.89 94.23,277.97 C93.89,283.99 96.16,289.76 96.36,295.76 C98.17,317.42 100.47,339.04 102.37,360.69 C103.76,366.85 104.66,373.16 103.85,379.48 C102.28,377.94 100.93,376.01 98.9,375.06 C95.73,376.27 93.72,379.89 89.69,379.13 C91.74,376.93 95.78,375.68 95.72,372.19 C96.01,362.09 94.01,352.14 92.78,342.17 C87.07,302.36 82.39,262.41 76.36,222.66 C74.35,207.09 68.68,192.26 67.07,176.65 C69.78,181.05 72.97,185.43 73.19,190.83 C74.4,198.94 77.75,206.74 77.6,215.03 C86.29,215.29 95.07,215.53 103.5,213.02 C101.61,200.42 100.55,187.7 98.71,175.09 C97.54,168.53 96.38,161.86 97.11,155.18 L97.11,155.18 Z M77.47,219.91 C86.46,221.46 95.86,219.57 104.59,217.29 C100.74,215.34 96.2,215.99 92.08,216.07 C87.14,216.65 81.3,216.12 77.47,219.91 L77.47,219.91 Z M82.09,222.35 C82.02,225.97 82.36,229.59 82.94,233.16 C85.57,230.38 87.85,227.09 91.27,225.22 C95.51,222.78 98.62,228.03 102.72,228.41 C103.1,225.54 103.73,222.8 104.23,219.98 C103.21,221 102.19,222.03 101.16,223.05 C101.31,222.09 101.46,221.13 101.61,220.17 C95.14,221.2 88.63,221.97 82.09,222.35 L82.09,222.35 Z M147.999999,367.999998 C155.999999,372.000002 108,232.88 104,224 C97,231 119.339999,285.900002 121.999999,294.000002 L147.999999,367.999998 Z M92.9795978,329.000002 C93.9195978,331.060002 96.9999998,373.000005 99.9999998,373.000002 C101,371.000005 89,235 86,232.000002 C83,234 83.43,247.65 83,248 L92.9795978,329.000002 Z" id="Shape"></path>
                    <path d="M31.4,174.23 C33.14,173.41 33.57,175.4 34.19,176.56 C36.04,184.44 44.5,187.24 50.87,190.52 C49.51,191.31 48.24,193.41 46.45,192.52 C41,190.17 36.37,186.1 33.32,181 C32.42,183.32 31.54,185.64 30.67,187.97 C29.5,187.84 28.33,187.72 27.17,187.59 C27.32,182.85 28.98,178.26 31.4,174.23 L31.4,174.23 Z" id="Shape"></path>
                    <path d="M58.98,193.98 C60.85,188.53 60.77,182.46 63.7,177.37 C64.07,184.51 64.55,192.85 59.82,198.8 C56.3,203.14 49.36,203.03 45.05,199.92 C39.71,196.62 33.33,193.21 31.69,186.68 C38.26,187.74 40.39,195.54 46.52,197.57 C50.95,200.23 56.4,197.91 58.98,193.98 L58.98,193.98 Z" id="Shape"></path>
                </g>
            </g>
        </g>
    </g>
</svg>