<?xml version="1.0" encoding="UTF-8" ?>
<!DOCTYPE svg PUBLIC "-//W3C//DTD SVG 1.1//EN" "http://www.w3.org/Graphics/SVG/1.1/DTD/svg11.dtd">
<svg width="70pt" height="78pt" viewBox="0 0 70 78" version="1.1" xmlns="http://www.w3.org/2000/svg">
<g id="#1b4d68ff">
<path fill="#1b4d68" opacity="1.00" d=" M 2.99 2.79 C 8.90 1.34 14.97 2.58 20.96 2.14 C 34.28 1.48 47.56 2.85 60.88 3.05 C 63.42 3.08 65.97 3.27 68.48 3.72 C 68.05 15.84 68.01 27.96 67.98 40.09 C 67.61 47.70 67.21 55.31 67.09 62.94 C 66.25 62.83 64.57 62.63 63.73 62.52 C 63.63 67.07 63.84 71.63 63.52 76.17 C 53.32 76.05 43.12 76.03 32.92 75.95 C 23.78 75.39 14.62 75.08 5.45 75.01 C 5.35 70.48 5.78 65.96 5.79 61.43 C 4.52 61.51 3.25 61.59 1.97 61.68 C 1.59 42.03 3.06 22.43 2.99 2.79 M 12.94 2.71 C 12.70 6.23 12.60 9.76 12.53 13.28 C 15.62 13.64 18.74 13.64 21.85 13.68 C 22.08 10.05 22.02 6.41 22.04 2.77 C 19.00 2.80 15.97 2.78 12.94 2.71 M 29.20 3.03 C 28.83 17.87 27.32 32.75 28.26 47.59 C 38.80 48.41 49.39 48.48 59.95 48.15 C 60.23 33.37 60.29 18.59 60.30 3.81 C 49.94 3.38 39.57 3.05 29.20 3.03 M 12.15 30.89 C 15.28 31.11 18.41 31.18 21.55 31.15 C 21.67 27.32 21.64 23.50 21.63 19.67 C 18.62 19.64 15.62 19.60 12.62 19.52 C 12.26 23.30 12.21 27.10 12.15 30.89 M 12.13 36.03 C 11.96 39.81 11.82 43.59 11.82 47.38 C 14.96 47.60 18.11 47.68 21.25 47.53 C 21.24 43.73 21.26 39.93 21.28 36.13 C 18.23 36.07 15.18 36.04 12.13 36.03 M 33.34 54.33 C 35.30 58.65 37.65 62.79 39.58 67.12 C 42.48 63.27 44.56 58.85 46.78 54.59 C 42.30 54.51 37.82 54.38 33.34 54.33 Z" />
<path fill="#1b4d68" opacity="1.00" d=" M 33.97 15.96 C 32.98 13.15 36.14 10.22 38.87 10.98 C 39.58 12.05 40.10 13.22 40.44 14.49 C 41.09 13.39 41.77 12.30 42.43 11.20 C 44.25 11.42 46.59 11.88 47.04 14.01 C 47.43 18.70 44.35 22.80 40.92 25.66 C 37.46 23.50 35.32 19.70 33.97 15.96 Z" />
<path fill="#1b4d68" opacity="1.00" d=" M 44.26 30.03 C 43.90 27.23 46.77 25.80 49.09 25.39 C 49.91 26.82 50.65 28.30 51.34 29.81 C 51.74 28.49 51.78 26.81 53.14 26.06 C 55.29 26.00 57.80 27.50 57.57 29.91 C 57.17 34.26 54.58 38.11 50.98 40.49 C 47.83 37.76 45.21 34.13 44.26 30.03 Z" />
</g>
</svg>
