<?xml version="1.0" encoding="UTF-8" ?>
<!DOCTYPE svg PUBLIC "-//W3C//DTD SVG 1.1//EN" "http://www.w3.org/Graphics/SVG/1.1/DTD/svg11.dtd">
<svg width="64pt" height="64pt" viewBox="0 0 64 64" version="1.1" xmlns="http://www.w3.org/2000/svg">
<g id="#1c4e68ff">
<path fill="#1c4e68" opacity="1.00" d=" M 14.45 4.49 C 17.38 2.96 20.66 2.03 23.97 2.01 C 25.60 2.54 26.60 4.06 27.47 5.44 C 30.03 9.91 31.53 14.89 32.93 19.82 C 34.47 14.25 35.03 7.23 40.09 3.64 C 45.90 2.81 52.29 5.35 55.76 10.14 C 58.09 13.39 58.35 17.61 57.66 21.43 C 55.89 31.55 52.18 41.58 45.44 49.47 C 41.99 53.38 38.01 56.78 34.04 60.15 C 29.23 57.87 25.31 54.15 22.22 49.86 C 16.01 41.45 9.75 32.71 6.67 22.60 C 4.40 15.71 8.16 7.79 14.45 4.49 Z" />
</g>
</svg>
