<?xml version="1.0" encoding="UTF-8" ?>
<!DOCTYPE svg PUBLIC "-//W3C//DTD SVG 1.1//EN" "http://www.w3.org/Graphics/SVG/1.1/DTD/svg11.dtd">
<svg width="84pt" height="84pt" viewBox="0 0 84 84" version="1.1" xmlns="http://www.w3.org/2000/svg">
<g id="#1b4d68ff">
<path fill="#1b4d68" opacity="1.00" d=" M 38.95 0.00 L 39.42 0.00 C 39.48 0.90 39.60 2.69 39.66 3.59 C 36.84 4.03 34.02 4.52 31.20 5.03 C 30.96 4.14 30.47 2.37 30.23 1.48 C 33.12 0.90 36.02 0.37 38.95 0.00 Z" />
<path fill="#1b4d68" opacity="1.00" d=" M 45.59 0.03 C 48.66 0.52 51.72 1.13 54.73 1.90 C 54.36 3.07 53.99 4.24 53.63 5.41 C 50.85 4.75 48.04 4.17 45.22 3.70 C 45.31 2.78 45.49 0.95 45.59 0.03 Z" />
<path fill="#1b4d68" opacity="1.00" d=" M 16.45 8.46 C 19.03 6.71 21.70 5.11 24.46 3.66 C 24.98 4.79 25.50 5.91 26.02 7.04 C 23.49 8.38 21.04 9.85 18.65 11.42 C 17.92 10.44 17.18 9.45 16.45 8.46 Z" />
<path fill="#1b4d68" opacity="1.00" d=" M 58.76 7.51 C 59.32 6.41 59.88 5.32 60.44 4.22 C 63.15 5.76 65.78 7.44 68.29 9.29 C 67.51 10.25 66.74 11.21 65.97 12.17 C 63.64 10.50 61.23 8.95 58.76 7.51 Z" />
<path fill="#1b4d68" opacity="1.00" d=" M 38.35 9.34 C 52.55 7.27 67.40 15.79 72.76 29.11 C 77.10 39.23 75.94 51.54 69.65 60.61 C 63.61 69.64 52.80 75.21 41.94 74.92 C 30.25 74.80 18.97 67.83 13.60 57.45 C 8.18 47.35 8.59 34.37 14.69 24.65 C 19.76 16.34 28.69 10.58 38.35 9.34 Z" />
<path fill="#1b4d68" opacity="1.00" d=" M 72.76 9.87 C 76.99 7.05 82.79 9.84 84.00 14.58 L 84.00 17.38 C 83.13 22.07 77.66 25.07 73.35 22.74 C 68.31 20.48 67.96 12.58 72.76 9.87 Z" />
<path fill="#1b4d68" opacity="1.00" d=" M 6.10 19.94 C 7.86 17.35 9.79 14.88 11.87 12.54 C 12.75 13.41 13.62 14.28 14.50 15.15 C 12.63 17.30 10.88 19.56 9.23 21.89 C 8.45 21.41 6.89 20.43 6.10 19.94 Z" />
<path fill="#1b4d68" opacity="1.00" d=" M 3.26 25.39 C 4.39 25.88 5.52 26.36 6.66 26.84 C 5.72 29.54 4.90 32.28 4.19 35.06 C 2.99 34.83 1.78 34.60 0.57 34.38 C 1.30 31.34 2.19 28.33 3.26 25.39 Z" />
<path fill="#1b4d68" opacity="1.00" d=" M 77.50 27.95 C 78.64 27.50 79.79 27.05 80.93 26.59 C 81.92 29.56 82.72 32.60 83.35 35.67 C 82.44 35.80 80.62 36.08 79.72 36.21 C 79.09 33.43 78.36 30.67 77.50 27.95 Z" />
<path fill="#1b4d68" opacity="1.00" d=" M -0.00 40.49 C 1.18 40.53 2.36 40.58 3.55 40.62 C 3.74 43.47 3.96 46.32 4.21 49.17 C 3.32 49.34 1.53 49.68 0.64 49.84 C 0.41 48.10 0.20 46.35 0.00 44.61 L 0.00 40.49 Z" />
<path fill="#1b4d68" opacity="1.00" d=" M 80.17 41.81 C 81.09 41.81 82.92 41.82 83.84 41.82 C 83.65 44.99 83.31 48.14 82.82 51.28 C 81.62 51.02 80.43 50.77 79.23 50.52 C 79.64 47.62 79.95 44.72 80.17 41.81 Z" />
<path fill="#1b4d68" opacity="1.00" d=" M 2.19 55.80 C 3.34 55.39 4.50 54.98 5.65 54.57 C 6.78 57.20 8.01 59.79 9.35 62.33 C 8.30 62.97 7.26 63.62 6.22 64.26 C 4.71 61.52 3.37 58.70 2.19 55.80 Z" />
<path fill="#1b4d68" opacity="1.00" d=" M 77.59 55.82 C 78.73 56.28 79.87 56.73 81.00 57.19 C 79.74 60.04 78.30 62.81 76.70 65.49 C 75.68 64.82 74.65 64.14 73.63 63.47 C 75.05 60.98 76.38 58.43 77.59 55.82 Z" />
<path fill="#1b4d68" opacity="1.00" d=" M 9.84 69.22 C 10.78 68.42 11.71 67.62 12.63 66.82 C 14.63 68.87 16.70 70.86 18.88 72.72 C 18.32 73.45 17.18 74.92 16.62 75.65 C 14.23 73.65 11.97 71.50 9.84 69.22 Z" />
<path fill="#1b4d68" opacity="1.00" d=" M 63.76 73.52 C 65.99 71.72 68.14 69.82 70.19 67.82 C 71.09 68.66 71.99 69.50 72.89 70.34 C 70.69 72.55 68.35 74.62 65.88 76.53 C 65.17 75.52 64.47 74.52 63.76 73.52 Z" />
<path fill="#1b4d68" opacity="1.00" d=" M 21.79 78.99 C 22.37 77.91 22.95 76.83 23.53 75.75 C 26.13 76.94 28.77 78.02 31.46 78.99 C 31.12 80.17 30.78 81.36 30.45 82.54 C 27.50 81.53 24.60 80.35 21.79 78.99 Z" />
<path fill="#1b4d68" opacity="1.00" d=" M 50.95 79.33 C 53.68 78.47 56.36 77.47 59.00 76.36 C 59.40 77.19 60.21 78.85 60.61 79.68 C 57.76 80.94 54.83 82.00 51.85 82.92 C 51.55 81.72 51.25 80.52 50.95 79.33 Z" />
<path fill="#1b4d68" opacity="1.00" d=" M 36.87 80.15 C 39.74 80.22 42.62 80.27 45.49 80.28 C 45.58 81.52 45.66 82.76 45.75 84.00 L 36.57 84.00 C 36.67 82.72 36.77 81.43 36.87 80.15 Z" />
</g>
</svg>
